SeanSlab-NormalBlack.ufo
<glyph name="exclam" format="1">
  <advance width="301"/>
  <unicode hex="0021"/>
  <outline>
    <contour>
      <point x="215" y="229" type="line"/>
      <point x="230" y="722" type="line"/>
      <point x="71" y="722" type="line"/>
      <point x="86" y="229" type="line"/>
    </contour>
    <contour>
      <point x="234" y="63" type="curve"/>
      <point x="234" y="112"/>
      <point x="198" y="136"/>
      <point x="150" y="136" type="curve"/>
      <point x="100" y="136"/>
      <point x="67" y="109"/>
      <point x="67" y="63" type="curve"/>
      <point x="234" y="63"/>
      <point x="68" y="63"/>
      <point x="234" y="63" type="curve"/>
      <point x="234" y="12"/>
      <point x="199" y="-9"/>
      <point x="149" y="-9" type="curve"/>
      <point x="99" y="-9"/>
      <point x="67" y="15"/>
      <point x="67" y="63" type="curve"/>
      <point x="234" y="63"/>
      <point x="68" y="63"/>
    </contour>
  </outline>
</glyph>
<glyph name="quotedbl" format="1">
  <advance width="489"/>
  <unicode hex="0022"/>
  <outline>
    <contour>
      <point x="206" y="618" type="line"/>
      <point x="216" y="845" type="line"/>
      <point x="56" y="845" type="line"/>
      <point x="66" y="618" type="line"/>
    </contour>
    <contour>
      <point x="423" y="618" type="line"/>
      <point x="433" y="845" type="line"/>
      <point x="273" y="845" type="line"/>
      <point x="282" y="618" type="line"/>
    </contour>
  </outline>
</glyph>
<glyph name="numbersign" format="1">
  <advance width="735"/>
  <unicode hex="0023"/>
  <outline>
    <contour>
      <point x="43" y="216" type="line"/>
      <point x="583" y="216" type="line"/>
      <point x="622" y="328" type="line"/>
      <point x="83" y="328" type="line"/>
    </contour>
    <contour>
      <point x="111" y="428" type="line"/>
      <point x="655" y="428" type="line"/>
      <point x="693" y="540" type="line"/>
      <point x="148" y="540" type="line"/>
    </contour>
    <contour>
      <point x="470" y="39" type="line"/>
      <point x="696" y="722" type="line"/>
      <point x="546" y="722" type="line"/>
      <point x="320" y="39" type="line"/>
    </contour>
    <contour>
      <point x="188" y="46" type="line"/>
      <point x="412" y="722" type="line"/>
      <point x="263" y="722" type="line"/>
      <point x="45" y="46" type="line"/>
    </contour>
  </outline>
</glyph>
<glyph name="dollar" format="1">
  <advance width="640"/>
  <unicode hex="0024"/>
  <outline>
    <contour>
      <point x="179" y="91" type="curve"/>
      <point x="179" y="211"/>
      <point x="179" y="107"/>
      <point x="179" y="227" type="curve"/>
      <point x="64" y="227"/>
      <point x="179" y="227"/>
      <point x="64" y="227" type="curve"/>
      <point x="64" y="107"/>
      <point x="64" y="211"/>
      <point x="64" y="91" type="curve"/>
      <point x="179" y="91"/>
      <point x="64" y="91"/>
    </contour>
    <contour>
      <point x="436" y="636" type="curve"/>
      <point x="436" y="516"/>
      <point x="436" y="620"/>
      <point x="436" y="500" type="curve"/>
      <point x="551" y="500"/>
      <point x="436" y="500"/>
      <point x="551" y="500" type="curve"/>
      <point x="551" y="620"/>
      <point x="551" y="516"/>
      <point x="551" y="636" type="curve"/>
      <point x="436" y="636"/>
      <point x="551" y="636"/>
    </contour>
    <contour>
      <point x="377" y="-40" type="curve"/>
      <point x="377" y="-10"/>
      <point x="377" y="68"/>
      <point x="377" y="98" type="curve"/>
      <point x="227" y="98"/>
      <point x="377" y="98"/>
      <point x="227" y="98" type="curve"/>
      <point x="227" y="68"/>
      <point x="227" y="-10"/>
      <point x="227" y="-40" type="curve"/>
      <point x="377" y="-40"/>
      <point x="227" y="-40"/>
    </contour>
    <contour>
      <point x="389" y="631" type="curve"/>
      <point x="389" y="661"/>
      <point x="389" y="743"/>
      <point x="389" y="773" type="curve"/>
      <point x="239" y="773"/>
      <point x="389" y="773"/>
      <point x="239" y="773" type="curve"/>
      <point x="239" y="743"/>
      <point x="239" y="661"/>
      <point x="239" y="631" type="curve"/>
      <point x="389" y="631"/>
      <point x="239" y="631"/>
    </contour>
    <contour>
      <point x="64" y="91" type="curve"/>
      <point x="129" y="64"/>
      <point x="207" y="42"/>
      <point x="295" y="42" type="curve"/>
      <point x="461" y="42"/>
      <point x="600" y="89"/>
      <point x="600" y="222" type="curve"/>
      <point x="600" y="335"/>
      <point x="484" y="378"/>
      <point x="361" y="424" type="curve"/>
      <point x="285" y="451"/>
      <point x="210" y="465"/>
      <point x="210" y="519" type="curve"/>
      <point x="210" y="562"/>
      <point x="258" y="577"/>
      <point x="316" y="577" type="curve"/>
      <point x="378" y="577"/>
      <point x="422" y="565"/>
      <point x="477" y="541" type="curve"/>
      <point x="551" y="636"/>
      <point x="477" y="541"/>
      <point x="551" y="636" type="curve"/>
      <point x="474" y="670"/>
      <point x="411" y="688"/>
      <point x="323" y="688" type="curve"/>
      <point x="176" y="688"/>
      <point x="60" y="638"/>
      <point x="60" y="519" type="curve"/>
      <point x="60" y="410"/>
      <point x="154" y="366"/>
      <point x="272" y="323" type="curve"/>
      <point x="355" y="294"/>
      <point x="450" y="280"/>
      <point x="450" y="216" type="curve"/>
      <point x="450" y="162"/>
      <point x="383" y="153"/>
      <point x="309" y="153" type="curve"/>
      <point x="246" y="153"/>
      <point x="191" y="173"/>
      <point x="145" y="191" type="curve"/>
      <point x="64" y="91"/>
      <point x="145" y="192"/>
    </contour>
  </outline>
</glyph>
<glyph name="percent" format="1">
  <advance width="1193"/>
  <unicode hex="0025"/>
  <outline>
    <contour>
      <point x="446" y="-34" type="line"/>
      <point x="890" y="706" type="line"/>
      <point x="754" y="706" type="line"/>
      <point x="310" y="-34" type="line"/>
    </contour>
    <contour>
      <point x="174" y="487" type="curve"/>
      <point x="174" y="554"/>
      <point x="203" y="602"/>
      <point x="267" y="602" type="curve"/>
      <point x="331" y="603"/>
      <point x="362" y="554"/>
      <point x="362" y="486" type="curve"/>
      <point x="362" y="418"/>
      <point x="337" y="368"/>
      <point x="274" y="368" type="curve"/>
      <point x="207" y="368"/>
      <point x="174" y="417"/>
      <point x="174" y="487" type="curve"/>
      <point x="124" y="487"/>
      <point x="89" y="487"/>
      <point x="39" y="487" type="curve"/>
      <point x="39" y="347"/>
      <point x="126" y="261"/>
      <point x="268" y="261" type="curve"/>
      <point x="412" y="261"/>
      <point x="503" y="347"/>
      <point x="503" y="491" type="curve"/>
      <point x="503" y="629"/>
      <point x="413" y="708"/>
      <point x="273" y="709" type="curve"/>
      <point x="130" y="709"/>
      <point x="39" y="627"/>
      <point x="39" y="487" type="curve"/>
      <point x="89" y="487"/>
      <point x="124" y="487"/>
    </contour>
    <contour>
      <point x="825" y="188" type="curve"/>
      <point x="825" y="255"/>
      <point x="855" y="302"/>
      <point x="918" y="302" type="curve"/>
      <point x="983" y="303"/>
      <point x="1014" y="255"/>
      <point x="1014" y="186" type="curve"/>
      <point x="1014" y="119"/>
      <point x="988" y="68"/>
      <point x="926" y="68" type="curve"/>
      <point x="858" y="68"/>
      <point x="825" y="117"/>
      <point x="825" y="188" type="curve"/>
      <point x="775" y="188"/>
      <point x="741" y="188"/>
      <point x="690" y="188" type="curve"/>
      <point x="690" y="47"/>
      <point x="778" y="-38"/>
      <point x="919" y="-38" type="curve"/>
      <point x="1064" y="-38"/>
      <point x="1155" y="48"/>
      <point x="1155" y="192" type="curve"/>
      <point x="1155" y="329"/>
      <point x="1065" y="409"/>
      <point x="925" y="409" type="curve"/>
      <point x="782" y="409"/>
      <point x="690" y="328"/>
      <point x="690" y="188" type="curve"/>
      <point x="741" y="188"/>
      <point x="775" y="188"/>
    </contour>
  </outline>
</glyph>
<glyph name="ampersand" format="1">
  <advance width="765"/>
  <unicode hex="0026"/>
  <outline>
    <contour>
      <point x="741" y="66" type="line"/>
      <point x="639" y="158"/>
      <point x="513" y="280"/>
      <point x="407" y="378" type="curve"/>
      <point x="349" y="432"/>
      <point x="272" y="468"/>
      <point x="272" y="549" type="curve"/>
      <point x="272" y="587"/>
      <point x="294" y="615"/>
      <point x="332" y="615" type="curve"/>
      <point x="377" y="615"/>
      <point x="408" y="594"/>
      <point x="408" y="551" type="curve"/>
      <point x="407" y="478"/>
      <point x="347" y="453"/>
      <point x="279" y="420" type="curve"/>
      <point x="166" y="364"/>
      <point x="56" y="324"/>
      <point x="56" y="201" type="curve"/>
      <point x="56" y="62"/>
      <point x="175" y="-5"/>
      <point x="326" y="-5" type="curve"/>
      <point x="529" y="-5"/>
      <point x="655" y="119"/>
      <point x="728" y="312" type="curve"/>
      <point x="598" y="340"/>
      <point x="728" y="312"/>
      <point x="598" y="340" type="curve"/>
      <point x="547" y="205"/>
      <point x="473" y="107"/>
      <point x="333" y="107" type="curve"/>
      <point x="261" y="107"/>
      <point x="206" y="134"/>
      <point x="206" y="201" type="curve"/>
      <point x="206" y="276"/>
      <point x="272" y="297"/>
      <point x="341" y="331" type="curve"/>
      <point x="451" y="386"/>
      <point x="556" y="430"/>
      <point x="557" y="551" type="curve"/>
      <point x="557" y="668"/>
      <point x="462" y="727"/>
      <point x="339" y="727" type="curve"/>
      <point x="217" y="727"/>
      <point x="127" y="664"/>
      <point x="127" y="549" type="curve"/>
      <point x="127" y="438"/>
      <point x="221" y="383"/>
      <point x="303" y="311" type="curve"/>
      <point x="407" y="213"/>
      <point x="552" y="76"/>
      <point x="652" y="-16" type="curve"/>
    </contour>
  </outline>
</glyph>
<glyph name="quotesingle" format="1">
  <advance width="272"/>
  <unicode hex="0027"/>
  <outline>
    <contour>
      <point x="206" y="618" type="line"/>
      <point x="216" y="845" type="line"/>
      <point x="56" y="845" type="line"/>
      <point x="66" y="618" type="line"/>
    </contour>
  </outline>
</glyph>
<glyph name="parenleft" format="1">
  <advance width="417"/>
  <unicode hex="0028"/>
  <outline>
    <contour>
      <point x="414" y="-204" type="curve"/>
      <point x="256" y="-50"/>
      <point x="189" y="103"/>
      <point x="189" y="326" type="curve"/>
      <point x="189" y="549"/>
      <point x="256" y="703"/>
      <point x="413" y="860" type="curve"/>
      <point x="325" y="931"/>
      <point x="413" y="860"/>
      <point x="325" y="931" type="curve"/>
      <point x="139" y="753"/>
      <point x="42" y="586"/>
      <point x="42" y="326" type="curve"/>
      <point x="42" y="65"/>
      <point x="140" y="-102"/>
      <point x="326" y="-282" type="curve"/>
      <point x="414" y="-204"/>
      <point x="326" y="-282"/>
    </contour>
  </outline>
</glyph>
<glyph name="parenright" format="1">
  <advance width="422"/>
  <unicode hex="0029"/>
  <outline>
    <contour>
      <point x="83" y="-295" type="curve"/>
      <point x="272" y="-108"/>
      <point x="381" y="60"/>
      <point x="381" y="329" type="curve"/>
      <point x="381" y="592"/>
      <point x="279" y="758"/>
      <point x="87" y="934" type="curve"/>
      <point x="-1" y="856"/>
      <point x="87" y="934"/>
      <point x="-1" y="856" type="curve"/>
      <point x="161" y="701"/>
      <point x="234" y="549"/>
      <point x="234" y="324" type="curve"/>
      <point x="234" y="94"/>
      <point x="152" y="-58"/>
      <point x="-5" y="-224" type="curve"/>
      <point x="83" y="-295"/>
      <point x="-5" y="-224"/>
    </contour>
  </outline>
</glyph>
<glyph name="asterisk" format="1">
  <advance width="563"/>
  <unicode hex="002A"/>
  <outline>
    <contour>
      <point x="330" y="578" type="line"/>
      <point x="337" y="805" type="line"/>
      <point x="225" y="805" type="line"/>
      <point x="232" y="578" type="line"/>
    </contour>
    <contour>
      <point x="299" y="530" type="line"/>
      <point x="515" y="601" type="line"/>
      <point x="476" y="707" type="line"/>
      <point x="266" y="623" type="line"/>
    </contour>
    <contour>
      <point x="244" y="544" type="line"/>
      <point x="385" y="365" type="line"/>
      <point x="470" y="438" type="line"/>
      <point x="320" y="607" type="line"/>
    </contour>
    <contour>
      <point x="243" y="607" type="line"/>
      <point x="92" y="438" type="line"/>
      <point x="178" y="366" type="line"/>
      <point x="318" y="544" type="line"/>
    </contour>
    <contour>
      <point x="297" y="623" type="line"/>
      <point x="86" y="707" type="line"/>
      <point x="48" y="602" type="line"/>
      <point x="263" y="531" type="line"/>
    </contour>
  </outline>
</glyph>
<glyph name="plus" format="1">
  <advance width="671"/>
  <unicode hex="002B"/>
  <outline>
    <contour>
      <point x="42" y="253" type="curve"/>
      <point x="629" y="253" type="line"/>
      <point x="629" y="375"/>
      <point x="629" y="253"/>
      <point x="629" y="375" type="curve"/>
      <point x="42" y="375" type="line"/>
      <point x="42" y="253"/>
      <point x="42" y="375"/>
    </contour>
    <contour>
      <point x="408" y="36" type="curve"/>
      <point x="408" y="583" type="line"/>
      <point x="258" y="583"/>
      <point x="418" y="583"/>
      <point x="268" y="583" type="curve"/>
      <point x="268" y="36" type="line"/>
      <point x="418" y="36"/>
      <point x="258" y="36"/>
    </contour>
  </outline>
</glyph>
<glyph name="comma" format="1">
  <advance width="324"/>
  <unicode hex="002C"/>
  <outline>
    <contour>
      <point x="66" y="-121" type="line"/>
      <point x="175" y="-120"/>
      <point x="250" y="-49"/>
      <point x="250" y="59" type="curve"/>
      <point x="250" y="142"/>
      <point x="211" y="198"/>
      <point x="153" y="198" type="curve"/>
      <point x="106" y="198"/>
      <point x="71" y="172"/>
      <point x="71" y="125" type="curve"/>
      <point x="71" y="80"/>
      <point x="103" y="52"/>
      <point x="151" y="52" type="curve"/>
      <point x="150" y="14"/>
      <point x="138" y="-31"/>
      <point x="65" y="-42" type="curve"/>
    </contour>
  </outline>
</glyph>
<glyph name="hyphen" format="1">
  <advance width="445"/>
  <unicode hex="002D"/>
  <outline>
    <contour>
      <point x="70" y="222" type="curve"/>
      <point x="171" y="222"/>
      <point x="273" y="222"/>
      <point x="374" y="222" type="curve"/>
      <point x="374" y="345"/>
      <point x="374" y="222"/>
      <point x="374" y="345" type="curve"/>
      <point x="273" y="345"/>
      <point x="171" y="345"/>
      <point x="70" y="345" type="curve"/>
      <point x="70" y="222"/>
      <point x="70" y="345"/>
    </contour>
  </outline>
</glyph>
<glyph name="period" format="1">
  <advance width="295"/>
  <unicode hex="002E"/>
  <outline>
    <contour>
      <point x="231" y="63" type="curve"/>
      <point x="231" y="112"/>
      <point x="195" y="136"/>
      <point x="146" y="136" type="curve"/>
      <point x="97" y="136"/>
      <point x="64" y="109"/>
      <point x="64" y="63" type="curve"/>
      <point x="231" y="63"/>
      <point x="64" y="63"/>
      <point x="231" y="63" type="curve"/>
      <point x="231" y="12"/>
      <point x="195" y="-9"/>
      <point x="146" y="-9" type="curve"/>
      <point x="96" y="-9"/>
      <point x="64" y="15"/>
      <point x="64" y="63" type="curve"/>
      <point x="231" y="63"/>
      <point x="64" y="63"/>
    </contour>
  </outline>
</glyph>
<glyph name="slash" format="1">
  <advance width="646"/>
  <unicode hex="002F"/>
  <outline>
    <contour>
      <point x="176" y="-12" type="curve"/>
      <point x="324" y="252"/>
      <point x="472" y="516"/>
      <point x="620" y="781" type="curve"/>
      <point x="470" y="781"/>
      <point x="620" y="781"/>
      <point x="470" y="781" type="curve"/>
      <point x="322" y="516"/>
      <point x="174" y="252"/>
      <point x="26" y="-12" type="curve"/>
      <point x="176" y="-12"/>
      <point x="26" y="-12"/>
    </contour>
  </outline>
</glyph>
<glyph name="zero" format="1">
  <advance width="815"/>
  <unicode hex="0030"/>
  <outline>
    <contour>
      <point x="205" y="360" type="curve"/>
      <point x="205" y="509"/>
      <point x="263" y="610"/>
      <point x="403" y="610" type="curve"/>
      <point x="544" y="610"/>
      <point x="610" y="512"/>
      <point x="610" y="363" type="curve"/>
      <point x="610" y="214"/>
      <point x="552" y="113"/>
      <point x="415" y="113" type="curve"/>
      <point x="272" y="113"/>
      <point x="205" y="210"/>
      <point x="205" y="360" type="curve"/>
      <point x="56" y="360"/>
      <point x="205" y="360"/>
      <point x="56" y="360" type="curve"/>
      <point x="56" y="134"/>
      <point x="184" y="-5"/>
      <point x="408" y="-5" type="curve"/>
      <point x="633" y="-5"/>
      <point x="759" y="134"/>
      <point x="759" y="363" type="curve"/>
      <point x="759" y="588"/>
      <point x="637" y="727"/>
      <point x="417" y="727" type="curve"/>
      <point x="188" y="727"/>
      <point x="56" y="589"/>
      <point x="56" y="360" type="curve"/>
      <point x="205" y="360"/>
      <point x="56" y="360"/>
    </contour>
  </outline>
</glyph>
<glyph name="one" format="1">
  <advance width="506"/>
  <unicode hex="0031"/>
  <outline>
    <contour>
      <point x="296" y="0" type="curve"/>
      <point x="351" y="0"/>
      <point x="407" y="0"/>
      <point x="463" y="0" type="curve"/>
      <point x="463" y="112"/>
      <point x="463" y="0"/>
      <point x="463" y="112" type="curve"/>
      <point x="296" y="112"/>
      <point x="463" y="112"/>
      <point x="296" y="112" type="curve"/>
      <point x="296" y="0"/>
      <point x="296" y="112"/>
    </contour>
    <contour>
      <point x="296" y="112" type="curve"/>
      <point x="129" y="112"/>
      <point x="296" y="112"/>
      <point x="129" y="112" type="curve"/>
      <point x="129" y="0"/>
      <point x="129" y="112"/>
      <point x="129" y="0" type="curve"/>
      <point x="185" y="0"/>
      <point x="240" y="0"/>
      <point x="296" y="0" type="curve"/>
      <point x="296" y="112"/>
      <point x="296" y="0"/>
    </contour>
    <contour>
      <point x="92" y="470" type="curve"/>
      <point x="329" y="647"/>
      <point x="92" y="470"/>
      <point x="329" y="647" type="curve"/>
      <point x="219" y="722"/>
      <point x="329" y="647"/>
      <point x="219" y="722" type="curve"/>
      <point x="19" y="568"/>
      <point x="219" y="722"/>
      <point x="19" y="568" type="curve"/>
      <point x="92" y="470"/>
      <point x="19" y="568"/>
    </contour>
    <contour>
      <point x="369" y="0" type="curve"/>
      <point x="369" y="241"/>
      <point x="369" y="481"/>
      <point x="369" y="722" type="curve"/>
      <point x="219" y="722"/>
      <point x="369" y="722"/>
      <point x="219" y="722" type="curve"/>
      <point x="219" y="481"/>
      <point x="219" y="241"/>
      <point x="219" y="0" type="curve"/>
      <point x="369" y="0"/>
      <point x="219" y="0"/>
    </contour>
  </outline>
</glyph>
<glyph name="two" format="1">
  <advance width="679"/>
  <unicode hex="0032"/>
  <outline>
    <contour>
      <point x="617" y="112" type="curve"/>
      <point x="617" y="221"/>
      <point x="617" y="105"/>
      <point x="617" y="213" type="curve"/>
      <point x="501" y="213"/>
      <point x="617" y="213"/>
      <point x="501" y="213" type="curve"/>
      <point x="501" y="105"/>
      <point x="501" y="221"/>
      <point x="501" y="112" type="curve"/>
      <point x="617" y="112"/>
      <point x="501" y="112"/>
    </contour>
    <contour>
      <point x="51" y="0" type="curve"/>
      <point x="276" y="0"/>
      <point x="465" y="0"/>
      <point x="617" y="0" type="curve"/>
      <point x="617" y="112"/>
      <point x="617" y="0"/>
      <point x="617" y="112" type="curve"/>
      <point x="440" y="112"/>
      <point x="229" y="112"/>
      <point x="51" y="112" type="curve"/>
      <point x="51" y="0"/>
      <point x="51" y="112"/>
    </contour>
    <contour>
      <point x="154" y="511" type="curve"/>
      <point x="207" y="573"/>
      <point x="246" y="610"/>
      <point x="316" y="610" type="curve"/>
      <point x="388" y="610"/>
      <point x="433" y="575"/>
      <point x="433" y="502" type="curve"/>
      <point x="433" y="406"/>
      <point x="362" y="350"/>
      <point x="279" y="287" type="curve"/>
      <point x="203" y="228"/>
      <point x="129" y="172"/>
      <point x="51" y="112" type="curve"/>
      <point x="51" y="0"/>
      <point x="51" y="112"/>
      <point x="51" y="0" type="curve"/>
      <point x="209" y="61"/>
      <point x="288" y="134"/>
      <point x="373" y="201" type="curve"/>
      <point x="489" y="288"/>
      <point x="571" y="362"/>
      <point x="571" y="508" type="curve"/>
      <point x="571" y="656"/>
      <point x="474" y="727"/>
      <point x="322" y="727" type="curve"/>
      <point x="202" y="727"/>
      <point x="113" y="676"/>
      <point x="54" y="576" type="curve"/>
      <point x="154" y="511"/>
      <point x="54" y="576"/>
    </contour>
  </outline>
</glyph>
<glyph name="three" format="1">
  <advance width="608"/>
  <unicode hex="0033"/>
  <outline>
    <contour>
      <point x="43" y="56" type="curve"/>
      <point x="98" y="20"/>
      <point x="169" y="-5"/>
      <point x="256" y="-5" type="curve"/>
      <point x="428" y="-5"/>
      <point x="552" y="53"/>
      <point x="552" y="218" type="curve"/>
      <point x="552" y="358"/>
      <point x="394" y="414"/>
      <point x="174" y="414" type="curve"/>
      <point x="174" y="320"/>
      <point x="174" y="414"/>
      <point x="174" y="320" type="curve"/>
      <point x="295" y="320"/>
      <point x="409" y="291"/>
      <point x="409" y="213" type="curve"/>
      <point x="409" y="131"/>
      <point x="338" y="112"/>
      <point x="261" y="112" type="curve"/>
      <point x="218" y="112"/>
      <point x="165" y="125"/>
      <point x="114" y="148" type="curve"/>
      <point x="43" y="56"/>
      <point x="114" y="148"/>
    </contour>
    <contour>
      <point x="125" y="558" type="curve"/>
      <point x="153" y="583"/>
      <point x="203" y="610"/>
      <point x="253" y="610" type="curve"/>
      <point x="324" y="610"/>
      <point x="375" y="591"/>
      <point x="375" y="523" type="curve"/>
      <point x="375" y="454"/>
      <point x="281" y="429"/>
      <point x="174" y="429" type="curve"/>
      <point x="174" y="334"/>
      <point x="174" y="429"/>
      <point x="174" y="334" type="curve"/>
      <point x="365" y="334"/>
      <point x="517" y="389"/>
      <point x="517" y="528" type="curve"/>
      <point x="517" y="668"/>
      <point x="411" y="727"/>
      <point x="265" y="727" type="curve"/>
      <point x="170" y="727"/>
      <point x="85" y="687"/>
      <point x="43" y="638" type="curve"/>
      <point x="125" y="558"/>
      <point x="43" y="638"/>
    </contour>
  </outline>
</glyph>
<glyph name="four" format="1">
  <advance width="661"/>
  <unicode hex="0034"/>
  <outline>
    <contour>
      <point x="417" y="112" type="line"/>
      <point x="276" y="112" type="line"/>
      <point x="276" y="0" type="line"/>
      <point x="417" y="0" type="line"/>
    </contour>
    <contour>
      <point x="417" y="0" type="line"/>
      <point x="558" y="0" type="line"/>
      <point x="558" y="112" type="line"/>
      <point x="417" y="112" type="line"/>
    </contour>
    <contour>
      <point x="90" y="241" type="line"/>
      <point x="462" y="667" type="line"/>
      <point x="343" y="696" type="line"/>
      <point x="34" y="349" type="line"/>
    </contour>
    <contour>
      <point x="623" y="349" type="line"/>
      <point x="34" y="349" type="line"/>
      <point x="35" y="225" type="line"/>
      <point x="623" y="225" type="line"/>
    </contour>
    <contour>
      <point x="493" y="48" type="line"/>
      <point x="493" y="696" type="line"/>
      <point x="345" y="696" type="line"/>
      <point x="345" y="48" type="line"/>
    </contour>
  </outline>
</glyph>
<glyph name="five" format="1">
  <advance width="606"/>
  <unicode hex="0035"/>
  <outline>
    <contour>
      <point x="75" y="722" type="curve"/>
      <point x="75" y="627"/>
      <point x="75" y="516"/>
      <point x="75" y="374" type="curve"/>
      <point x="217" y="336"/>
      <point x="75" y="374"/>
      <point x="217" y="336" type="curve"/>
      <point x="217" y="422"/>
      <point x="217" y="524"/>
      <point x="217" y="610" type="curve"/>
      <point x="75" y="722"/>
      <point x="217" y="610"/>
    </contour>
    <contour>
      <point x="217" y="336" type="curve"/>
      <point x="234" y="354"/>
      <point x="266" y="365"/>
      <point x="291" y="365" type="curve"/>
      <point x="368" y="365"/>
      <point x="407" y="321"/>
      <point x="407" y="243" type="curve"/>
      <point x="407" y="163"/>
      <point x="347" y="112"/>
      <point x="265" y="112" type="curve"/>
      <point x="212" y="112"/>
      <point x="170" y="120"/>
      <point x="117" y="144" type="curve"/>
      <point x="48" y="43"/>
      <point x="117" y="144"/>
      <point x="48" y="43" type="curve"/>
      <point x="118" y="10"/>
      <point x="180" y="-5"/>
      <point x="258" y="-5" type="curve"/>
      <point x="424" y="-5"/>
      <point x="556" y="85"/>
      <point x="556" y="242" type="curve"/>
      <point x="556" y="393"/>
      <point x="456" y="484"/>
      <point x="304" y="484" type="curve"/>
      <point x="227" y="484"/>
      <point x="141" y="459"/>
      <point x="75" y="374" type="curve"/>
      <point x="217" y="336"/>
      <point x="75" y="374"/>
    </contour>
    <contour>
      <point x="521" y="722" type="curve"/>
      <point x="369" y="722"/>
      <point x="213" y="722"/>
      <point x="75" y="722" type="curve"/>
      <point x="217" y="610"/>
      <point x="75" y="722"/>
      <point x="217" y="610" type="curve"/>
      <point x="308" y="610"/>
      <point x="416" y="610"/>
      <point x="521" y="610" type="curve"/>
      <point x="521" y="722"/>
      <point x="521" y="610"/>
    </contour>
  </outline>
</glyph>
<glyph name="six" format="1">
  <advance width="675"/>
  <unicode hex="0036"/>
  <outline>
    <contour>
      <point x="175" y="217" type="curve"/>
      <point x="210" y="295"/>
      <point x="267" y="334"/>
      <point x="354" y="334" type="curve"/>
      <point x="429" y="334"/>
      <point x="475" y="300"/>
      <point x="475" y="226" type="curve"/>
      <point x="475" y="154"/>
      <point x="426" y="121"/>
      <point x="354" y="121" type="curve"/>
      <point x="258" y="121"/>
      <point x="196" y="169"/>
      <point x="196" y="260" type="curve"/>
      <point x="196" y="475"/>
      <point x="367" y="559"/>
      <point x="591" y="618" type="curve"/>
      <point x="556" y="728"/>
      <point x="591" y="618"/>
      <point x="556" y="728" type="curve"/>
      <point x="286" y="663"/>
      <point x="53" y="539"/>
      <point x="53" y="254" type="curve"/>
      <point x="53" y="81"/>
      <point x="170" y="-12"/>
      <point x="349" y="-12" type="curve"/>
      <point x="514" y="-12"/>
      <point x="625" y="69"/>
      <point x="625" y="226" type="curve"/>
      <point x="625" y="377"/>
      <point x="521" y="452"/>
      <point x="371" y="452" type="curve"/>
      <point x="229" y="452"/>
      <point x="133" y="353"/>
      <point x="86" y="260" type="curve"/>
      <point x="175" y="217"/>
      <point x="86" y="260"/>
    </contour>
  </outline>
</glyph>
<glyph name="seven" format="1">
  <advance width="597"/>
  <unicode hex="0037"/>
  <outline>
    <contour>
      <point x="173" y="507" type="curve"/>
      <point x="173" y="610" type="curve"/>
      <point x="57" y="610" type="curve"/>
      <point x="57" y="507" type="curve"/>
    </contour>
    <contour>
      <point x="57" y="610" type="curve"/>
      <point x="575" y="610" type="curve"/>
      <point x="575" y="722" type="curve"/>
      <point x="57" y="722" type="curve"/>
    </contour>
    <contour>
      <point x="487" y="722" type="curve"/>
      <point x="70" y="0" type="curve"/>
      <point x="233" y="0" type="curve"/>
      <point x="575" y="610" type="curve"/>
    </contour>
  </outline>
</glyph>
<glyph name="eight" format="1">
  <advance width="668"/>
  <unicode hex="0038"/>
  <outline>
    <contour>
      <point x="79" y="536" type="curve"/>
      <point x="79" y="415"/>
      <point x="176" y="386"/>
      <point x="291" y="339" type="curve"/>
      <point x="381" y="301"/>
      <point x="459" y="283"/>
      <point x="459" y="195" type="curve"/>
      <point x="459" y="133"/>
      <point x="407" y="110"/>
      <point x="335" y="110" type="curve"/>
      <point x="261" y="110"/>
      <point x="209" y="132"/>
      <point x="209" y="195" type="curve"/>
      <point x="209" y="285"/>
      <point x="291" y="300"/>
      <point x="381" y="339" type="curve"/>
      <point x="493" y="389"/>
      <point x="589" y="416"/>
      <point x="589" y="534" type="curve"/>
      <point x="589" y="674"/>
      <point x="487" y="727"/>
      <point x="335" y="727" type="curve"/>
      <point x="185" y="727"/>
      <point x="79" y="672"/>
      <point x="79" y="536" type="curve"/>
      <point x="229" y="536"/>
      <point x="79" y="536"/>
      <point x="229" y="536" type="curve"/>
      <point x="229" y="588"/>
      <point x="269" y="612"/>
      <point x="329" y="612" type="curve"/>
      <point x="395" y="612"/>
      <point x="440" y="591"/>
      <point x="440" y="534" type="curve"/>
      <point x="440" y="458"/>
      <point x="366" y="448"/>
      <point x="289" y="416" type="curve"/>
      <point x="163" y="362"/>
      <point x="59" y="327"/>
      <point x="59" y="195" type="curve"/>
      <point x="59" y="50"/>
      <point x="170" y="-5"/>
      <point x="328" y="-5" type="curve"/>
      <point x="491" y="-5"/>
      <point x="609" y="47"/>
      <point x="609" y="195" type="curve"/>
      <point x="609" y="326"/>
      <point x="505" y="363"/>
      <point x="382" y="416" type="curve"/>
      <point x="303" y="451"/>
      <point x="229" y="460"/>
      <point x="229" y="536" type="curve"/>
      <point x="79" y="536"/>
      <point x="229" y="536"/>
    </contour>
  </outline>
</glyph>
<glyph name="nine" format="1">
  <advance width="677"/>
  <unicode hex="0039"/>
  <outline>
    <contour>
      <point x="506" y="488" type="curve"/>
      <point x="468" y="413"/>
      <point x="416" y="388"/>
      <point x="334" y="388" type="curve"/>
      <point x="253" y="388"/>
      <point x="198" y="424"/>
      <point x="198" y="502" type="curve"/>
      <point x="198" y="570"/>
      <point x="249" y="600"/>
      <point x="321" y="600" type="curve"/>
      <point x="418" y="600"/>
      <point x="480" y="555"/>
      <point x="480" y="462" type="curve"/>
      <point x="480" y="248"/>
      <point x="315" y="165"/>
      <point x="91" y="105" type="curve"/>
      <point x="134" y="-10"/>
      <point x="90" y="105"/>
      <point x="133" y="-10" type="curve"/>
      <point x="404" y="51"/>
      <point x="623" y="183"/>
      <point x="623" y="468" type="curve"/>
      <point x="623" y="641"/>
      <point x="505" y="734"/>
      <point x="327" y="734" type="curve"/>
      <point x="162" y="734"/>
      <point x="51" y="653"/>
      <point x="51" y="496" type="curve"/>
      <point x="51" y="345"/>
      <point x="161" y="270"/>
      <point x="320" y="270" type="curve"/>
      <point x="454" y="270"/>
      <point x="531" y="349"/>
      <point x="578" y="454" type="curve"/>
      <point x="506" y="488"/>
      <point x="578" y="454"/>
    </contour>
  </outline>
</glyph>
<glyph name="colon" format="1">
  <advance width="310"/>
  <unicode hex="003A"/>
  <outline>
    <contour>
      <point x="238" y="370" type="curve"/>
      <point x="238" y="420"/>
      <point x="203" y="443"/>
      <point x="154" y="443" type="curve"/>
      <point x="105" y="443"/>
      <point x="71" y="417"/>
      <point x="71" y="370" type="curve"/>
      <point x="238" y="370"/>
      <point x="72" y="370"/>
      <point x="238" y="370" type="curve"/>
      <point x="238" y="320"/>
      <point x="203" y="298"/>
      <point x="153" y="298" type="curve"/>
      <point x="104" y="298"/>
      <point x="71" y="323"/>
      <point x="71" y="370" type="curve"/>
      <point x="238" y="370"/>
      <point x="72" y="370"/>
    </contour>
    <contour>
      <point x="238" y="64" type="curve"/>
      <point x="238" y="114"/>
      <point x="202" y="137"/>
      <point x="153" y="137" type="curve"/>
      <point x="104" y="137"/>
      <point x="71" y="111"/>
      <point x="71" y="64" type="curve"/>
      <point x="238" y="64"/>
      <point x="71" y="64"/>
      <point x="238" y="64" type="curve"/>
      <point x="238" y="14"/>
      <point x="203" y="-8"/>
      <point x="153" y="-8" type="curve"/>
      <point x="104" y="-8"/>
      <point x="71" y="17"/>
      <point x="71" y="64" type="curve"/>
      <point x="238" y="64"/>
      <point x="71" y="64"/>
    </contour>
  </outline>
</glyph>
<glyph name="semicolon" format="1">
  <advance width="326"/>
  <unicode hex="003B"/>
  <outline>
    <contour>
      <point x="71" y="-191" type="line"/>
      <point x="184" y="-191"/>
      <point x="262" y="-118"/>
      <point x="262" y="-11" type="curve"/>
      <point x="262" y="73"/>
      <point x="222" y="128"/>
      <point x="162" y="128" type="curve"/>
      <point x="112" y="128"/>
      <point x="76" y="103"/>
      <point x="76" y="55" type="curve"/>
      <point x="76" y="10"/>
      <point x="109" y="-17"/>
      <point x="159" y="-17" type="curve"/>
      <point x="158" y="-55"/>
      <point x="147" y="-101"/>
      <point x="71" y="-112" type="curve"/>
    </contour>
    <contour>
      <point x="242" y="377" type="curve"/>
      <point x="242" y="426"/>
      <point x="206" y="450"/>
      <point x="158" y="450" type="curve"/>
      <point x="108" y="450"/>
      <point x="75" y="423"/>
      <point x="75" y="377" type="curve"/>
      <point x="242" y="377"/>
      <point x="75" y="377"/>
      <point x="242" y="377" type="curve"/>
      <point x="242" y="326"/>
      <point x="207" y="305"/>
      <point x="157" y="305" type="curve"/>
      <point x="107" y="305"/>
      <point x="75" y="329"/>
      <point x="75" y="377" type="curve"/>
      <point x="242" y="377"/>
      <point x="75" y="377"/>
    </contour>
  </outline>
</glyph>
<glyph name="less" format="1">
  <advance width="749"/>
  <unicode hex="003C"/>
  <outline>
    <contour>
      <point x="673" y="632" type="curve"/>
      <point x="462" y="542"/>
      <point x="250" y="452"/>
      <point x="39" y="362" type="curve"/>
      <point x="39" y="238"/>
      <point x="39" y="362"/>
      <point x="39" y="238" type="curve"/>
      <point x="250" y="328"/>
      <point x="462" y="418"/>
      <point x="673" y="508" type="curve"/>
      <point x="673" y="632"/>
      <point x="673" y="508"/>
    </contour>
    <contour>
      <point x="684" y="98" type="curve"/>
      <point x="469" y="186"/>
      <point x="254" y="274"/>
      <point x="39" y="362" type="curve"/>
      <point x="39" y="238"/>
      <point x="39" y="362"/>
      <point x="39" y="238" type="curve"/>
      <point x="254" y="150"/>
      <point x="469" y="62"/>
      <point x="684" y="-26" type="curve"/>
      <point x="684" y="98"/>
      <point x="684" y="-26"/>
    </contour>
  </outline>
</glyph>
<glyph name="equal" format="1">
  <advance width="808"/>
  <unicode hex="003D"/>
  <outline>
    <contour>
      <point x="76" y="158" type="curve"/>
      <point x="295" y="158"/>
      <point x="513" y="158"/>
      <point x="731" y="158" type="curve"/>
      <point x="731" y="277"/>
      <point x="731" y="158"/>
      <point x="731" y="277" type="curve"/>
      <point x="513" y="277"/>
      <point x="295" y="277"/>
      <point x="76" y="277" type="curve"/>
      <point x="76" y="158"/>
      <point x="76" y="277"/>
    </contour>
    <contour>
      <point x="76" y="380" type="curve"/>
      <point x="295" y="380"/>
      <point x="513" y="380"/>
      <point x="731" y="380" type="curve"/>
      <point x="731" y="499"/>
      <point x="731" y="380"/>
      <point x="731" y="499" type="curve"/>
      <point x="513" y="499"/>
      <point x="295" y="499"/>
      <point x="76" y="499" type="curve"/>
      <point x="76" y="380"/>
      <point x="76" y="499"/>
    </contour>
  </outline>
</glyph>
<glyph name="question" format="1">
  <advance width="584"/>
  <unicode hex="003F"/>
  <outline>
    <contour>
      <point x="193" y="381" type="curve"/>
      <point x="193" y="344"/>
      <point x="193" y="258"/>
      <point x="193" y="221" type="curve"/>
      <point x="337" y="221"/>
      <point x="193" y="221"/>
      <point x="337" y="221" type="curve"/>
      <point x="337" y="258"/>
      <point x="337" y="344"/>
      <point x="337" y="381" type="curve"/>
      <point x="193" y="381"/>
      <point x="337" y="381"/>
    </contour>
    <contour>
      <point x="112" y="570" type="line"/>
      <point x="149" y="608"/>
      <point x="199" y="636"/>
      <point x="260" y="636" type="curve"/>
      <point x="339" y="636"/>
      <point x="394" y="595"/>
      <point x="394" y="519" type="curve"/>
      <point x="394" y="430"/>
      <point x="317" y="381"/>
      <point x="209" y="381" type="curve"/>
      <point x="209" y="341"/>
      <point x="209" y="312"/>
      <point x="209" y="271" type="curve"/>
      <point x="398" y="271"/>
      <point x="536" y="358"/>
      <point x="536" y="519" type="curve"/>
      <point x="536" y="671"/>
      <point x="423" y="754"/>
      <point x="267" y="754" type="curve"/>
      <point x="171" y="754"/>
      <point x="98" y="723"/>
      <point x="35" y="659" type="curve"/>
    </contour>
    <contour>
      <point x="350" y="38" type="curve"/>
      <point x="350" y="87"/>
      <point x="314" y="111"/>
      <point x="266" y="111" type="curve"/>
      <point x="217" y="111"/>
      <point x="183" y="85"/>
      <point x="183" y="38" type="curve"/>
      <point x="350" y="38"/>
      <point x="183" y="38"/>
      <point x="350" y="38" type="curve"/>
      <point x="350" y="-12"/>
      <point x="315" y="-34"/>
      <point x="265" y="-34" type="curve"/>
      <point x="216" y="-34"/>
      <point x="183" y="-10"/>
      <point x="183" y="38" type="curve"/>
      <point x="350" y="38"/>
      <point x="183" y="38"/>
    </contour>
  </outline>
</glyph>
<glyph name="at" format="1">
  <advance width="935"/>
  <unicode hex="0040"/>
  <outline>
    <contour>
      <point x="625" y="0" type="curve"/>
      <point x="574" y="-20"/>
      <point x="537" y="-29"/>
      <point x="484" y="-29" type="curve"/>
      <point x="311" y="-29"/>
      <point x="189" y="49"/>
      <point x="189" y="214" type="curve"/>
      <point x="189" y="374"/>
      <point x="307" y="446"/>
      <point x="475" y="446" type="curve"/>
      <point x="634" y="446"/>
      <point x="745" y="368"/>
      <point x="745" y="214" type="curve"/>
      <point x="745" y="168"/>
      <point x="743" y="129"/>
      <point x="714" y="129" type="curve"/>
      <point x="683" y="129"/>
      <point x="675" y="168"/>
      <point x="675" y="219" type="curve"/>
      <point x="675" y="342"/>
      <point x="594" y="413"/>
      <point x="468" y="413" type="curve"/>
      <point x="329" y="413"/>
      <point x="246" y="347"/>
      <point x="246" y="214" type="curve"/>
      <point x="246" y="83"/>
      <point x="321" y="10"/>
      <point x="453" y="10" type="curve"/>
      <point x="569" y="10"/>
      <point x="632" y="80"/>
      <point x="654" y="198" type="curve"/>
      <point x="559" y="221"/>
      <point x="654" y="198"/>
      <point x="559" y="221" type="curve"/>
      <point x="543" y="164"/>
      <point x="527" y="122"/>
      <point x="471" y="122" type="curve"/>
      <point x="416" y="122"/>
      <point x="384" y="159"/>
      <point x="384" y="220" type="curve"/>
      <point x="384" y="271"/>
      <point x="409" y="301"/>
      <point x="457" y="301" type="curve"/>
      <point x="514" y="301"/>
      <point x="539" y="269"/>
      <point x="539" y="213" type="curve"/>
      <point x="539" y="99"/>
      <point x="592" y="22"/>
      <point x="702" y="22" type="curve"/>
      <point x="819" y="22"/>
      <point x="879" y="99"/>
      <point x="879" y="219" type="curve"/>
      <point x="879" y="448"/>
      <point x="718" y="563"/>
      <point x="480" y="563" type="curve"/>
      <point x="224" y="563"/>
      <point x="51" y="450"/>
      <point x="51" y="208" type="curve"/>
      <point x="51" y="-29"/>
      <point x="225" y="-142"/>
      <point x="477" y="-142" type="curve"/>
      <point x="559" y="-142"/>
      <point x="618" y="-125"/>
      <point x="677" y="-95" type="curve"/>
      <point x="625" y="0"/>
      <point x="677" y="-95"/>
    </contour>
  </outline>
</glyph>
<glyph name="B" format="1">
  <advance width="760"/>
  <unicode hex="0042"/>
  <outline>
    <contour>
      <point x="220" y="722" type="curve"/>
      <point x="170" y="722"/>
      <point x="121" y="722"/>
      <point x="71" y="722" type="curve"/>
      <point x="71" y="610"/>
      <point x="71" y="722"/>
      <point x="71" y="610" type="curve"/>
      <point x="220" y="610"/>
      <point x="71" y="610"/>
      <point x="220" y="610" type="curve"/>
      <point x="220" y="722"/>
      <point x="220" y="610"/>
    </contour>
    <contour>
      <point x="219" y="112" type="curve"/>
      <point x="70" y="112"/>
      <point x="219" y="112"/>
      <point x="70" y="112" type="curve"/>
      <point x="70" y="0"/>
      <point x="70" y="112"/>
      <point x="70" y="0" type="curve"/>
      <point x="120" y="0"/>
      <point x="170" y="0"/>
      <point x="219" y="0" type="curve"/>
      <point x="219" y="112"/>
      <point x="219" y="0"/>
    </contour>
    <contour>
      <point x="209" y="610" type="curve"/>
      <point x="282" y="610"/>
      <point x="347" y="610"/>
      <point x="420" y="610" type="curve"/>
      <point x="476" y="610"/>
      <point x="512" y="584"/>
      <point x="512" y="532" type="curve"/>
      <point x="512" y="480"/>
      <point x="466" y="460"/>
      <point x="410" y="460" type="curve"/>
      <point x="341" y="460"/>
      <point x="279" y="460"/>
      <point x="209" y="460" type="curve"/>
      <point x="209" y="379"/>
      <point x="209" y="428"/>
      <point x="209" y="347" type="curve"/>
      <point x="256" y="347"/>
      <point x="299" y="347"/>
      <point x="347" y="347" type="curve"/>
      <point x="474" y="347"/>
      <point x="661" y="383"/>
      <point x="661" y="529" type="curve"/>
      <point x="661" y="661"/>
      <point x="564" y="722"/>
      <point x="425" y="722" type="curve"/>
      <point x="350" y="722"/>
      <point x="284" y="722"/>
      <point x="209" y="722" type="curve"/>
      <point x="209" y="642"/>
      <point x="209" y="691"/>
    </contour>
    <contour>
      <point x="299" y="0" type="curve"/>
      <point x="299" y="241"/>
      <point x="299" y="481"/>
      <point x="299" y="722" type="curve"/>
      <point x="143" y="722"/>
      <point x="299" y="722"/>
      <point x="143" y="722" type="curve"/>
      <point x="143" y="481"/>
      <point x="143" y="241"/>
      <point x="143" y="0" type="curve"/>
      <point x="299" y="0"/>
      <point x="143" y="0"/>
    </contour>
    <contour>
      <point x="209" y="347" type="curve"/>
      <point x="279" y="347"/>
      <point x="341" y="347"/>
      <point x="410" y="347" type="curve"/>
      <point x="500" y="347"/>
      <point x="561" y="310"/>
      <point x="561" y="226" type="curve"/>
      <point x="561" y="148"/>
      <point x="506" y="112"/>
      <point x="421" y="112" type="curve"/>
      <point x="347" y="112"/>
      <point x="283" y="112"/>
      <point x="209" y="112" type="curve"/>
      <point x="209" y="31"/>
      <point x="209" y="80"/>
      <point x="209" y="0" type="curve"/>
      <point x="284" y="0"/>
      <point x="350" y="0"/>
      <point x="426" y="0" type="curve"/>
      <point x="594" y="0"/>
      <point x="711" y="69"/>
      <point x="711" y="225" type="curve"/>
      <point x="711" y="406"/>
      <point x="510" y="460"/>
      <point x="347" y="460" type="curve"/>
      <point x="299" y="460"/>
      <point x="256" y="460"/>
      <point x="209" y="460" type="curve"/>
      <point x="209" y="379"/>
      <point x="209" y="428"/>
    </contour>
  </outline>
</glyph>
<glyph name="D" format="1">
  <advance width="875"/>
  <unicode hex="0044"/>
  <outline>
    <contour>
      <point x="222" y="112" type="curve"/>
      <point x="71" y="112"/>
      <point x="222" y="112"/>
      <point x="71" y="112" type="curve"/>
      <point x="71" y="0"/>
      <point x="71" y="112"/>
      <point x="71" y="0" type="curve"/>
      <point x="121" y="0"/>
      <point x="172" y="0"/>
      <point x="222" y="0" type="curve"/>
      <point x="222" y="112"/>
      <point x="222" y="0"/>
    </contour>
    <contour>
      <point x="222" y="722" type="curve"/>
      <point x="172" y="722"/>
      <point x="121" y="722"/>
      <point x="71" y="722" type="curve"/>
      <point x="71" y="610"/>
      <point x="71" y="722"/>
      <point x="71" y="610" type="curve"/>
      <point x="222" y="610"/>
      <point x="71" y="610"/>
      <point x="222" y="610" type="curve"/>
      <point x="222" y="722"/>
      <point x="222" y="610"/>
    </contour>
    <contour>
      <point x="145" y="722" type="curve"/>
      <point x="145" y="481"/>
      <point x="145" y="241"/>
      <point x="145" y="0" type="curve"/>
      <point x="295" y="0"/>
      <point x="145" y="0"/>
      <point x="295" y="0" type="curve"/>
      <point x="295" y="241"/>
      <point x="295" y="481"/>
      <point x="295" y="722" type="curve"/>
      <point x="145" y="722"/>
      <point x="295" y="722"/>
    </contour>
    <contour>
      <point x="222" y="0" type="curve"/>
      <point x="289" y="0"/>
      <point x="357" y="0"/>
      <point x="425" y="0" type="curve"/>
      <point x="675" y="0"/>
      <point x="821" y="112"/>
      <point x="821" y="354" type="curve"/>
      <point x="821" y="603"/>
      <point x="675" y="722"/>
      <point x="419" y="722" type="curve"/>
      <point x="354" y="722"/>
      <point x="288" y="722"/>
      <point x="222" y="722" type="curve"/>
      <point x="222" y="610"/>
      <point x="222" y="722"/>
      <point x="222" y="610" type="curve"/>
      <point x="286" y="610"/>
      <point x="349" y="610"/>
      <point x="413" y="610" type="curve"/>
      <point x="585" y="610"/>
      <point x="672" y="521"/>
      <point x="672" y="350" type="curve"/>
      <point x="672" y="194"/>
      <point x="593" y="112"/>
      <point x="437" y="112" type="curve"/>
      <point x="365" y="112"/>
      <point x="294" y="112"/>
      <point x="222" y="112" type="curve"/>
      <point x="222" y="0"/>
      <point x="222" y="112"/>
    </contour>
    <contour>
      <point x="405" y="781" type="move" name="top"/>
    </contour>
  </outline>
</glyph>
<glyph name="F" format="1">
  <advance width="663"/>
  <unicode hex="0046"/>
  <outline>
    <contour>
      <point x="221" y="0" type="curve"/>
      <point x="271" y="0"/>
      <point x="221" y="0"/>
      <point x="372" y="0" type="curve"/>
      <point x="372" y="112"/>
      <point x="372" y="0"/>
      <point x="372" y="112" type="curve"/>
      <point x="221" y="112"/>
      <point x="372" y="112"/>
      <point x="221" y="112" type="curve"/>
      <point x="221" y="0"/>
      <point x="221" y="112"/>
    </contour>
    <contour>
      <point x="221" y="722" type="curve"/>
      <point x="171" y="722"/>
      <point x="120" y="722"/>
      <point x="69" y="722" type="curve"/>
      <point x="69" y="610"/>
      <point x="69" y="722"/>
      <point x="69" y="610" type="curve"/>
      <point x="221" y="610"/>
      <point x="69" y="610"/>
      <point x="221" y="610" type="curve"/>
      <point x="221" y="722"/>
      <point x="221" y="610"/>
    </contour>
    <contour>
      <point x="221" y="112" type="curve"/>
      <point x="69" y="112"/>
      <point x="221" y="112"/>
      <point x="69" y="112" type="curve"/>
      <point x="69" y="0"/>
      <point x="69" y="112"/>
      <point x="69" y="0" type="curve"/>
      <point x="120" y="0"/>
      <point x="171" y="0"/>
      <point x="221" y="0" type="curve"/>
      <point x="221" y="112"/>
      <point x="221" y="0"/>
    </contour>
    <contour>
      <point x="521" y="666" type="curve"/>
      <point x="521" y="546"/>
      <point x="521" y="666"/>
      <point x="521" y="546" type="curve"/>
      <point x="637" y="546"/>
      <point x="521" y="546"/>
      <point x="637" y="546" type="curve"/>
      <point x="637" y="666"/>
      <point x="637" y="546"/>
      <point x="637" y="666" type="curve"/>
      <point x="521" y="666"/>
      <point x="637" y="666"/>
    </contour>
    <contour>
      <point x="225" y="316" type="curve"/>
      <point x="337" y="316"/>
      <point x="449" y="316"/>
      <point x="560" y="316" type="curve"/>
      <point x="560" y="429"/>
      <point x="560" y="316"/>
      <point x="560" y="429" type="curve"/>
      <point x="449" y="429"/>
      <point x="337" y="429"/>
      <point x="225" y="429" type="curve"/>
      <point x="225" y="316"/>
      <point x="225" y="429"/>
    </contour>
    <contour>
      <point x="296" y="0" type="curve"/>
      <point x="296" y="722" type="line"/>
      <point x="146" y="722"/>
      <point x="296" y="722"/>
      <point x="146" y="722" type="curve"/>
      <point x="146" y="481"/>
      <point x="146" y="241"/>
      <point x="146" y="0" type="curve"/>
      <point x="296" y="0"/>
      <point x="146" y="0"/>
    </contour>
    <contour>
      <point x="209" y="610" type="curve"/>
      <point x="352" y="610"/>
      <point x="494" y="610"/>
      <point x="637" y="610" type="curve"/>
      <point x="637" y="722"/>
      <point x="637" y="610"/>
      <point x="637" y="722" type="curve"/>
      <point x="494" y="722"/>
      <point x="352" y="722"/>
      <point x="209" y="722" type="curve"/>
      <point x="209" y="610"/>
      <point x="209" y="722"/>
    </contour>
  </outline>
</glyph>
<glyph name="G" format="1">
  <advance width="862"/>
  <unicode hex="0047"/>
  <outline>
    <contour>
      <point x="662" y="645" type="curve"/>
      <point x="662" y="516"/>
      <point x="662" y="625"/>
      <point x="662" y="496" type="curve"/>
      <point x="778" y="496"/>
      <point x="662" y="496"/>
      <point x="778" y="496" type="curve"/>
      <point x="778" y="625"/>
      <point x="778" y="516"/>
      <point x="778" y="645" type="curve"/>
      <point x="662" y="645"/>
      <point x="778" y="645"/>
    </contour>
    <contour>
      <point x="756" y="371" type="curve"/>
      <point x="679" y="371"/>
      <point x="603" y="371"/>
      <point x="526" y="371" type="curve"/>
      <point x="526" y="259"/>
      <point x="526" y="371"/>
      <point x="526" y="259" type="curve"/>
      <point x="603" y="259"/>
      <point x="679" y="259"/>
      <point x="756" y="259" type="curve"/>
      <point x="756" y="371"/>
      <point x="756" y="259"/>
    </contour>
    <contour>
      <point x="796" y="79" type="curve"/>
      <point x="796" y="176"/>
      <point x="796" y="273"/>
      <point x="796" y="371" type="curve"/>
      <point x="659" y="371"/>
      <point x="796" y="371"/>
      <point x="659" y="371" type="curve"/>
      <point x="659" y="273"/>
      <point x="659" y="176"/>
      <point x="659" y="79" type="curve"/>
      <point x="796" y="79"/>
      <point x="659" y="79"/>
    </contour>
    <contour>
      <point x="778" y="645" type="curve"/>
      <point x="673" y="703"/>
      <point x="579" y="727"/>
      <point x="459" y="727" type="curve"/>
      <point x="212" y="727"/>
      <point x="54" y="602"/>
      <point x="54" y="360" type="curve"/>
      <point x="54" y="115"/>
      <point x="219" y="-5"/>
      <point x="470" y="-5" type="curve"/>
      <point x="599" y="-5"/>
      <point x="681" y="23"/>
      <point x="796" y="79" type="curve"/>
      <point x="721" y="163"/>
      <point x="796" y="79"/>
      <point x="721" y="163" type="curve"/>
      <point x="634" y="122"/>
      <point x="566" y="112"/>
      <point x="470" y="112" type="curve"/>
      <point x="302" y="112"/>
      <point x="204" y="203"/>
      <point x="204" y="371" type="curve"/>
      <point x="204" y="527"/>
      <point x="300" y="610"/>
      <point x="459" y="610" type="curve"/>
      <point x="550" y="610"/>
      <point x="622" y="593"/>
      <point x="703" y="550" type="curve"/>
      <point x="778" y="645"/>
      <point x="703" y="550"/>
    </contour>
    <contour>
      <point x="457" y="781" type="move" name="top"/>
    </contour>
    <contour>
      <point x="515" y="8" type="move" name="bottom"/>
    </contour>
  </outline>
</glyph>
<glyph name="H" format="1">
  <advance width="910"/>
  <unicode hex="0048"/>
  <outline>
    <contour>
      <point x="716" y="610" type="curve"/>
      <point x="883" y="610"/>
      <point x="701" y="610"/>
      <point x="868" y="610" type="curve"/>
      <point x="868" y="722"/>
      <point x="868" y="610"/>
      <point x="868" y="722" type="curve"/>
      <point x="812" y="722"/>
      <point x="772" y="722"/>
      <point x="716" y="722" type="curve"/>
      <point x="716" y="610"/>
      <point x="716" y="722"/>
    </contour>
    <contour>
      <point x="716" y="0" type="curve"/>
      <point x="772" y="0"/>
      <point x="812" y="0"/>
      <point x="868" y="0" type="curve"/>
      <point x="868" y="112"/>
      <point x="868" y="0"/>
      <point x="868" y="112" type="curve"/>
      <point x="701" y="112"/>
      <point x="883" y="112"/>
      <point x="716" y="112" type="curve"/>
      <point x="716" y="0"/>
      <point x="716" y="112"/>
    </contour>
    <contour>
      <point x="716" y="112" type="curve"/>
      <point x="550" y="112"/>
      <point x="732" y="112"/>
      <point x="565" y="112" type="curve"/>
      <point x="565" y="0"/>
      <point x="565" y="112"/>
      <point x="565" y="0" type="curve"/>
      <point x="621" y="0"/>
      <point x="660" y="0"/>
      <point x="716" y="0" type="curve"/>
      <point x="716" y="112"/>
      <point x="716" y="0"/>
    </contour>
    <contour>
      <point x="716" y="722" type="curve"/>
      <point x="660" y="722"/>
      <point x="621" y="722"/>
      <point x="565" y="722" type="curve"/>
      <point x="565" y="610"/>
      <point x="565" y="722"/>
      <point x="565" y="610" type="curve"/>
      <point x="732" y="610"/>
      <point x="550" y="610"/>
      <point x="716" y="610" type="curve"/>
      <point x="716" y="722"/>
      <point x="716" y="610"/>
    </contour>
    <contour>
      <point x="194" y="610" type="curve"/>
      <point x="361" y="610"/>
      <point x="178" y="610"/>
      <point x="345" y="610" type="curve"/>
      <point x="345" y="722"/>
      <point x="345" y="610"/>
      <point x="345" y="722" type="curve"/>
      <point x="290" y="722"/>
      <point x="250" y="722"/>
      <point x="194" y="722" type="curve"/>
      <point x="194" y="610"/>
      <point x="194" y="722"/>
    </contour>
    <contour>
      <point x="194" y="722" type="curve"/>
      <point x="139" y="722"/>
      <point x="99" y="722"/>
      <point x="43" y="722" type="curve"/>
      <point x="43" y="610"/>
      <point x="43" y="722"/>
      <point x="43" y="610" type="curve"/>
      <point x="209" y="610"/>
      <point x="27" y="610"/>
      <point x="194" y="610" type="curve"/>
      <point x="194" y="722"/>
      <point x="194" y="610"/>
    </contour>
    <contour>
      <point x="194" y="0" type="curve"/>
      <point x="250" y="0"/>
      <point x="178" y="0"/>
      <point x="345" y="0" type="curve"/>
      <point x="345" y="112"/>
      <point x="345" y="0"/>
      <point x="345" y="112" type="curve"/>
      <point x="178" y="112"/>
      <point x="361" y="112"/>
      <point x="194" y="112" type="curve"/>
      <point x="194" y="0"/>
      <point x="194" y="112"/>
    </contour>
    <contour>
      <point x="194" y="112" type="curve"/>
      <point x="27" y="112"/>
      <point x="209" y="112"/>
      <point x="43" y="112" type="curve"/>
      <point x="43" y="0"/>
      <point x="43" y="112"/>
      <point x="43" y="0" type="curve"/>
      <point x="99" y="0"/>
      <point x="139" y="0"/>
      <point x="194" y="0" type="curve"/>
      <point x="194" y="112"/>
      <point x="194" y="0"/>
    </contour>
    <contour>
      <point x="269" y="0" type="curve"/>
      <point x="269" y="722" type="line"/>
      <point x="119" y="722"/>
      <point x="269" y="722"/>
      <point x="119" y="722" type="curve"/>
      <point x="119" y="481"/>
      <point x="119" y="241"/>
      <point x="119" y="0" type="curve"/>
      <point x="269" y="0"/>
      <point x="119" y="0"/>
    </contour>
    <contour>
      <point x="713" y="419" type="curve"/>
      <point x="540" y="419"/>
      <point x="367" y="419"/>
      <point x="194" y="419" type="curve"/>
      <point x="194" y="306"/>
      <point x="194" y="419"/>
      <point x="194" y="306" type="curve"/>
      <point x="367" y="306"/>
      <point x="540" y="306"/>
      <point x="713" y="306" type="curve"/>
      <point x="713" y="419"/>
      <point x="713" y="306"/>
    </contour>
    <contour>
      <point x="790" y="48" type="curve"/>
      <point x="790" y="256"/>
      <point x="790" y="466"/>
      <point x="790" y="674" type="curve"/>
      <point x="641" y="674"/>
      <point x="790" y="674"/>
      <point x="641" y="674" type="curve"/>
      <point x="641" y="48" type="line"/>
      <point x="790" y="48"/>
      <point x="641" y="48"/>
    </contour>
  </outline>
</glyph>
<glyph name="J" format="1">
  <advance width="502"/>
  <unicode hex="004A"/>
  <outline>
    <contour>
      <point x="328" y="722" type="curve"/>
      <point x="274" y="722"/>
      <point x="234" y="722"/>
      <point x="179" y="722" type="curve"/>
      <point x="179" y="610"/>
      <point x="179" y="722"/>
      <point x="179" y="610" type="curve"/>
      <point x="344" y="610"/>
      <point x="163" y="610"/>
      <point x="328" y="610" type="curve"/>
      <point x="328" y="722"/>
      <point x="328" y="610"/>
    </contour>
    <contour>
      <point x="328" y="610" type="curve"/>
      <point x="493" y="610"/>
      <point x="312" y="610"/>
      <point x="477" y="610" type="curve"/>
      <point x="477" y="722"/>
      <point x="477" y="610"/>
      <point x="477" y="722" type="curve"/>
      <point x="423" y="722"/>
      <point x="383" y="722"/>
      <point x="328" y="722" type="curve"/>
      <point x="328" y="610"/>
      <point x="328" y="722"/>
    </contour>
    <contour>
      <point x="-4" y="45" type="curve"/>
      <point x="32" y="22"/>
      <point x="84" y="-4"/>
      <point x="147" y="-4" type="curve"/>
      <point x="308" y="-4"/>
      <point x="402" y="78"/>
      <point x="402" y="246" type="curve"/>
      <point x="402" y="403"/>
      <point x="402" y="564"/>
      <point x="402" y="722" type="curve"/>
      <point x="253" y="722"/>
      <point x="402" y="722"/>
      <point x="252" y="722" type="curve"/>
      <point x="252" y="564"/>
      <point x="252" y="403"/>
      <point x="252" y="246" type="curve"/>
      <point x="252" y="164"/>
      <point x="223" y="108"/>
      <point x="147" y="108" type="curve"/>
      <point x="113" y="108"/>
      <point x="92" y="120"/>
      <point x="64" y="134" type="curve"/>
      <point x="-4" y="45"/>
      <point x="64" y="134"/>
    </contour>
  </outline>
</glyph>
<glyph name="L" format="1">
  <advance width="652"/>
  <unicode hex="004C"/>
  <outline>
    <contour>
      <point x="633" y="56" type="curve"/>
      <point x="633" y="176"/>
      <point x="633" y="56"/>
      <point x="633" y="176" type="curve"/>
      <point x="518" y="176"/>
      <point x="633" y="176"/>
      <point x="518" y="176" type="curve"/>
      <point x="518" y="56"/>
      <point x="518" y="176"/>
      <point x="518" y="56" type="curve"/>
      <point x="633" y="56"/>
      <point x="518" y="56"/>
    </contour>
    <contour>
      <point x="194" y="112" type="curve"/>
      <point x="27" y="112"/>
      <point x="210" y="112"/>
      <point x="43" y="112" type="curve"/>
      <point x="43" y="0"/>
      <point x="43" y="112"/>
      <point x="43" y="0" type="curve"/>
      <point x="98" y="0"/>
      <point x="138" y="0"/>
      <point x="194" y="0" type="curve"/>
      <point x="194" y="112"/>
      <point x="194" y="0"/>
    </contour>
    <contour>
      <point x="194" y="722" type="curve"/>
      <point x="138" y="722"/>
      <point x="98" y="722"/>
      <point x="43" y="722" type="curve"/>
      <point x="43" y="610"/>
      <point x="43" y="722"/>
      <point x="43" y="610" type="curve"/>
      <point x="210" y="610"/>
      <point x="27" y="610"/>
      <point x="194" y="610" type="curve"/>
      <point x="194" y="722"/>
      <point x="194" y="610"/>
    </contour>
    <contour>
      <point x="194" y="610" type="curve"/>
      <point x="361" y="610"/>
      <point x="179" y="610"/>
      <point x="345" y="610" type="curve"/>
      <point x="345" y="722"/>
      <point x="345" y="610"/>
      <point x="345" y="722" type="curve"/>
      <point x="289" y="722"/>
      <point x="249" y="722"/>
      <point x="194" y="722" type="curve"/>
      <point x="194" y="610"/>
      <point x="194" y="722"/>
    </contour>
    <contour>
      <point x="270" y="0" type="curve"/>
      <point x="270" y="241"/>
      <point x="270" y="481"/>
      <point x="270" y="722" type="curve"/>
      <point x="120" y="722"/>
      <point x="270" y="722"/>
      <point x="120" y="722" type="curve"/>
      <point x="120" y="481"/>
      <point x="120" y="241"/>
      <point x="120" y="0" type="curve"/>
      <point x="270" y="0"/>
      <point x="120" y="0"/>
    </contour>
    <contour>
      <point x="194" y="0" type="curve"/>
      <point x="341" y="0"/>
      <point x="487" y="0"/>
      <point x="633" y="0" type="curve"/>
      <point x="633" y="112"/>
      <point x="633" y="0"/>
      <point x="633" y="112" type="curve"/>
      <point x="487" y="112"/>
      <point x="341" y="112"/>
      <point x="194" y="112" type="curve"/>
      <point x="194" y="0"/>
      <point x="194" y="112"/>
    </contour>
    <contour>
      <point x="194" y="781" type="move" name="top"/>
    </contour>
    <contour>
      <point x="388" y="5" type="move" name="bottom"/>
    </contour>
  </outline>
</glyph>
<glyph name="M" format="1">
  <advance width="1040"/>
  <unicode hex="004D"/>
  <outline>
    <contour>
      <point x="874" y="0" type="curve"/>
      <point x="928" y="0"/>
      <point x="967" y="0"/>
      <point x="1020" y="0" type="curve"/>
      <point x="1020" y="112"/>
      <point x="1020" y="0"/>
      <point x="1020" y="112" type="curve"/>
      <point x="858" y="112"/>
      <point x="1036" y="112"/>
      <point x="874" y="112" type="curve"/>
      <point x="874" y="0"/>
      <point x="874" y="112"/>
    </contour>
    <contour>
      <point x="874" y="112" type="curve"/>
      <point x="716" y="112"/>
      <point x="890" y="112"/>
      <point x="732" y="112" type="curve"/>
      <point x="732" y="0"/>
      <point x="732" y="112"/>
      <point x="732" y="0" type="curve"/>
      <point x="785" y="0"/>
      <point x="822" y="0"/>
      <point x="874" y="0" type="curve"/>
      <point x="874" y="112"/>
      <point x="874" y="0"/>
    </contour>
    <contour>
      <point x="168" y="112" type="curve"/>
      <point x="5" y="112"/>
      <point x="184" y="112"/>
      <point x="21" y="112" type="curve"/>
      <point x="21" y="0"/>
      <point x="21" y="112"/>
      <point x="21" y="0" type="curve"/>
      <point x="75" y="0"/>
      <point x="114" y="0"/>
      <point x="168" y="0" type="curve"/>
      <point x="168" y="112"/>
      <point x="168" y="0"/>
    </contour>
    <contour>
      <point x="224" y="722" type="curve"/>
      <point x="169" y="722"/>
      <point x="131" y="722"/>
      <point x="77" y="722" type="curve"/>
      <point x="77" y="610"/>
      <point x="77" y="722"/>
      <point x="77" y="610" type="curve"/>
      <point x="239" y="610"/>
      <point x="61" y="610"/>
      <point x="224" y="610" type="curve"/>
      <point x="224" y="722"/>
      <point x="224" y="610"/>
    </contour>
    <contour>
      <point x="816" y="610" type="curve"/>
      <point x="978" y="610"/>
      <point x="800" y="610"/>
      <point x="963" y="610" type="curve"/>
      <point x="963" y="722"/>
      <point x="963" y="610"/>
      <point x="963" y="722" type="curve"/>
      <point x="908" y="722"/>
      <point x="870" y="722"/>
      <point x="816" y="722" type="curve"/>
      <point x="816" y="610"/>
      <point x="816" y="722"/>
    </contour>
    <contour>
      <point x="168" y="0" type="curve"/>
      <point x="220" y="0"/>
      <point x="152" y="0"/>
      <point x="310" y="0" type="curve"/>
      <point x="310" y="112"/>
      <point x="310" y="0"/>
      <point x="310" y="112" type="curve"/>
      <point x="152" y="112"/>
      <point x="325" y="112"/>
      <point x="168" y="112" type="curve"/>
      <point x="168" y="0"/>
      <point x="168" y="112"/>
    </contour>
    <contour>
      <point x="958" y="0" type="curve"/>
      <point x="936" y="241"/>
      <point x="909" y="481"/>
      <point x="887" y="722" type="curve"/>
      <point x="751" y="722"/>
      <point x="887" y="722"/>
      <point x="751" y="722" type="curve"/>
      <point x="772" y="482"/>
      <point x="787" y="240"/>
      <point x="808" y="0" type="curve"/>
      <point x="958" y="0"/>
      <point x="808" y="0"/>
    </contour>
    <contour>
      <point x="231" y="0" type="curve"/>
      <point x="251" y="241"/>
      <point x="270" y="481"/>
      <point x="290" y="722" type="curve"/>
      <point x="152" y="722"/>
      <point x="290" y="722"/>
      <point x="152" y="722" type="curve"/>
      <point x="131" y="481"/>
      <point x="112" y="241"/>
      <point x="91" y="0" type="curve"/>
      <point x="231" y="0"/>
      <point x="91" y="0"/>
    </contour>
    <contour>
      <point x="586" y="0" type="curve"/>
      <point x="488" y="241"/>
      <point x="390" y="481"/>
      <point x="293" y="722" type="curve"/>
      <point x="154" y="722"/>
      <point x="292" y="722"/>
      <point x="154" y="722" type="curve"/>
      <point x="252" y="481"/>
      <point x="349" y="241"/>
      <point x="446" y="0" type="curve"/>
      <point x="586" y="0"/>
      <point x="446" y="0"/>
    </contour>
    <contour>
      <point x="595" y="0" type="curve"/>
      <point x="691" y="241"/>
      <point x="786" y="481"/>
      <point x="882" y="722" type="curve"/>
      <point x="744" y="722"/>
      <point x="882" y="722"/>
      <point x="744" y="722" type="curve"/>
      <point x="647" y="481"/>
      <point x="550" y="241"/>
      <point x="454" y="0" type="curve"/>
      <point x="595" y="0"/>
      <point x="454" y="0"/>
    </contour>
  </outline>
</glyph>
<glyph name="N" format="1">
  <advance width="937"/>
  <unicode hex="004E"/>
  <outline>
    <contour>
      <point x="193" y="722" type="curve"/>
      <point x="139" y="722"/>
      <point x="99" y="722"/>
      <point x="44" y="722" type="curve"/>
      <point x="44" y="610"/>
      <point x="44" y="722"/>
      <point x="44" y="610" type="curve"/>
      <point x="209" y="610"/>
      <point x="28" y="610"/>
      <point x="193" y="610" type="curve"/>
      <point x="193" y="722"/>
      <point x="193" y="610"/>
    </contour>
    <contour>
      <point x="751" y="610" type="curve"/>
      <point x="915" y="610"/>
      <point x="735" y="610"/>
      <point x="900" y="610" type="curve"/>
      <point x="900" y="722"/>
      <point x="900" y="610"/>
      <point x="900" y="722" type="curve"/>
      <point x="844" y="722"/>
      <point x="805" y="722"/>
      <point x="751" y="722" type="curve"/>
      <point x="751" y="610"/>
      <point x="751" y="722"/>
    </contour>
    <contour>
      <point x="761" y="722" type="curve"/>
      <point x="707" y="722"/>
      <point x="668" y="722"/>
      <point x="614" y="722" type="curve"/>
      <point x="614" y="610"/>
      <point x="614" y="722"/>
      <point x="614" y="610" type="curve"/>
      <point x="777" y="610"/>
      <point x="598" y="610"/>
      <point x="761" y="610" type="curve"/>
      <point x="761" y="722"/>
      <point x="761" y="610"/>
    </contour>
    <contour>
      <point x="192" y="112" type="curve"/>
      <point x="27" y="112"/>
      <point x="208" y="112"/>
      <point x="43" y="112" type="curve"/>
      <point x="43" y="0"/>
      <point x="43" y="112"/>
      <point x="43" y="0" type="curve"/>
      <point x="98" y="0"/>
      <point x="137" y="0"/>
      <point x="192" y="0" type="curve"/>
      <point x="192" y="112"/>
      <point x="192" y="0"/>
    </contour>
    <contour>
      <point x="192" y="0" type="curve"/>
      <point x="246" y="0"/>
      <point x="177" y="0"/>
      <point x="339" y="0" type="curve"/>
      <point x="339" y="112"/>
      <point x="339" y="0"/>
      <point x="339" y="112" type="curve"/>
      <point x="177" y="112"/>
      <point x="355" y="112"/>
      <point x="192" y="112" type="curve"/>
      <point x="192" y="0"/>
      <point x="192" y="112"/>
    </contour>
    <contour>
      <point x="832" y="0" type="curve"/>
      <point x="648" y="240"/>
      <point x="465" y="482"/>
      <point x="281" y="722" type="curve"/>
      <point x="110" y="722"/>
      <point x="281" y="722"/>
      <point x="110" y="722" type="curve"/>
      <point x="294" y="482"/>
      <point x="476" y="240"/>
      <point x="661" y="0" type="curve"/>
      <point x="832" y="0"/>
      <point x="661" y="0"/>
    </contour>
    <contour>
      <point x="685" y="722" type="curve"/>
      <point x="685" y="481"/>
      <point x="685" y="241"/>
      <point x="685" y="0" type="curve"/>
      <point x="835" y="0"/>
      <point x="685" y="0"/>
      <point x="835" y="0" type="curve"/>
      <point x="835" y="241"/>
      <point x="835" y="481"/>
      <point x="835" y="722" type="curve"/>
      <point x="685" y="722"/>
      <point x="835" y="722"/>
    </contour>
    <contour>
      <point x="267" y="0" type="curve"/>
      <point x="267" y="241"/>
      <point x="267" y="481"/>
      <point x="267" y="722" type="curve"/>
      <point x="118" y="722"/>
      <point x="267" y="722"/>
      <point x="118" y="722" type="curve"/>
      <point x="118" y="481"/>
      <point x="118" y="241"/>
      <point x="118" y="0" type="curve"/>
      <point x="267" y="0"/>
      <point x="118" y="0"/>
    </contour>
    <contour>
      <point x="470" y="781" type="move" name="top"/>
    </contour>
    <contour>
      <point x="497" y="1" type="move" name="bottom"/>
    </contour>
  </outline>
</glyph>
<glyph name="P" format="1">
  <advance width="708"/>
  <unicode hex="0050"/>
  <outline>
    <contour>
      <point x="221" y="722" type="curve"/>
      <point x="171" y="722"/>
      <point x="121" y="722"/>
      <point x="70" y="722" type="curve"/>
      <point x="70" y="610"/>
      <point x="70" y="722"/>
      <point x="70" y="610" type="curve"/>
      <point x="221" y="610"/>
      <point x="70" y="610"/>
      <point x="221" y="610" type="curve"/>
      <point x="221" y="722"/>
      <point x="221" y="610"/>
    </contour>
    <contour>
      <point x="221" y="112" type="curve"/>
      <point x="70" y="112"/>
      <point x="221" y="112"/>
      <point x="70" y="112" type="curve"/>
      <point x="70" y="0"/>
      <point x="70" y="112"/>
      <point x="70" y="0" type="curve"/>
      <point x="121" y="0"/>
      <point x="171" y="0"/>
      <point x="221" y="0" type="curve"/>
      <point x="221" y="112"/>
      <point x="221" y="0"/>
    </contour>
    <contour>
      <point x="221" y="0" type="curve"/>
      <point x="272" y="0"/>
      <point x="221" y="0"/>
      <point x="373" y="0" type="curve"/>
      <point x="373" y="112"/>
      <point x="373" y="0"/>
      <point x="373" y="112" type="curve"/>
      <point x="221" y="112"/>
      <point x="373" y="112"/>
      <point x="221" y="112" type="curve"/>
      <point x="221" y="0"/>
      <point x="221" y="112"/>
    </contour>
    <contour>
      <point x="199" y="293" type="curve"/>
      <point x="262" y="265"/>
      <point x="337" y="247"/>
      <point x="407" y="247" type="curve"/>
      <point x="567" y="250"/>
      <point x="673" y="322"/>
      <point x="673" y="479" type="curve"/>
      <point x="673" y="641"/>
      <point x="541" y="722"/>
      <point x="367" y="722" type="curve"/>
      <point x="319" y="722"/>
      <point x="272" y="722"/>
      <point x="225" y="722" type="curve"/>
      <point x="225" y="610"/>
      <point x="225" y="722"/>
      <point x="225" y="610" type="curve"/>
      <point x="265" y="610"/>
      <point x="306" y="610"/>
      <point x="346" y="610" type="curve"/>
      <point x="447" y="610"/>
      <point x="524" y="571"/>
      <point x="524" y="483" type="curve"/>
      <point x="524" y="400"/>
      <point x="469" y="357"/>
      <point x="390" y="357" type="curve"/>
      <point x="336" y="357"/>
      <point x="297" y="369"/>
      <point x="247" y="390" type="curve"/>
      <point x="200" y="294"/>
      <point x="247" y="390"/>
    </contour>
    <contour>
      <point x="295" y="0" type="curve"/>
      <point x="295" y="241"/>
      <point x="295" y="481"/>
      <point x="295" y="722" type="curve"/>
      <point x="146" y="722"/>
      <point x="295" y="722"/>
      <point x="146" y="722" type="curve"/>
      <point x="146" y="481"/>
      <point x="146" y="241"/>
      <point x="146" y="0" type="curve"/>
      <point x="295" y="0"/>
      <point x="146" y="0"/>
    </contour>
  </outline>
</glyph>
<glyph name="Q" format="1">
  <advance width="849"/>
  <unicode hex="0051"/>
  <outline>
    <contour>
      <point x="369" y="27" type="curve"/>
      <point x="492" y="-158"/>
      <point x="630" y="-211"/>
      <point x="841" y="-211" type="curve"/>
      <point x="841" y="-93"/>
      <point x="841" y="-211"/>
      <point x="841" y="-93" type="curve"/>
      <point x="688" y="-93"/>
      <point x="591" y="-53"/>
      <point x="498" y="83" type="curve"/>
      <point x="369" y="27"/>
      <point x="498" y="83"/>
    </contour>
    <contour>
      <point x="202" y="360" type="curve"/>
      <point x="202" y="507"/>
      <point x="281" y="605"/>
      <point x="422" y="605" type="curve"/>
      <point x="567" y="605"/>
      <point x="647" y="510"/>
      <point x="647" y="360" type="curve"/>
      <point x="647" y="212"/>
      <point x="571" y="112"/>
      <point x="430" y="112" type="curve"/>
      <point x="283" y="112"/>
      <point x="202" y="209"/>
      <point x="202" y="360" type="curve"/>
      <point x="53" y="360"/>
      <point x="202" y="360"/>
      <point x="53" y="360" type="curve"/>
      <point x="53" y="133"/>
      <point x="198" y="-5"/>
      <point x="423" y="-5" type="curve"/>
      <point x="651" y="-5"/>
      <point x="796" y="136"/>
      <point x="796" y="366" type="curve"/>
      <point x="796" y="592"/>
      <point x="656" y="732"/>
      <point x="431" y="732" type="curve"/>
      <point x="201" y="732"/>
      <point x="53" y="590"/>
      <point x="53" y="360" type="curve"/>
      <point x="202" y="360"/>
      <point x="53" y="360"/>
    </contour>
  </outline>
</glyph>
<glyph name="R" format="1">
  <advance width="802"/>
  <unicode hex="0052"/>
  <outline>
    <contour>
      <point x="651" y="0" type="curve"/>
      <point x="696" y="0"/>
      <point x="742" y="0"/>
      <point x="787" y="0" type="curve"/>
      <point x="787" y="112"/>
      <point x="787" y="0"/>
      <point x="787" y="112" type="curve"/>
      <point x="651" y="112"/>
      <point x="788" y="112"/>
      <point x="651" y="112" type="curve"/>
      <point x="651" y="0"/>
      <point x="651" y="112"/>
    </contour>
    <contour>
      <point x="219" y="722" type="curve"/>
      <point x="169" y="722"/>
      <point x="118" y="722"/>
      <point x="69" y="722" type="curve"/>
      <point x="69" y="610"/>
      <point x="69" y="722"/>
      <point x="69" y="610" type="curve"/>
      <point x="220" y="610"/>
      <point x="69" y="610"/>
      <point x="219" y="610" type="curve"/>
      <point x="219" y="722"/>
      <point x="219" y="610"/>
    </contour>
    <contour>
      <point x="219" y="112" type="curve"/>
      <point x="69" y="112"/>
      <point x="220" y="112"/>
      <point x="69" y="112" type="curve"/>
      <point x="69" y="0"/>
      <point x="69" y="112"/>
      <point x="69" y="0" type="curve"/>
      <point x="118" y="0"/>
      <point x="169" y="0"/>
      <point x="219" y="0" type="curve"/>
      <point x="219" y="112"/>
      <point x="219" y="0"/>
    </contour>
    <contour>
      <point x="219" y="0" type="curve"/>
      <point x="269" y="0"/>
      <point x="219" y="0"/>
      <point x="368" y="0" type="curve"/>
      <point x="368" y="112"/>
      <point x="368" y="0"/>
      <point x="368" y="112" type="curve"/>
      <point x="219" y="112"/>
      <point x="368" y="112"/>
      <point x="219" y="112" type="curve"/>
      <point x="219" y="0"/>
      <point x="219" y="112"/>
    </contour>
    <contour>
      <point x="350" y="354" type="curve"/>
      <point x="438" y="237"/>
      <point x="529" y="117"/>
      <point x="616" y="0" type="curve"/>
      <point x="769" y="0"/>
      <point x="616" y="18"/>
      <point x="769" y="18" type="curve"/>
      <point x="687" y="129"/>
      <point x="603" y="243"/>
      <point x="521" y="354" type="curve"/>
      <point x="350" y="354"/>
      <point x="521" y="354"/>
    </contour>
    <contour>
      <point x="295" y="0" type="curve"/>
      <point x="295" y="241"/>
      <point x="295" y="481"/>
      <point x="295" y="722" type="curve"/>
      <point x="145" y="722"/>
      <point x="295" y="722"/>
      <point x="145" y="722" type="curve"/>
      <point x="145" y="481"/>
      <point x="145" y="241"/>
      <point x="145" y="0" type="curve"/>
      <point x="295" y="0"/>
      <point x="145" y="0"/>
    </contour>
    <contour>
      <point x="222" y="296" type="curve"/>
      <point x="282" y="296"/>
      <point x="341" y="296"/>
      <point x="401" y="296" type="curve"/>
      <point x="570" y="296"/>
      <point x="690" y="359"/>
      <point x="690" y="519" type="curve"/>
      <point x="690" y="665"/>
      <point x="577" y="722"/>
      <point x="419" y="722" type="curve"/>
      <point x="354" y="722"/>
      <point x="288" y="722"/>
      <point x="222" y="722" type="curve"/>
      <point x="222" y="610"/>
      <point x="222" y="722"/>
      <point x="222" y="610" type="curve"/>
      <point x="279" y="610"/>
      <point x="335" y="610"/>
      <point x="392" y="610" type="curve"/>
      <point x="478" y="610"/>
      <point x="540" y="586"/>
      <point x="540" y="508" type="curve"/>
      <point x="540" y="435"/>
      <point x="487" y="409"/>
      <point x="409" y="409" type="curve"/>
      <point x="347" y="409"/>
      <point x="284" y="409"/>
      <point x="222" y="409" type="curve"/>
      <point x="222" y="296"/>
      <point x="222" y="409"/>
    </contour>
    <contour>
      <point x="370" y="781" type="move" name="top"/>
    </contour>
    <contour>
      <point x="475" y="0" type="move" name="bottom"/>
    </contour>
  </outline>
</glyph>
<glyph name="T" format="1">
  <advance width="694"/>
  <unicode hex="0054"/>
  <outline>
    <contour>
      <point x="24" y="665" type="curve"/>
      <point x="24" y="545"/>
      <point x="24" y="665"/>
      <point x="24" y="545" type="curve"/>
      <point x="139" y="545"/>
      <point x="24" y="545"/>
      <point x="139" y="545" type="curve"/>
      <point x="139" y="665"/>
      <point x="139" y="545"/>
      <point x="139" y="665" type="curve"/>
      <point x="24" y="665"/>
      <point x="139" y="665"/>
    </contour>
    <contour>
      <point x="554" y="665" type="curve"/>
      <point x="554" y="545"/>
      <point x="554" y="665"/>
      <point x="554" y="545" type="curve"/>
      <point x="670" y="545"/>
      <point x="554" y="545"/>
      <point x="670" y="545" type="curve"/>
      <point x="670" y="665"/>
      <point x="670" y="545"/>
      <point x="670" y="665" type="curve"/>
      <point x="554" y="665"/>
      <point x="670" y="665"/>
    </contour>
    <contour>
      <point x="346" y="0" type="curve"/>
      <point x="396" y="0"/>
      <point x="447" y="0"/>
      <point x="497" y="0" type="curve"/>
      <point x="497" y="112"/>
      <point x="497" y="0"/>
      <point x="497" y="112" type="curve"/>
      <point x="346" y="112"/>
      <point x="497" y="112"/>
      <point x="346" y="112" type="curve"/>
      <point x="346" y="0"/>
      <point x="346" y="112"/>
    </contour>
    <contour>
      <point x="346" y="112" type="curve"/>
      <point x="195" y="112"/>
      <point x="346" y="112"/>
      <point x="195" y="112" type="curve"/>
      <point x="195" y="0"/>
      <point x="195" y="112"/>
      <point x="195" y="0" type="curve"/>
      <point x="245" y="0"/>
      <point x="295" y="0"/>
      <point x="346" y="0" type="curve"/>
      <point x="346" y="112"/>
      <point x="346" y="0"/>
    </contour>
    <contour>
      <point x="422" y="0" type="curve"/>
      <point x="422" y="237"/>
      <point x="422" y="473"/>
      <point x="422" y="710" type="curve"/>
      <point x="272" y="710"/>
      <point x="422" y="710"/>
      <point x="272" y="710" type="curve"/>
      <point x="272" y="473"/>
      <point x="272" y="237"/>
      <point x="272" y="0" type="curve"/>
      <point x="422" y="0"/>
      <point x="272" y="0"/>
    </contour>
    <contour>
      <point x="24" y="603" type="curve"/>
      <point x="239" y="603"/>
      <point x="454" y="603"/>
      <point x="670" y="603" type="curve"/>
      <point x="670" y="727"/>
      <point x="670" y="598"/>
      <point x="670" y="722" type="curve"/>
      <point x="454" y="722"/>
      <point x="239" y="722"/>
      <point x="24" y="722" type="curve"/>
      <point x="24" y="598"/>
      <point x="24" y="727"/>
    </contour>
    <contour>
      <point x="344" y="781" type="move" name="top"/>
    </contour>
    <contour>
      <point x="397" y="3" type="move" name="bottom"/>
    </contour>
  </outline>
</glyph>
<glyph name="V" format="1">
  <advance width="826"/>
  <unicode hex="0056"/>
  <outline>
    <contour>
      <point x="674" y="722" type="curve"/>
      <point x="620" y="722"/>
      <point x="567" y="722"/>
      <point x="513" y="722" type="curve"/>
      <point x="513" y="610"/>
      <point x="513" y="722"/>
      <point x="513" y="610" type="curve"/>
      <point x="674" y="610"/>
      <point x="513" y="610"/>
      <point x="674" y="610" type="curve"/>
      <point x="674" y="722"/>
      <point x="674" y="610"/>
    </contour>
    <contour>
      <point x="135" y="722" type="curve"/>
      <point x="91" y="722"/>
      <point x="47" y="722"/>
      <point x="3" y="722" type="curve"/>
      <point x="3" y="610"/>
      <point x="3" y="722"/>
      <point x="3" y="610" type="curve"/>
      <point x="135" y="610"/>
      <point x="3" y="610"/>
      <point x="135" y="610" type="curve"/>
      <point x="135" y="722"/>
      <point x="135" y="610"/>
    </contour>
    <contour>
      <point x="689" y="610" type="curve"/>
      <point x="821" y="610"/>
      <point x="689" y="610"/>
      <point x="821" y="610" type="curve"/>
      <point x="821" y="722"/>
      <point x="821" y="610"/>
      <point x="821" y="722" type="curve"/>
      <point x="777" y="722"/>
      <point x="733" y="722"/>
      <point x="689" y="722" type="curve"/>
      <point x="689" y="610"/>
      <point x="689" y="722"/>
    </contour>
    <contour>
      <point x="150" y="610" type="curve"/>
      <point x="311" y="610"/>
      <point x="150" y="610"/>
      <point x="311" y="610" type="curve"/>
      <point x="311" y="722"/>
      <point x="311" y="610"/>
      <point x="311" y="722" type="curve"/>
      <point x="258" y="722"/>
      <point x="204" y="722"/>
      <point x="150" y="722" type="curve"/>
      <point x="150" y="610"/>
      <point x="150" y="722"/>
    </contour>
    <contour>
      <point x="631" y="722" type="curve"/>
      <point x="536" y="481"/>
      <point x="442" y="241"/>
      <point x="349" y="0" type="curve"/>
      <point x="501" y="0"/>
      <point x="342" y="0"/>
      <point x="494" y="0" type="curve"/>
      <point x="590" y="241"/>
      <point x="686" y="481"/>
      <point x="783" y="722" type="curve"/>
      <point x="631" y="722"/>
      <point x="783" y="722"/>
    </contour>
    <contour>
      <point x="41" y="722" type="curve"/>
      <point x="139" y="481"/>
      <point x="237" y="241"/>
      <point x="335" y="0" type="curve"/>
      <point x="487" y="0"/>
      <point x="329" y="0"/>
      <point x="481" y="0" type="curve"/>
      <point x="386" y="241"/>
      <point x="291" y="481"/>
      <point x="194" y="722" type="curve"/>
      <point x="41" y="722"/>
      <point x="194" y="722"/>
    </contour>
  </outline>
</glyph>
<glyph name="W" format="1">
  <advance width="1050"/>
  <unicode hex="0057"/>
  <outline>
    <contour>
      <point x="159" y="610" type="curve"/>
      <point x="291" y="610"/>
      <point x="159" y="610"/>
      <point x="291" y="610" type="curve"/>
      <point x="291" y="722"/>
      <point x="291" y="610"/>
      <point x="291" y="722" type="curve"/>
      <point x="247" y="722"/>
      <point x="203" y="722"/>
      <point x="159" y="722" type="curve"/>
      <point x="159" y="610"/>
      <point x="159" y="722"/>
    </contour>
    <contour>
      <point x="154" y="722" type="curve"/>
      <point x="107" y="722"/>
      <point x="59" y="722"/>
      <point x="12" y="722" type="curve"/>
      <point x="12" y="610"/>
      <point x="12" y="722"/>
      <point x="12" y="610" type="curve"/>
      <point x="154" y="610"/>
      <point x="12" y="610"/>
      <point x="154" y="610" type="curve"/>
      <point x="154" y="722"/>
      <point x="154" y="610"/>
    </contour>
    <contour>
      <point x="897" y="722" type="curve"/>
      <point x="853" y="722"/>
      <point x="809" y="722"/>
      <point x="766" y="722" type="curve"/>
      <point x="766" y="610"/>
      <point x="766" y="722"/>
      <point x="766" y="610" type="curve"/>
      <point x="897" y="610"/>
      <point x="766" y="610"/>
      <point x="897" y="610" type="curve"/>
      <point x="897" y="722"/>
      <point x="897" y="610"/>
    </contour>
    <contour>
      <point x="900" y="610" type="curve"/>
      <point x="1042" y="610"/>
      <point x="900" y="610"/>
      <point x="1042" y="610" type="curve"/>
      <point x="1042" y="722"/>
      <point x="1042" y="610"/>
      <point x="1042" y="722" type="curve"/>
      <point x="995" y="722"/>
      <point x="947" y="722"/>
      <point x="900" y="722" type="curve"/>
      <point x="900" y="610"/>
      <point x="900" y="722"/>
    </contour>
    <contour>
      <point x="390" y="0" type="curve"/>
      <point x="460" y="241"/>
      <point x="527" y="481"/>
      <point x="596" y="722" type="curve"/>
      <point x="457" y="722"/>
      <point x="599" y="722"/>
      <point x="460" y="722" type="curve"/>
      <point x="396" y="481"/>
      <point x="333" y="242"/>
      <point x="268" y="0" type="curve"/>
      <point x="402" y="0"/>
      <point x="256" y="0"/>
    </contour>
    <contour>
      <point x="472" y="722" type="curve"/>
      <point x="535" y="481"/>
      <point x="593" y="241"/>
      <point x="656" y="0" type="curve"/>
      <point x="790" y="0"/>
      <point x="641" y="0"/>
      <point x="776" y="0" type="curve"/>
      <point x="719" y="243"/>
      <point x="665" y="480"/>
      <point x="606" y="722" type="curve"/>
      <point x="468" y="722"/>
      <point x="611" y="722"/>
    </contour>
    <contour>
      <point x="60" y="722" type="curve"/>
      <point x="123" y="481"/>
      <point x="187" y="241"/>
      <point x="249" y="0" type="curve"/>
      <point x="384" y="0"/>
      <point x="245" y="0"/>
      <point x="379" y="0" type="curve"/>
      <point x="318" y="241"/>
      <point x="261" y="481"/>
      <point x="201" y="722" type="curve"/>
      <point x="60" y="722"/>
      <point x="201" y="722"/>
    </contour>
    <contour>
      <point x="853" y="722" type="curve"/>
      <point x="791" y="481"/>
      <point x="731" y="241"/>
      <point x="669" y="0" type="curve"/>
      <point x="804" y="0"/>
      <point x="662" y="0"/>
      <point x="796" y="0" type="curve"/>
      <point x="862" y="241"/>
      <point x="928" y="481"/>
      <point x="994" y="722" type="curve"/>
      <point x="853" y="722"/>
      <point x="994" y="722"/>
    </contour>
  </outline>
</glyph>
<glyph name="X" format="1">
  <advance width="771"/>
  <unicode hex="0058"/>
  <outline>
    <contour>
      <point x="174" y="0" type="curve"/>
      <point x="228" y="0"/>
      <point x="173" y="0"/>
      <point x="336" y="0" type="curve"/>
      <point x="336" y="112"/>
      <point x="336" y="0"/>
      <point x="336" y="112" type="curve"/>
      <point x="173" y="112"/>
      <point x="336" y="112"/>
      <point x="174" y="112" type="curve"/>
      <point x="174" y="0"/>
      <point x="174" y="112"/>
    </contour>
    <contour>
      <point x="164" y="112" type="curve"/>
      <point x="17" y="112"/>
      <point x="164" y="112"/>
      <point x="17" y="112" type="curve"/>
      <point x="17" y="0"/>
      <point x="17" y="112"/>
      <point x="17" y="0" type="curve"/>
      <point x="66" y="0"/>
      <point x="116" y="0"/>
      <point x="164" y="0" type="curve"/>
      <point x="164" y="112"/>
      <point x="164" y="0"/>
    </contour>
    <contour>
      <point x="603" y="0" type="curve"/>
      <point x="652" y="0"/>
      <point x="702" y="0"/>
      <point x="750" y="0" type="curve"/>
      <point x="750" y="112"/>
      <point x="750" y="0"/>
      <point x="750" y="112" type="curve"/>
      <point x="603" y="112"/>
      <point x="750" y="112"/>
      <point x="603" y="112" type="curve"/>
      <point x="603" y="0"/>
      <point x="603" y="112"/>
    </contour>
    <contour>
      <point x="594" y="112" type="curve"/>
      <point x="432" y="112"/>
      <point x="594" y="112"/>
      <point x="432" y="112" type="curve"/>
      <point x="432" y="0"/>
      <point x="432" y="112"/>
      <point x="432" y="0" type="curve"/>
      <point x="486" y="0"/>
      <point x="540" y="0"/>
      <point x="594" y="0" type="curve"/>
      <point x="594" y="112"/>
      <point x="594" y="0"/>
    </contour>
    <contour>
      <point x="577" y="610" type="curve"/>
      <point x="725" y="610"/>
      <point x="577" y="610"/>
      <point x="725" y="610" type="curve"/>
      <point x="725" y="722"/>
      <point x="725" y="610"/>
      <point x="725" y="722" type="curve"/>
      <point x="675" y="722"/>
      <point x="626" y="722"/>
      <point x="577" y="722" type="curve"/>
      <point x="577" y="610"/>
      <point x="577" y="722"/>
    </contour>
    <contour>
      <point x="584" y="722" type="curve"/>
      <point x="529" y="722"/>
      <point x="473" y="722"/>
      <point x="417" y="722" type="curve"/>
      <point x="417" y="610"/>
      <point x="417" y="722"/>
      <point x="417" y="610" type="curve"/>
      <point x="584" y="610"/>
      <point x="417" y="610"/>
      <point x="584" y="610" type="curve"/>
      <point x="584" y="722"/>
      <point x="584" y="610"/>
    </contour>
    <contour>
      <point x="198" y="722" type="curve"/>
      <point x="150" y="722"/>
      <point x="100" y="722"/>
      <point x="51" y="722" type="curve"/>
      <point x="51" y="610"/>
      <point x="51" y="722"/>
      <point x="51" y="610" type="curve"/>
      <point x="198" y="610"/>
      <point x="51" y="610"/>
      <point x="198" y="610" type="curve"/>
      <point x="198" y="722"/>
      <point x="198" y="610"/>
    </contour>
    <contour>
      <point x="191" y="610" type="curve"/>
      <point x="359" y="610"/>
      <point x="191" y="610"/>
      <point x="358" y="610" type="curve"/>
      <point x="358" y="722"/>
      <point x="358" y="610"/>
      <point x="358" y="722" type="curve"/>
      <point x="303" y="722"/>
      <point x="247" y="722"/>
      <point x="191" y="722" type="curve"/>
      <point x="191" y="610"/>
      <point x="191" y="722"/>
    </contour>
    <contour>
      <point x="556" y="722" type="curve"/>
      <point x="390" y="489"/>
      <point x="221" y="259"/>
      <point x="55" y="26" type="curve"/>
      <point x="202" y="26"/>
      <point x="55" y="0"/>
      <point x="202" y="0" type="curve"/>
      <point x="367" y="233"/>
      <point x="530" y="467"/>
      <point x="695" y="700" type="curve"/>
      <point x="556" y="700"/>
      <point x="695" y="722"/>
    </contour>
    <contour>
      <point x="82" y="699" type="curve"/>
      <point x="246" y="466"/>
      <point x="407" y="233"/>
      <point x="570" y="0" type="curve"/>
      <point x="718" y="0"/>
      <point x="570" y="18"/>
      <point x="718" y="18" type="curve"/>
      <point x="551" y="253"/>
      <point x="385" y="487"/>
      <point x="218" y="722" type="curve"/>
      <point x="82" y="722"/>
      <point x="218" y="699"/>
    </contour>
  </outline>
</glyph>
<glyph name="Y" format="1">
  <advance width="688"/>
  <unicode hex="0059"/>
  <outline>
    <contour>
      <point x="341" y="112" type="curve"/>
      <point x="189" y="112"/>
      <point x="341" y="112"/>
      <point x="189" y="112" type="curve"/>
      <point x="189" y="0"/>
      <point x="189" y="112"/>
      <point x="189" y="0" type="curve"/>
      <point x="240" y="0"/>
      <point x="290" y="0"/>
      <point x="341" y="0" type="curve"/>
      <point x="341" y="112"/>
      <point x="341" y="0"/>
    </contour>
    <contour>
      <point x="341" y="0" type="curve"/>
      <point x="391" y="0"/>
      <point x="441" y="0"/>
      <point x="492" y="0" type="curve"/>
      <point x="492" y="112"/>
      <point x="492" y="0"/>
      <point x="492" y="112" type="curve"/>
      <point x="341" y="112"/>
      <point x="492" y="112"/>
      <point x="341" y="112" type="curve"/>
      <point x="341" y="0"/>
      <point x="341" y="112"/>
    </contour>
    <contour>
      <point x="544" y="722" type="curve"/>
      <point x="495" y="722"/>
      <point x="447" y="722"/>
      <point x="398" y="722" type="curve"/>
      <point x="398" y="610"/>
      <point x="398" y="722"/>
      <point x="398" y="610" type="curve"/>
      <point x="544" y="610"/>
      <point x="398" y="610"/>
      <point x="544" y="610" type="curve"/>
      <point x="544" y="722"/>
      <point x="544" y="610"/>
    </contour>
    <contour>
      <point x="140" y="722" type="curve"/>
      <point x="99" y="722"/>
      <point x="57" y="722"/>
      <point x="16" y="722" type="curve"/>
      <point x="16" y="610"/>
      <point x="16" y="722"/>
      <point x="16" y="610" type="curve"/>
      <point x="140" y="610"/>
      <point x="16" y="610"/>
      <point x="140" y="610" type="curve"/>
      <point x="140" y="722"/>
      <point x="140" y="610"/>
    </contour>
    <contour>
      <point x="149" y="610" type="curve"/>
      <point x="296" y="610"/>
      <point x="149" y="610"/>
      <point x="296" y="610" type="curve"/>
      <point x="296" y="722"/>
      <point x="296" y="610"/>
      <point x="296" y="722" type="curve"/>
      <point x="247" y="722"/>
      <point x="198" y="722"/>
      <point x="149" y="722" type="curve"/>
      <point x="149" y="610"/>
      <point x="149" y="722"/>
    </contour>
    <contour>
      <point x="554" y="610" type="curve"/>
      <point x="681" y="610"/>
      <point x="553" y="610"/>
      <point x="681" y="610" type="curve"/>
      <point x="681" y="722"/>
      <point x="681" y="610"/>
      <point x="681" y="722" type="curve"/>
      <point x="638" y="722"/>
      <point x="596" y="722"/>
      <point x="554" y="722" type="curve"/>
      <point x="554" y="610"/>
      <point x="554" y="722"/>
    </contour>
    <contour>
      <point x="37" y="700" type="curve"/>
      <point x="113" y="579"/>
      <point x="187" y="460"/>
      <point x="262" y="337" type="curve"/>
      <point x="414" y="337"/>
      <point x="252" y="337"/>
      <point x="404" y="337" type="curve"/>
      <point x="326" y="467"/>
      <point x="251" y="593"/>
      <point x="172" y="722" type="curve"/>
      <point x="37" y="722"/>
      <point x="172" y="700"/>
    </contour>
    <contour>
      <point x="523" y="722" type="curve"/>
      <point x="439" y="592"/>
      <point x="358" y="467"/>
      <point x="273" y="337" type="curve"/>
      <point x="424" y="337"/>
      <point x="267" y="337"/>
      <point x="419" y="337" type="curve"/>
      <point x="499" y="460"/>
      <point x="577" y="580"/>
      <point x="658" y="702" type="curve"/>
      <point x="523" y="702"/>
      <point x="658" y="722"/>
    </contour>
    <contour>
      <point x="422" y="0" type="curve"/>
      <point x="422" y="115"/>
      <point x="422" y="227"/>
      <point x="422" y="342" type="curve"/>
      <point x="259" y="342"/>
      <point x="422" y="342"/>
      <point x="259" y="342" type="curve"/>
      <point x="259" y="227"/>
      <point x="259" y="115"/>
      <point x="259" y="0" type="curve"/>
      <point x="422" y="0"/>
      <point x="259" y="0"/>
    </contour>
    <contour>
      <point x="346" y="781" type="move" name="top"/>
    </contour>
  </outline>
</glyph>
<glyph name="bracketleft" format="1">
  <advance width="353"/>
  <unicode hex="005B"/>
  <outline>
    <contour>
      <point x="303" y="769" type="curve"/>
      <point x="250" y="769"/>
      <point x="197" y="769"/>
      <point x="144" y="769" type="curve"/>
      <point x="126" y="769"/>
      <point x="93" y="769"/>
      <point x="76" y="769" type="curve"/>
      <point x="76" y="753"/>
      <point x="76" y="730"/>
      <point x="76" y="713" type="curve"/>
      <point x="76" y="456"/>
      <point x="76" y="199"/>
      <point x="76" y="-58" type="curve"/>
      <point x="76" y="-75"/>
      <point x="76" y="-93"/>
      <point x="76" y="-113" type="curve"/>
      <point x="92" y="-113"/>
      <point x="124" y="-113"/>
      <point x="143" y="-113" type="curve"/>
      <point x="196" y="-113"/>
      <point x="250" y="-113"/>
      <point x="303" y="-113" type="curve"/>
      <point x="303" y="11"/>
      <point x="303" y="-113"/>
      <point x="303" y="11" type="curve"/>
      <point x="250" y="11"/>
      <point x="196" y="11"/>
      <point x="143" y="11" type="curve"/>
      <point x="226" y="11"/>
      <point x="143" y="11"/>
      <point x="226" y="11" type="curve"/>
      <point x="226" y="-58"/>
      <point x="226" y="11"/>
      <point x="226" y="-58" type="curve"/>
      <point x="226" y="199"/>
      <point x="226" y="456"/>
      <point x="226" y="713" type="curve"/>
      <point x="226" y="646"/>
      <point x="226" y="713"/>
      <point x="226" y="646" type="curve"/>
      <point x="144" y="646"/>
      <point x="226" y="646"/>
      <point x="144" y="646" type="curve"/>
      <point x="197" y="646"/>
      <point x="250" y="646"/>
      <point x="303" y="646" type="curve"/>
      <point x="303" y="769"/>
      <point x="303" y="646"/>
    </contour>
  </outline>
</glyph>
<glyph name="backslash" format="1">
  <advance width="620"/>
  <unicode hex="005C"/>
  <outline>
    <contour>
      <point x="592" y="-68" type="curve"/>
      <point x="456" y="236"/>
      <point x="320" y="540"/>
      <point x="184" y="844" type="curve"/>
      <point x="27" y="844"/>
      <point x="184" y="844"/>
      <point x="27" y="844" type="curve"/>
      <point x="164" y="540"/>
      <point x="300" y="236"/>
      <point x="436" y="-68" type="curve"/>
      <point x="592" y="-68"/>
      <point x="436" y="-68"/>
    </contour>
  </outline>
</glyph>
<glyph name="bracketright" format="1">
  <advance width="353"/>
  <unicode hex="005D"/>
  <outline>
    <contour>
      <point x="50" y="646" type="curve"/>
      <point x="103" y="646"/>
      <point x="156" y="646"/>
      <point x="209" y="646" type="curve"/>
      <point x="195" y="657"/>
      <point x="176" y="661"/>
      <point x="162" y="672" type="curve"/>
      <point x="149" y="684"/>
      <point x="140" y="701"/>
      <point x="127" y="713" type="curve"/>
      <point x="127" y="456"/>
      <point x="127" y="199"/>
      <point x="127" y="-58" type="curve"/>
      <point x="140" y="-45"/>
      <point x="152" y="-30"/>
      <point x="166" y="-19" type="curve"/>
      <point x="180" y="-7"/>
      <point x="197" y="-1"/>
      <point x="210" y="11" type="curve"/>
      <point x="157" y="11"/>
      <point x="103" y="11"/>
      <point x="50" y="11" type="curve"/>
      <point x="50" y="-113"/>
      <point x="50" y="11"/>
      <point x="50" y="-113" type="curve"/>
      <point x="103" y="-113"/>
      <point x="157" y="-113"/>
      <point x="210" y="-113" type="curve"/>
      <point x="277" y="-113"/>
      <point x="210" y="-113"/>
      <point x="277" y="-113" type="curve"/>
      <point x="277" y="-58"/>
      <point x="277" y="-113"/>
      <point x="277" y="-58" type="curve"/>
      <point x="277" y="199"/>
      <point x="277" y="456"/>
      <point x="277" y="713" type="curve"/>
      <point x="277" y="769"/>
      <point x="277" y="713"/>
      <point x="277" y="769" type="curve"/>
      <point x="209" y="769"/>
      <point x="277" y="769"/>
      <point x="209" y="769" type="curve"/>
      <point x="156" y="769"/>
      <point x="103" y="769"/>
      <point x="50" y="769" type="curve"/>
      <point x="50" y="646"/>
      <point x="50" y="769"/>
    </contour>
  </outline>
</glyph>
<glyph name="asciicircum" format="1">
  <advance width="608"/>
  <unicode hex="005E"/>
  <outline>
    <contour>
      <point x="196" y="453" type="curve"/>
      <point x="256" y="553"/>
      <point x="317" y="653"/>
      <point x="378" y="753" type="curve"/>
      <point x="228" y="753"/>
      <point x="378" y="753"/>
      <point x="228" y="753" type="curve"/>
      <point x="167" y="653"/>
      <point x="107" y="553"/>
      <point x="47" y="453" type="curve"/>
      <point x="196" y="453"/>
      <point x="47" y="453"/>
    </contour>
    <contour>
      <point x="561" y="453" type="curve"/>
      <point x="501" y="552"/>
      <point x="438" y="653"/>
      <point x="378" y="753" type="curve"/>
      <point x="228" y="753"/>
      <point x="378" y="753"/>
      <point x="228" y="753" type="curve"/>
      <point x="288" y="653"/>
      <point x="351" y="552"/>
      <point x="411" y="453" type="curve"/>
      <point x="561" y="453"/>
      <point x="411" y="453"/>
    </contour>
  </outline>
</glyph>
<glyph name="underscore" format="1">
  <advance width="710"/>
  <unicode hex="005F"/>
  <outline>
    <contour>
      <point x="0" y="-183" type="curve"/>
      <point x="237" y="-183"/>
      <point x="474" y="-183"/>
      <point x="710" y="-183" type="curve"/>
      <point x="710" y="-70"/>
      <point x="710" y="-183"/>
      <point x="710" y="-70" type="curve"/>
      <point x="474" y="-70"/>
      <point x="237" y="-70"/>
      <point x="0" y="-70" type="curve"/>
      <point x="0" y="-183"/>
      <point x="0" y="-70"/>
    </contour>
  </outline>
</glyph>
<glyph name="grave" format="1">
  <advance width="390"/>
  <unicode hex="0060"/>
  <outline>
    <contour>
      <point x="367" y="560" type="line"/>
      <point x="249" y="726" type="line"/>
      <point x="59" y="726" type="line"/>
      <point x="220" y="560" type="line"/>
    </contour>
    <contour>
      <point x="286" y="560" type="move" name="_top"/>
    </contour>
  </outline>
</glyph>
<glyph name="d" format="1">
  <advance width="733"/>
  <unicode hex="0064"/>
  <outline>
    <contour>
      <point x="545" y="800" type="curve"/>
      <point x="494" y="800"/>
      <point x="445" y="800"/>
      <point x="395" y="800" type="curve"/>
      <point x="395" y="688"/>
      <point x="395" y="800"/>
      <point x="395" y="688" type="curve"/>
      <point x="546" y="688"/>
      <point x="394" y="688"/>
      <point x="546" y="688" type="curve"/>
      <point x="546" y="799"/>
      <point x="545" y="689"/>
    </contour>
    <contour>
      <point x="547" y="0" type="curve"/>
      <point x="597" y="0"/>
      <point x="647" y="0"/>
      <point x="698" y="0" type="curve"/>
      <point x="698" y="112"/>
      <point x="698" y="0"/>
      <point x="698" y="112" type="curve"/>
      <point x="546" y="111"/>
      <point x="698" y="112"/>
      <point x="547" y="111" type="curve"/>
      <point x="547" y="-1"/>
      <point x="547" y="112"/>
    </contour>
    <contour>
      <point x="564" y="421" type="curve"/>
      <point x="499" y="495"/>
      <point x="407" y="536"/>
      <point x="310" y="536" type="curve"/>
      <point x="146" y="536"/>
      <point x="44" y="435"/>
      <point x="44" y="262" type="curve"/>
      <point x="44" y="91"/>
      <point x="148" y="-3"/>
      <point x="309" y="-3" type="curve"/>
      <point x="425" y="-3"/>
      <point x="508" y="49"/>
      <point x="566" y="138" type="curve"/>
      <point x="504" y="206"/>
      <point x="561" y="138"/>
      <point x="499" y="206" type="curve"/>
      <point x="455" y="142"/>
      <point x="404" y="109"/>
      <point x="333" y="109" type="curve"/>
      <point x="246" y="109"/>
      <point x="193" y="168"/>
      <point x="193" y="268" type="curve"/>
      <point x="193" y="367"/>
      <point x="250" y="424"/>
      <point x="338" y="424" type="curve"/>
      <point x="402" y="424"/>
      <point x="466" y="390"/>
      <point x="505" y="341" type="curve"/>
      <point x="568" y="416"/>
      <point x="501" y="347"/>
    </contour>
    <contour>
      <point x="624" y="0" type="curve"/>
      <point x="624" y="267"/>
      <point x="624" y="533"/>
      <point x="624" y="800" type="curve"/>
      <point x="468" y="800"/>
      <point x="624" y="800"/>
      <point x="468" y="800" type="curve"/>
      <point x="468" y="533"/>
      <point x="468" y="267"/>
      <point x="468" y="0" type="curve"/>
      <point x="624" y="0"/>
      <point x="468" y="0"/>
    </contour>
  </outline>
</glyph>
<glyph name="f" format="1">
  <advance width="519"/>
  <unicode hex="0066"/>
  <outline>
    <contour>
      <point x="377" y="767" type="curve"/>
      <point x="377" y="636"/>
      <point x="377" y="767"/>
      <point x="377" y="636" type="curve"/>
      <point x="493" y="636"/>
      <point x="377" y="636"/>
      <point x="493" y="636" type="curve"/>
      <point x="493" y="767"/>
      <point x="493" y="636"/>
      <point x="493" y="767" type="curve"/>
      <point x="377" y="767"/>
      <point x="493" y="767"/>
    </contour>
    <contour>
      <point x="209" y="-1" type="curve"/>
      <point x="264" y="-1"/>
      <point x="303" y="0"/>
      <point x="359" y="0" type="curve"/>
      <point x="359" y="112"/>
      <point x="359" y="0"/>
      <point x="359" y="112" type="curve"/>
      <point x="193" y="111"/>
      <point x="375" y="112"/>
      <point x="209" y="111" type="curve"/>
      <point x="209" y="-1"/>
      <point x="209" y="111"/>
    </contour>
    <contour>
      <point x="209" y="111" type="curve"/>
      <point x="42" y="112"/>
      <point x="224" y="111"/>
      <point x="58" y="112" type="curve"/>
      <point x="58" y="0"/>
      <point x="58" y="112"/>
      <point x="58" y="0" type="curve"/>
      <point x="113" y="0"/>
      <point x="154" y="-1"/>
      <point x="209" y="-1" type="curve"/>
      <point x="209" y="111"/>
      <point x="209" y="-1"/>
    </contour>
    <contour>
      <point x="27" y="421" type="curve"/>
      <point x="449" y="421" type="line"/>
      <point x="449" y="533"/>
      <point x="449" y="421"/>
      <point x="449" y="533" type="curve"/>
      <point x="27" y="533" type="line"/>
      <point x="27" y="421"/>
      <point x="27" y="533"/>
    </contour>
    <contour>
      <point x="284" y="0" type="curve"/>
      <point x="284" y="604" type="line"/>
      <point x="283" y="657"/>
      <point x="304" y="695"/>
      <point x="356" y="695" type="curve"/>
      <point x="382" y="695"/>
      <point x="408" y="687"/>
      <point x="432" y="677" type="curve"/>
      <point x="493" y="767"/>
      <point x="432" y="677"/>
      <point x="493" y="767" type="curve"/>
      <point x="450" y="787"/>
      <point x="403" y="802"/>
      <point x="356" y="802" type="curve"/>
      <point x="223" y="802"/>
      <point x="132" y="731"/>
      <point x="134" y="604" type="curve"/>
      <point x="134" y="0" type="line"/>
      <point x="284" y="0"/>
      <point x="134" y="0"/>
    </contour>
  </outline>
</glyph>
<glyph name="g" format="1">
  <advance width="625"/>
  <unicode hex="0067"/>
  <outline>
    <contour>
      <point x="439" y="433" type="curve"/>
      <point x="610" y="501" type="line"/>
      <point x="552" y="610" type="line"/>
      <point x="362" y="516" type="line"/>
      <point x="438" y="433"/>
      <point x="363" y="517"/>
    </contour>
    <contour>
      <point x="216" y="336" type="curve"/>
      <point x="216" y="395"/>
      <point x="262" y="426"/>
      <point x="324" y="426" type="curve"/>
      <point x="387" y="426"/>
      <point x="428" y="393"/>
      <point x="428" y="335" type="curve"/>
      <point x="428" y="280"/>
      <point x="386" y="252"/>
      <point x="326" y="252" type="curve"/>
      <point x="265" y="252"/>
      <point x="216" y="278"/>
      <point x="216" y="336" type="curve"/>
      <point x="66" y="331"/>
      <point x="216" y="336"/>
      <point x="66" y="331" type="curve"/>
      <point x="66" y="203"/>
      <point x="177" y="140"/>
      <point x="316" y="140" type="curve"/>
      <point x="462" y="140"/>
      <point x="578" y="205"/>
      <point x="578" y="339" type="curve"/>
      <point x="578" y="471"/>
      <point x="467" y="538"/>
      <point x="324" y="538" type="curve"/>
      <point x="178" y="538"/>
      <point x="66" y="467"/>
      <point x="66" y="331" type="curve"/>
      <point x="216" y="336"/>
      <point x="66" y="331"/>
    </contour>
    <contour>
      <point x="185" y="247" type="curve"/>
      <point x="121" y="218"/>
      <point x="70" y="182"/>
      <point x="70" y="113" type="curve"/>
      <point x="70" y="2"/>
      <point x="182" y="-24"/>
      <point x="305" y="-34" type="curve"/>
      <point x="394" y="-40"/>
      <point x="487" y="-43"/>
      <point x="487" y="-117" type="curve"/>
      <point x="487" y="-180"/>
      <point x="409" y="-193"/>
      <point x="327" y="-193" type="curve"/>
      <point x="250" y="-193"/>
      <point x="181" y="-172"/>
      <point x="181" y="-102" type="curve"/>
      <point x="181" y="-46"/>
      <point x="210" y="-12"/>
      <point x="255" y="4" type="curve"/>
      <point x="180" y="71"/>
      <point x="255" y="4"/>
      <point x="180" y="71" type="curve"/>
      <point x="95" y="41"/>
      <point x="31" y="-11"/>
      <point x="31" y="-107" type="curve"/>
      <point x="31" y="-253"/>
      <point x="164" y="-304"/>
      <point x="320" y="-304" type="curve"/>
      <point x="484" y="-304"/>
      <point x="627" y="-259"/>
      <point x="623" y="-107" type="curve"/>
      <point x="623" y="38"/>
      <point x="484" y="63"/>
      <point x="333" y="73" type="curve"/>
      <point x="277" y="76"/>
      <point x="220" y="83"/>
      <point x="220" y="124" type="curve"/>
      <point x="220" y="150"/>
      <point x="235" y="165"/>
      <point x="257" y="177" type="curve"/>
      <point x="185" y="247"/>
      <point x="257" y="177"/>
    </contour>
    <contour>
      <point x="316" y="611" type="move" name="top"/>
    </contour>
  </outline>
</glyph>
<glyph name="i" format="1">
  <advance width="349"/>
  <unicode hex="0069"/>
  <outline>
    <contour>
      <point x="181" y="112" type="curve"/>
      <point x="14" y="112"/>
      <point x="196" y="112"/>
      <point x="30" y="112" type="curve"/>
      <point x="29" y="0"/>
      <point x="30" y="112"/>
      <point x="29" y="0" type="curve"/>
      <point x="85" y="0"/>
      <point x="125" y="0"/>
      <point x="181" y="0" type="curve"/>
      <point x="181" y="112"/>
      <point x="181" y="0"/>
    </contour>
    <contour>
      <point x="181" y="0" type="curve"/>
      <point x="233" y="0"/>
      <point x="275" y="0"/>
      <point x="327" y="0" type="curve"/>
      <point x="327" y="112"/>
      <point x="327" y="0"/>
      <point x="327" y="112" type="curve"/>
      <point x="170" y="112"/>
      <point x="337" y="112"/>
      <point x="181" y="112" type="curve"/>
      <point x="181" y="0"/>
      <point x="181" y="112"/>
    </contour>
    <contour>
      <point x="181" y="533" type="curve"/>
      <point x="125" y="533"/>
      <point x="85" y="533"/>
      <point x="30" y="533" type="curve"/>
      <point x="29" y="421"/>
      <point x="30" y="533"/>
      <point x="29" y="421" type="curve"/>
      <point x="196" y="421"/>
      <point x="13" y="421"/>
      <point x="181" y="421" type="curve"/>
      <point x="181" y="533"/>
      <point x="181" y="421"/>
    </contour>
    <contour>
      <point x="260" y="0" type="curve"/>
      <point x="260" y="178"/>
      <point x="260" y="355"/>
      <point x="260" y="533" type="curve"/>
      <point x="103" y="533"/>
      <point x="260" y="533"/>
      <point x="103" y="533" type="curve"/>
      <point x="103" y="355"/>
      <point x="103" y="178"/>
      <point x="103" y="0" type="curve"/>
      <point x="260" y="0"/>
      <point x="103" y="0"/>
    </contour>
    <contour>
      <point x="262" y="682" type="curve"/>
      <point x="262" y="732"/>
      <point x="226" y="755"/>
      <point x="177" y="755" type="curve"/>
      <point x="128" y="755"/>
      <point x="95" y="729"/>
      <point x="95" y="682" type="curve"/>
      <point x="262" y="682"/>
      <point x="95" y="682"/>
      <point x="262" y="682" type="curve"/>
      <point x="262" y="632"/>
      <point x="226" y="610"/>
      <point x="177" y="610" type="curve"/>
      <point x="127" y="610"/>
      <point x="95" y="634"/>
      <point x="95" y="682" type="curve"/>
      <point x="262" y="682"/>
      <point x="95" y="682"/>
    </contour>
    <contour>
      <point x="177" y="612" type="move" name="top"/>
    </contour>
    <contour>
      <point x="248" y="9" type="move" name="bottom"/>
    </contour>
  </outline>
</glyph>
<glyph name="j" format="1">
  <advance width="330"/>
  <unicode hex="006A"/>
  <outline>
    <contour>
      <point x="173" y="533" type="curve"/>
      <point x="117" y="533"/>
      <point x="61" y="533"/>
      <point x="6" y="533" type="curve"/>
      <point x="6" y="421"/>
      <point x="6" y="533"/>
      <point x="6" y="421" type="curve"/>
      <point x="173" y="421"/>
      <point x="6" y="421"/>
      <point x="173" y="421" type="curve"/>
      <point x="173" y="533"/>
      <point x="173" y="421"/>
    </contour>
    <contour>
      <point x="-19" y="-303" type="curve"/>
      <point x="-8" y="-304"/>
      <point x="4" y="-305"/>
      <point x="18" y="-305" type="curve"/>
      <point x="148" y="-305"/>
      <point x="249" y="-242"/>
      <point x="249" y="-119" type="curve"/>
      <point x="249" y="98"/>
      <point x="249" y="316"/>
      <point x="249" y="534" type="curve"/>
      <point x="99" y="534"/>
      <point x="249" y="534"/>
      <point x="99" y="534" type="curve"/>
      <point x="99" y="316"/>
      <point x="99" y="98"/>
      <point x="99" y="-119" type="curve"/>
      <point x="99" y="-167"/>
      <point x="72" y="-198"/>
      <point x="24" y="-198" type="curve"/>
      <point x="17" y="-198"/>
      <point x="9" y="-197"/>
      <point x="2" y="-196" type="curve"/>
      <point x="-18" y="-303"/>
      <point x="2" y="-196"/>
    </contour>
    <contour>
      <point x="258" y="679" type="curve"/>
      <point x="258" y="728"/>
      <point x="222" y="752"/>
      <point x="173" y="752" type="curve"/>
      <point x="124" y="752"/>
      <point x="91" y="725"/>
      <point x="91" y="679" type="curve"/>
      <point x="257" y="679"/>
      <point x="91" y="679"/>
      <point x="258" y="679" type="curve"/>
      <point x="258" y="628"/>
      <point x="222" y="607"/>
      <point x="172" y="607" type="curve"/>
      <point x="123" y="607"/>
      <point x="91" y="631"/>
      <point x="91" y="679" type="curve"/>
      <point x="257" y="679"/>
      <point x="91" y="679"/>
    </contour>
  </outline>
</glyph>
<glyph name="l" format="1">
  <advance width="375"/>
  <unicode hex="006C"/>
  <outline>
    <contour>
      <point x="188" y="111" type="curve"/>
      <point x="21" y="112"/>
      <point x="188" y="111"/>
      <point x="21" y="112" type="curve"/>
      <point x="21" y="0"/>
      <point x="21" y="112"/>
      <point x="21" y="0" type="curve"/>
      <point x="77" y="0"/>
      <point x="132" y="-1"/>
      <point x="188" y="-1" type="curve"/>
      <point x="188" y="112"/>
      <point x="188" y="-1"/>
    </contour>
    <contour>
      <point x="191" y="799" type="curve"/>
      <point x="135" y="799"/>
      <point x="79" y="800"/>
      <point x="24" y="800" type="curve"/>
      <point x="24" y="688"/>
      <point x="24" y="800"/>
      <point x="24" y="688" type="curve"/>
      <point x="191" y="688"/>
      <point x="24" y="688"/>
      <point x="191" y="688" type="curve"/>
      <point x="191" y="799"/>
      <point x="191" y="688"/>
    </contour>
    <contour>
      <point x="188" y="-1" type="curve"/>
      <point x="244" y="-1"/>
      <point x="300" y="0"/>
      <point x="356" y="0" type="curve"/>
      <point x="356" y="112"/>
      <point x="356" y="0"/>
      <point x="356" y="112" type="curve"/>
      <point x="188" y="111"/>
      <point x="356" y="112"/>
      <point x="188" y="111" type="curve"/>
      <point x="188" y="-1"/>
      <point x="188" y="112"/>
    </contour>
    <contour>
      <point x="262" y="0" type="curve"/>
      <point x="262" y="267"/>
      <point x="262" y="533"/>
      <point x="262" y="800" type="curve"/>
      <point x="113" y="800"/>
      <point x="262" y="800"/>
      <point x="113" y="800" type="curve"/>
      <point x="113" y="533"/>
      <point x="113" y="267"/>
      <point x="113" y="0" type="curve"/>
      <point x="262" y="0"/>
      <point x="113" y="0"/>
    </contour>
    <contour>
      <point x="189" y="879" type="move" name="top"/>
    </contour>
    <contour>
      <point x="246" y="6" type="move" name="bottom"/>
    </contour>
  </outline>
</glyph>
<glyph name="m" format="1">
  <advance width="1076"/>
  <unicode hex="006D"/>
  <outline>
    <contour>
      <point x="552" y="0" type="curve"/>
      <point x="682" y="0"/>
      <point x="552" y="0"/>
      <point x="682" y="0" type="curve"/>
      <point x="682" y="112"/>
      <point x="682" y="0"/>
      <point x="682" y="112" type="curve"/>
      <point x="552" y="112"/>
      <point x="682" y="112"/>
      <point x="552" y="112" type="curve"/>
      <point x="552" y="0"/>
      <point x="552" y="112"/>
    </contour>
    <contour>
      <point x="899" y="0" type="curve"/>
      <point x="944" y="0"/>
      <point x="989" y="0"/>
      <point x="1035" y="0" type="curve"/>
      <point x="1035" y="112"/>
      <point x="1035" y="0"/>
      <point x="1035" y="112" type="curve"/>
      <point x="899" y="112"/>
      <point x="1035" y="112"/>
      <point x="899" y="112" type="curve"/>
      <point x="899" y="0"/>
      <point x="899" y="112"/>
    </contour>
    <contour>
      <point x="207" y="112" type="curve"/>
      <point x="55" y="112"/>
      <point x="207" y="112"/>
      <point x="55" y="112" type="curve"/>
      <point x="55" y="0"/>
      <point x="55" y="112"/>
      <point x="55" y="0" type="curve"/>
      <point x="105" y="0"/>
      <point x="156" y="0"/>
      <point x="207" y="0" type="curve"/>
      <point x="207" y="112"/>
      <point x="207" y="0"/>
    </contour>
    <contour>
      <point x="207" y="0" type="curve"/>
      <point x="250" y="0"/>
      <point x="206" y="0"/>
      <point x="337" y="0" type="curve"/>
      <point x="337" y="112"/>
      <point x="337" y="0"/>
      <point x="337" y="112" type="curve"/>
      <point x="206" y="112"/>
      <point x="337" y="112"/>
      <point x="207" y="112" type="curve"/>
      <point x="207" y="0"/>
      <point x="207" y="112"/>
    </contour>
    <contour>
      <point x="207" y="533" type="curve"/>
      <point x="156" y="533"/>
      <point x="105" y="533"/>
      <point x="55" y="533" type="curve"/>
      <point x="55" y="421"/>
      <point x="55" y="533"/>
      <point x="55" y="421" type="curve"/>
      <point x="207" y="421"/>
      <point x="55" y="421"/>
      <point x="207" y="421" type="curve"/>
      <point x="207" y="533"/>
      <point x="207" y="421"/>
    </contour>
    <contour>
      <point x="593" y="265" type="curve"/>
      <point x="628" y="350"/>
      <point x="664" y="421"/>
      <point x="736" y="421" type="curve"/>
      <point x="806" y="421"/>
      <point x="823" y="380"/>
      <point x="823" y="307" type="curve"/>
      <point x="823" y="205"/>
      <point x="823" y="103"/>
      <point x="823" y="0" type="curve"/>
      <point x="973" y="0"/>
      <point x="823" y="0"/>
      <point x="973" y="0" type="curve"/>
      <point x="973" y="106"/>
      <point x="973" y="212"/>
      <point x="973" y="318" type="curve"/>
      <point x="973" y="464"/>
      <point x="923" y="538"/>
      <point x="778" y="538" type="curve"/>
      <point x="661" y="538"/>
      <point x="588" y="454"/>
      <point x="533" y="326" type="curve"/>
      <point x="595" y="266"/>
      <point x="531" y="324"/>
    </contour>
    <contour>
      <point x="247" y="268" type="curve"/>
      <point x="281" y="352"/>
      <point x="317" y="421"/>
      <point x="390" y="421" type="curve"/>
      <point x="460" y="421"/>
      <point x="477" y="380"/>
      <point x="477" y="307" type="curve"/>
      <point x="477" y="205"/>
      <point x="477" y="103"/>
      <point x="477" y="0" type="curve"/>
      <point x="627" y="0"/>
      <point x="477" y="0"/>
      <point x="627" y="0" type="curve"/>
      <point x="627" y="106"/>
      <point x="627" y="212"/>
      <point x="627" y="318" type="curve"/>
      <point x="627" y="464"/>
      <point x="578" y="538"/>
      <point x="433" y="538" type="curve"/>
      <point x="315" y="538"/>
      <point x="253" y="459"/>
      <point x="187" y="329" type="curve"/>
      <point x="249" y="269"/>
      <point x="185" y="327"/>
    </contour>
    <contour>
      <point x="281" y="0" type="curve"/>
      <point x="281" y="178"/>
      <point x="281" y="355"/>
      <point x="281" y="533" type="curve"/>
      <point x="131" y="533"/>
      <point x="281" y="533"/>
      <point x="131" y="533" type="curve"/>
      <point x="131" y="355"/>
      <point x="131" y="178"/>
      <point x="131" y="0" type="curve"/>
      <point x="281" y="0"/>
      <point x="131" y="0"/>
    </contour>
  </outline>
</glyph>
<glyph name="n" format="1">
  <advance width="723"/>
  <unicode hex="006E"/>
  <outline>
    <contour>
      <point x="222" y="255" type="curve"/>
      <point x="248" y="349"/>
      <point x="299" y="421"/>
      <point x="383" y="421" type="curve"/>
      <point x="454" y="421"/>
      <point x="492" y="378"/>
      <point x="492" y="307" type="curve"/>
      <point x="492" y="200"/>
      <point x="492" y="107"/>
      <point x="492" y="0" type="curve"/>
      <point x="589" y="0"/>
      <point x="545" y="0"/>
      <point x="642" y="0" type="curve"/>
      <point x="642" y="111"/>
      <point x="642" y="207"/>
      <point x="642" y="318" type="curve"/>
      <point x="642" y="459"/>
      <point x="569" y="538"/>
      <point x="426" y="538" type="curve"/>
      <point x="296" y="538"/>
      <point x="205" y="455"/>
      <point x="160" y="311" type="curve"/>
      <point x="195" y="271"/>
      <point x="188" y="295"/>
    </contour>
    <contour>
      <point x="566" y="0" type="curve"/>
      <point x="621" y="0"/>
      <point x="661" y="0"/>
      <point x="717" y="0" type="curve"/>
      <point x="717" y="112"/>
      <point x="717" y="0"/>
      <point x="717" y="112" type="curve"/>
      <point x="550" y="112"/>
      <point x="733" y="112"/>
      <point x="566" y="112" type="curve"/>
      <point x="566" y="0"/>
      <point x="566" y="112"/>
    </contour>
    <contour>
      <point x="179" y="112" type="curve"/>
      <point x="13" y="112"/>
      <point x="195" y="112"/>
      <point x="28" y="112" type="curve"/>
      <point x="28" y="0"/>
      <point x="28" y="112"/>
      <point x="28" y="0" type="curve"/>
      <point x="84" y="0"/>
      <point x="124" y="0"/>
      <point x="179" y="0" type="curve"/>
      <point x="179" y="112"/>
      <point x="179" y="0"/>
    </contour>
    <contour>
      <point x="179" y="0" type="curve"/>
      <point x="232" y="0"/>
      <point x="164" y="0"/>
      <point x="320" y="0" type="curve"/>
      <point x="320" y="112"/>
      <point x="320" y="0"/>
      <point x="320" y="112" type="curve"/>
      <point x="164" y="112"/>
      <point x="335" y="112"/>
      <point x="179" y="112" type="curve"/>
      <point x="179" y="0"/>
      <point x="179" y="112"/>
    </contour>
    <contour>
      <point x="254" y="0" type="curve"/>
      <point x="254" y="178"/>
      <point x="254" y="355"/>
      <point x="254" y="533" type="curve"/>
      <point x="104" y="533"/>
      <point x="254" y="533"/>
      <point x="104" y="533" type="curve"/>
      <point x="104" y="355"/>
      <point x="104" y="178"/>
      <point x="104" y="0" type="curve"/>
      <point x="254" y="0"/>
      <point x="104" y="0"/>
    </contour>
    <contour>
      <point x="179" y="533" type="curve"/>
      <point x="124" y="533"/>
      <point x="84" y="533"/>
      <point x="28" y="533" type="curve"/>
      <point x="28" y="421"/>
      <point x="28" y="533"/>
      <point x="28" y="421" type="curve"/>
      <point x="195" y="421"/>
      <point x="13" y="421"/>
      <point x="179" y="421" type="curve"/>
      <point x="179" y="533"/>
      <point x="179" y="421"/>
    </contour>
    <contour>
      <point x="380" y="611" type="move" name="top"/>
    </contour>
    <contour>
      <point x="399" y="24" type="move" name="bottom"/>
    </contour>
  </outline>
</glyph>
<glyph name="o" format="1">
  <advance width="673"/>
  <unicode hex="006F"/>
  <outline>
    <contour>
      <point x="188" y="267" type="curve"/>
      <point x="188" y="358"/>
      <point x="235" y="424"/>
      <point x="330" y="424" type="curve"/>
      <point x="429" y="424"/>
      <point x="481" y="359"/>
      <point x="481" y="266" type="curve"/>
      <point x="481" y="168"/>
      <point x="431" y="109"/>
      <point x="340" y="109" type="curve"/>
      <point x="239" y="110"/>
      <point x="188" y="168"/>
      <point x="188" y="267" type="curve"/>
      <point x="104" y="267"/>
      <point x="126" y="267"/>
      <point x="42" y="267" type="curve"/>
      <point x="42" y="91"/>
      <point x="156" y="-5"/>
      <point x="333" y="-5" type="curve"/>
      <point x="513" y="-5"/>
      <point x="630" y="88"/>
      <point x="630" y="266" type="curve"/>
      <point x="630" y="438"/>
      <point x="518" y="538"/>
      <point x="337" y="538" type="curve"/>
      <point x="156" y="538"/>
      <point x="42" y="438"/>
      <point x="42" y="267" type="curve"/>
      <point x="126" y="267"/>
      <point x="104" y="267"/>
    </contour>
    <contour>
      <point x="336" y="611" type="move" name="top"/>
    </contour>
  </outline>
</glyph>
<glyph name="p" format="1">
  <advance width="708"/>
  <unicode hex="0070"/>
  <outline>
    <contour>
      <point x="158" y="-188" type="curve"/>
      <point x="-9" y="-188"/>
      <point x="173" y="-188"/>
      <point x="6" y="-188" type="curve"/>
      <point x="6" y="-300"/>
      <point x="6" y="-188"/>
      <point x="6" y="-300" type="curve"/>
      <point x="62" y="-300"/>
      <point x="102" y="-300"/>
      <point x="158" y="-300" type="curve"/>
      <point x="158" y="-188"/>
      <point x="158" y="-300"/>
    </contour>
    <contour>
      <point x="158" y="-300" type="curve"/>
      <point x="210" y="-300"/>
      <point x="247" y="-300"/>
      <point x="299" y="-300" type="curve"/>
      <point x="299" y="-188"/>
      <point x="299" y="-300"/>
      <point x="299" y="-188" type="curve"/>
      <point x="142" y="-188"/>
      <point x="314" y="-188"/>
      <point x="158" y="-188" type="curve"/>
      <point x="158" y="-300"/>
      <point x="158" y="-188"/>
    </contour>
    <contour>
      <point x="159" y="533" type="curve"/>
      <point x="103" y="533"/>
      <point x="63" y="533"/>
      <point x="8" y="533" type="curve"/>
      <point x="7" y="421"/>
      <point x="8" y="533"/>
      <point x="7" y="421" type="curve"/>
      <point x="174" y="421"/>
      <point x="-8" y="421"/>
      <point x="159" y="421" type="curve"/>
      <point x="159" y="533"/>
      <point x="159" y="421"/>
    </contour>
    <contour>
      <point x="190" y="290" type="curve"/>
      <point x="235" y="369"/>
      <point x="294" y="427"/>
      <point x="379" y="427" type="curve"/>
      <point x="473" y="427"/>
      <point x="517" y="359"/>
      <point x="517" y="262" type="curve"/>
      <point x="518" y="169"/>
      <point x="471" y="106"/>
      <point x="377" y="107" type="curve"/>
      <point x="304" y="107"/>
      <point x="246" y="133"/>
      <point x="192" y="180" type="curve"/>
      <point x="151" y="141"/>
      <point x="171" y="149"/>
      <point x="130" y="109" type="curve"/>
      <point x="202" y="36"/>
      <point x="289" y="-5"/>
      <point x="400" y="-5" type="curve"/>
      <point x="569" y="-5"/>
      <point x="667" y="103"/>
      <point x="666" y="268" type="curve"/>
      <point x="666" y="429"/>
      <point x="574" y="539"/>
      <point x="409" y="539" type="curve"/>
      <point x="288" y="539"/>
      <point x="203" y="474"/>
      <point x="139" y="375" type="curve"/>
      <point x="171" y="317"/>
      <point x="158" y="348"/>
    </contour>
    <contour>
      <point x="233" y="-300" type="curve"/>
      <point x="233" y="-22"/>
      <point x="233" y="255"/>
      <point x="233" y="533" type="curve"/>
      <point x="83" y="533"/>
      <point x="233" y="533"/>
      <point x="83" y="533" type="curve"/>
      <point x="83" y="255"/>
      <point x="83" y="-22"/>
      <point x="83" y="-300" type="curve"/>
      <point x="233" y="-300"/>
      <point x="83" y="-300"/>
    </contour>
  </outline>
</glyph>
<glyph name="q" format="1">
  <advance width="740"/>
  <unicode hex="0071"/>
  <outline>
    <contour>
      <point x="557" y="421" type="curve"/>
      <point x="653" y="421"/>
      <point x="600" y="421"/>
      <point x="697" y="421" type="curve"/>
      <point x="697" y="495"/>
      <point x="697" y="460"/>
      <point x="697" y="533" type="curve"/>
      <point x="642" y="533"/>
      <point x="612" y="533"/>
      <point x="557" y="533" type="curve"/>
      <point x="557" y="460"/>
      <point x="557" y="495"/>
    </contour>
    <contour>
      <point x="556" y="-188" type="curve"/>
      <point x="452" y="-188"/>
      <point x="508" y="-188"/>
      <point x="405" y="-188" type="curve"/>
      <point x="405" y="-262"/>
      <point x="405" y="-226"/>
      <point x="405" y="-300" type="curve"/>
      <point x="464" y="-300"/>
      <point x="496" y="-300"/>
      <point x="556" y="-300" type="curve"/>
      <point x="556" y="-226"/>
      <point x="556" y="-262"/>
    </contour>
    <contour>
      <point x="556" y="-300" type="curve"/>
      <point x="612" y="-300"/>
      <point x="641" y="-300"/>
      <point x="697" y="-300" type="curve"/>
      <point x="697" y="-226"/>
      <point x="697" y="-262"/>
      <point x="697" y="-188" type="curve"/>
      <point x="599" y="-188"/>
      <point x="653" y="-188"/>
      <point x="556" y="-188" type="curve"/>
      <point x="556" y="-262"/>
      <point x="556" y="-226"/>
    </contour>
    <contour>
      <point x="577" y="385" type="curve"/>
      <point x="506" y="479"/>
      <point x="424" y="538"/>
      <point x="308" y="538" type="curve"/>
      <point x="138" y="538"/>
      <point x="43" y="429"/>
      <point x="43" y="263" type="curve"/>
      <point x="43" y="98"/>
      <point x="144" y="-5"/>
      <point x="313" y="-5" type="curve"/>
      <point x="430" y="-5"/>
      <point x="512" y="56"/>
      <point x="591" y="143" type="curve"/>
      <point x="553" y="185"/>
      <point x="559" y="165"/>
      <point x="521" y="206" type="curve"/>
      <point x="474" y="141"/>
      <point x="414" y="107"/>
      <point x="336" y="107" type="curve"/>
      <point x="242" y="107"/>
      <point x="193" y="172"/>
      <point x="193" y="269" type="curve"/>
      <point x="193" y="363"/>
      <point x="243" y="424"/>
      <point x="334" y="424" type="curve"/>
      <point x="414" y="424"/>
      <point x="473" y="385"/>
      <point x="526" y="314" type="curve"/>
      <point x="556" y="359"/>
      <point x="547" y="340"/>
    </contour>
    <contour>
      <point x="633" y="-300" type="curve"/>
      <point x="633" y="-6"/>
      <point x="633" y="239"/>
      <point x="633" y="533" type="curve"/>
      <point x="532" y="533"/>
      <point x="578" y="533"/>
      <point x="477" y="533" type="curve"/>
      <point x="477" y="239"/>
      <point x="477" y="-6"/>
      <point x="477" y="-300" type="curve"/>
      <point x="578" y="-300"/>
      <point x="532" y="-300"/>
    </contour>
  </outline>
</glyph>
<glyph name="v" format="1">
  <advance width="693"/>
  <unicode hex="0076"/>
  <outline>
    <contour>
      <point x="143" y="533" type="curve"/>
      <point x="103" y="533"/>
      <point x="62" y="533"/>
      <point x="22" y="533" type="curve"/>
      <point x="22" y="421"/>
      <point x="22" y="533"/>
      <point x="22" y="421" type="curve"/>
      <point x="144" y="421"/>
      <point x="22" y="421"/>
      <point x="143" y="421" type="curve"/>
      <point x="143" y="533"/>
      <point x="143" y="421"/>
    </contour>
    <contour>
      <point x="143" y="421" type="curve"/>
      <point x="294" y="421"/>
      <point x="143" y="421"/>
      <point x="294" y="421" type="curve"/>
      <point x="294" y="533"/>
      <point x="294" y="421"/>
      <point x="294" y="533" type="curve"/>
      <point x="244" y="533"/>
      <point x="194" y="533"/>
      <point x="143" y="533" type="curve"/>
      <point x="143" y="421"/>
      <point x="143" y="533"/>
    </contour>
    <contour>
      <point x="558" y="533" type="curve"/>
      <point x="508" y="533"/>
      <point x="457" y="533"/>
      <point x="407" y="533" type="curve"/>
      <point x="407" y="421"/>
      <point x="407" y="533"/>
      <point x="407" y="421" type="curve"/>
      <point x="558" y="421"/>
      <point x="407" y="421"/>
      <point x="558" y="421" type="curve"/>
      <point x="558" y="533"/>
      <point x="558" y="421"/>
    </contour>
    <contour>
      <point x="558" y="421" type="curve"/>
      <point x="685" y="421"/>
      <point x="558" y="421"/>
      <point x="685" y="421" type="curve"/>
      <point x="685" y="533"/>
      <point x="685" y="421"/>
      <point x="685" y="533" type="curve"/>
      <point x="642" y="533"/>
      <point x="600" y="533"/>
      <point x="558" y="533" type="curve"/>
      <point x="558" y="421"/>
      <point x="558" y="533"/>
    </contour>
    <contour>
      <point x="46" y="533" type="curve"/>
      <point x="119" y="355"/>
      <point x="191" y="178"/>
      <point x="263" y="0" type="curve"/>
      <point x="408" y="0"/>
      <point x="263" y="0"/>
      <point x="408" y="0" type="curve"/>
      <point x="337" y="178"/>
      <point x="270" y="355"/>
      <point x="198" y="533" type="curve"/>
      <point x="46" y="533"/>
      <point x="198" y="533"/>
    </contour>
    <contour>
      <point x="504" y="533" type="curve"/>
      <point x="281" y="0" type="line"/>
      <point x="427" y="0"/>
      <point x="281" y="0"/>
      <point x="427" y="0" type="curve"/>
      <point x="503" y="178"/>
      <point x="579" y="355"/>
      <point x="655" y="533" type="curve"/>
      <point x="504" y="533"/>
      <point x="655" y="533"/>
    </contour>
  </outline>
</glyph>
<glyph name="w" format="1">
  <advance width="1031"/>
  <unicode hex="0077"/>
  <outline>
    <contour>
      <point x="880" y="421" type="curve"/>
      <point x="1017" y="421"/>
      <point x="880" y="421"/>
      <point x="1017" y="421" type="curve"/>
      <point x="1017" y="533"/>
      <point x="1017" y="421"/>
      <point x="1017" y="533" type="curve"/>
      <point x="971" y="533"/>
      <point x="925" y="533"/>
      <point x="880" y="533" type="curve"/>
      <point x="880" y="421"/>
      <point x="880" y="533"/>
    </contour>
    <contour>
      <point x="880" y="533" type="curve"/>
      <point x="833" y="533"/>
      <point x="787" y="533"/>
      <point x="741" y="533" type="curve"/>
      <point x="741" y="421"/>
      <point x="741" y="533"/>
      <point x="741" y="421" type="curve"/>
      <point x="881" y="421"/>
      <point x="741" y="421"/>
      <point x="880" y="421" type="curve"/>
      <point x="880" y="533"/>
      <point x="880" y="421"/>
    </contour>
    <contour>
      <point x="155" y="533" type="curve"/>
      <point x="110" y="533"/>
      <point x="64" y="533"/>
      <point x="18" y="533" type="curve"/>
      <point x="18" y="421"/>
      <point x="18" y="533"/>
      <point x="18" y="421" type="curve"/>
      <point x="155" y="421"/>
      <point x="18" y="421"/>
      <point x="155" y="421" type="curve"/>
      <point x="155" y="533"/>
      <point x="155" y="421"/>
    </contour>
    <contour>
      <point x="155" y="421" type="curve"/>
      <point x="292" y="421"/>
      <point x="155" y="421"/>
      <point x="292" y="421" type="curve"/>
      <point x="292" y="533"/>
      <point x="292" y="421"/>
      <point x="292" y="533" type="curve"/>
      <point x="246" y="533"/>
      <point x="200" y="533"/>
      <point x="155" y="533" type="curve"/>
      <point x="155" y="421"/>
      <point x="155" y="533"/>
    </contour>
    <contour>
      <point x="380" y="0" type="curve"/>
      <point x="451" y="178"/>
      <point x="522" y="355"/>
      <point x="592" y="533" type="curve"/>
      <point x="450" y="533"/>
      <point x="592" y="533"/>
      <point x="450" y="533" type="curve"/>
      <point x="380" y="355"/>
      <point x="311" y="178"/>
      <point x="242" y="0" type="curve"/>
      <point x="380" y="0"/>
      <point x="242" y="0"/>
    </contour>
    <contour>
      <point x="843" y="533" type="curve"/>
      <point x="778" y="355"/>
      <point x="713" y="178"/>
      <point x="648" y="0" type="curve"/>
      <point x="786" y="0"/>
      <point x="648" y="0"/>
      <point x="786" y="0" type="curve"/>
      <point x="853" y="178"/>
      <point x="919" y="355"/>
      <point x="985" y="533" type="curve"/>
      <point x="843" y="533"/>
      <point x="985" y="533"/>
    </contour>
    <contour>
      <point x="457" y="533" type="curve"/>
      <point x="520" y="355"/>
      <point x="583" y="178"/>
      <point x="647" y="0" type="curve"/>
      <point x="786" y="0"/>
      <point x="647" y="0"/>
      <point x="786" y="0" type="curve"/>
      <point x="723" y="178"/>
      <point x="660" y="355"/>
      <point x="597" y="533" type="curve"/>
      <point x="457" y="533"/>
      <point x="597" y="533"/>
    </contour>
    <contour>
      <point x="51" y="533" type="curve"/>
      <point x="114" y="355"/>
      <point x="178" y="178"/>
      <point x="241" y="0" type="curve"/>
      <point x="379" y="0"/>
      <point x="241" y="0"/>
      <point x="379" y="0" type="curve"/>
      <point x="317" y="178"/>
      <point x="255" y="355"/>
      <point x="192" y="533" type="curve"/>
      <point x="51" y="533"/>
      <point x="192" y="533"/>
    </contour>
  </outline>
</glyph>
<glyph name="x" format="1">
  <advance width="668"/>
  <unicode hex="0078"/>
  <outline>
    <contour>
      <point x="118" y="112" type="curve"/>
      <point x="-6" y="112"/>
      <point x="145" y="112"/>
      <point x="21" y="112" type="curve"/>
      <point x="21" y="0"/>
      <point x="21" y="112"/>
      <point x="21" y="0" type="curve"/>
      <point x="62" y="0"/>
      <point x="77" y="0"/>
      <point x="118" y="0" type="curve"/>
      <point x="118" y="112"/>
      <point x="118" y="0"/>
    </contour>
    <contour>
      <point x="557" y="112" type="curve"/>
      <point x="364" y="112"/>
      <point x="561" y="111"/>
      <point x="368" y="111" type="curve"/>
      <point x="368" y="-1"/>
      <point x="368" y="111"/>
      <point x="368" y="-1" type="curve"/>
      <point x="432" y="-1"/>
      <point x="492" y="0"/>
      <point x="557" y="0" type="curve"/>
      <point x="557" y="112"/>
      <point x="557" y="0"/>
    </contour>
    <contour>
      <point x="548" y="0" type="curve"/>
      <point x="588" y="0"/>
      <point x="619" y="0"/>
      <point x="658" y="0" type="curve"/>
      <point x="658" y="112"/>
      <point x="658" y="0"/>
      <point x="658" y="112" type="curve"/>
      <point x="539" y="112"/>
      <point x="667" y="112"/>
      <point x="548" y="112" type="curve"/>
      <point x="548" y="0"/>
      <point x="548" y="112"/>
    </contour>
    <contour>
      <point x="109" y="0" type="curve"/>
      <point x="174" y="0"/>
      <point x="109" y="0"/>
      <point x="303" y="0" type="curve"/>
      <point x="303" y="112"/>
      <point x="303" y="0"/>
      <point x="303" y="112" type="curve"/>
      <point x="109" y="112"/>
      <point x="303" y="112"/>
      <point x="109" y="112" type="curve"/>
      <point x="109" y="0"/>
      <point x="109" y="112"/>
    </contour>
    <contour>
      <point x="531" y="421" type="curve"/>
      <point x="659" y="421"/>
      <point x="522" y="421"/>
      <point x="650" y="421" type="curve"/>
      <point x="650" y="533"/>
      <point x="650" y="421"/>
      <point x="650" y="533" type="curve"/>
      <point x="607" y="533"/>
      <point x="573" y="533"/>
      <point x="531" y="533" type="curve"/>
      <point x="531" y="421"/>
      <point x="531" y="533"/>
    </contour>
    <contour>
      <point x="165" y="533" type="curve"/>
      <point x="120" y="533"/>
      <point x="90" y="533"/>
      <point x="45" y="533" type="curve"/>
      <point x="45" y="421"/>
      <point x="45" y="533"/>
      <point x="45" y="421" type="curve"/>
      <point x="179" y="421"/>
      <point x="31" y="421"/>
      <point x="165" y="421" type="curve"/>
      <point x="165" y="533"/>
      <point x="165" y="421"/>
    </contour>
    <contour>
      <point x="136" y="421" type="curve"/>
      <point x="318" y="421"/>
      <point x="128" y="421"/>
      <point x="310" y="421" type="curve"/>
      <point x="310" y="533"/>
      <point x="310" y="421"/>
      <point x="310" y="533" type="curve"/>
      <point x="250" y="533"/>
      <point x="196" y="533"/>
      <point x="136" y="533" type="curve"/>
      <point x="136" y="421"/>
      <point x="136" y="533"/>
    </contour>
    <contour>
      <point x="545" y="533" type="curve"/>
      <point x="487" y="533"/>
      <point x="434" y="533"/>
      <point x="378" y="533" type="curve"/>
      <point x="378" y="421"/>
      <point x="378" y="533"/>
      <point x="378" y="421" type="curve"/>
      <point x="550" y="421"/>
      <point x="373" y="421"/>
      <point x="545" y="421" type="curve"/>
      <point x="545" y="533"/>
      <point x="545" y="421"/>
    </contour>
    <contour>
      <point x="627" y="47" type="curve"/>
      <point x="624" y="51"/>
      <point x="180" y="529"/>
      <point x="177" y="533" type="curve"/>
      <point x="48" y="533"/>
      <point x="192" y="482"/>
      <point x="63" y="482" type="curve"/>
      <point x="66" y="478"/>
      <point x="498" y="6"/>
      <point x="501" y="2" type="curve"/>
      <point x="641" y="2"/>
      <point x="487" y="47"/>
    </contour>
    <contour>
      <point x="521" y="533" type="curve"/>
      <point x="519" y="529"/>
      <point x="48" y="54"/>
      <point x="46" y="50" type="curve"/>
      <point x="185" y="50"/>
      <point x="27" y="0"/>
      <point x="167" y="0" type="curve"/>
      <point x="170" y="4"/>
      <point x="623" y="476"/>
      <point x="626" y="480" type="curve"/>
      <point x="496" y="480"/>
      <point x="651" y="533"/>
    </contour>
  </outline>
</glyph>
<glyph name="braceleft" format="1">
  <advance width="330"/>
  <unicode hex="007B"/>
  <outline>
    <contour>
      <point x="278" y="4" type="curve"/>
      <point x="240" y="4"/>
      <point x="226" y="29"/>
      <point x="226" y="67" type="curve"/>
      <point x="226" y="117"/>
      <point x="226" y="168"/>
      <point x="226" y="219" type="curve"/>
      <point x="226" y="331"/>
      <point x="151" y="400"/>
      <point x="38" y="400" type="curve"/>
      <point x="38" y="282"/>
      <point x="38" y="400"/>
      <point x="38" y="282" type="curve"/>
      <point x="72" y="282"/>
      <point x="89" y="264"/>
      <point x="89" y="230" type="curve"/>
      <point x="89" y="177"/>
      <point x="89" y="125"/>
      <point x="89" y="73" type="curve"/>
      <point x="89" y="-41"/>
      <point x="163" y="-108"/>
      <point x="278" y="-108" type="curve"/>
      <point x="278" y="4"/>
      <point x="278" y="-108"/>
    </contour>
    <contour>
      <point x="278" y="790" type="curve"/>
      <point x="163" y="790"/>
      <point x="89" y="726"/>
      <point x="89" y="613" type="curve"/>
      <point x="89" y="559"/>
      <point x="89" y="503"/>
      <point x="89" y="449" type="curve"/>
      <point x="89" y="416"/>
      <point x="71" y="400"/>
      <point x="38" y="400" type="curve"/>
      <point x="38" y="282"/>
      <point x="38" y="400"/>
      <point x="38" y="282" type="curve"/>
      <point x="152" y="282"/>
      <point x="226" y="351"/>
      <point x="226" y="466" type="curve"/>
      <point x="226" y="515"/>
      <point x="226" y="564"/>
      <point x="226" y="613" type="curve"/>
      <point x="226" y="652"/>
      <point x="240" y="677"/>
      <point x="278" y="677" type="curve"/>
      <point x="278" y="790"/>
      <point x="278" y="677"/>
    </contour>
  </outline>
</glyph>
<glyph name="bar" format="1">
  <advance width="304"/>
  <unicode hex="007C"/>
  <outline>
    <contour>
      <point x="227" y="-300" type="curve"/>
      <point x="227" y="67"/>
      <point x="227" y="433"/>
      <point x="227" y="800" type="curve"/>
      <point x="77" y="800"/>
      <point x="227" y="800"/>
      <point x="77" y="800" type="curve"/>
      <point x="77" y="433"/>
      <point x="77" y="67"/>
      <point x="77" y="-300" type="curve"/>
      <point x="227" y="-300"/>
      <point x="77" y="-300"/>
    </contour>
  </outline>
</glyph>
<glyph name="braceright" format="1">
  <advance width="331"/>
  <unicode hex="007D"/>
  <outline>
    <contour>
      <point x="52" y="-108" type="curve"/>
      <point x="167" y="-108"/>
      <point x="241" y="-41"/>
      <point x="241" y="73" type="curve"/>
      <point x="241" y="125"/>
      <point x="241" y="177"/>
      <point x="241" y="230" type="curve"/>
      <point x="241" y="264"/>
      <point x="258" y="282"/>
      <point x="293" y="282" type="curve"/>
      <point x="293" y="400"/>
      <point x="293" y="282"/>
      <point x="293" y="400" type="curve"/>
      <point x="178" y="400"/>
      <point x="105" y="331"/>
      <point x="105" y="219" type="curve"/>
      <point x="105" y="168"/>
      <point x="105" y="117"/>
      <point x="105" y="67" type="curve"/>
      <point x="105" y="29"/>
      <point x="90" y="4"/>
      <point x="52" y="4" type="curve"/>
      <point x="52" y="-108"/>
      <point x="52" y="4"/>
    </contour>
    <contour>
      <point x="52" y="677" type="curve"/>
      <point x="91" y="677"/>
      <point x="105" y="652"/>
      <point x="105" y="613" type="curve"/>
      <point x="105" y="564"/>
      <point x="105" y="515"/>
      <point x="105" y="466" type="curve"/>
      <point x="105" y="351"/>
      <point x="177" y="282"/>
      <point x="293" y="282" type="curve"/>
      <point x="293" y="400"/>
      <point x="293" y="282"/>
      <point x="293" y="400" type="curve"/>
      <point x="259" y="400"/>
      <point x="241" y="416"/>
      <point x="241" y="449" type="curve"/>
      <point x="241" y="503"/>
      <point x="241" y="559"/>
      <point x="241" y="613" type="curve"/>
      <point x="241" y="726"/>
      <point x="167" y="790"/>
      <point x="52" y="790" type="curve"/>
      <point x="52" y="677"/>
      <point x="52" y="790"/>
    </contour>
  </outline>
</glyph>
<glyph name="asciitilde" format="1">
  <advance width="738"/>
  <unicode hex="007E"/>
  <outline>
    <contour>
      <point x="561" y="380" type="curve"/>
      <point x="545" y="339"/>
      <point x="531" y="307"/>
      <point x="496" y="307" type="curve"/>
      <point x="460" y="307"/>
      <point x="440" y="314"/>
      <point x="410" y="333" type="curve"/>
      <point x="355" y="374"/>
      <point x="318" y="394"/>
      <point x="249" y="394" type="curve"/>
      <point x="147" y="394"/>
      <point x="93" y="345"/>
      <point x="61" y="246" type="curve"/>
      <point x="104" y="228"/>
      <point x="129" y="218"/>
      <point x="173" y="201" type="curve"/>
      <point x="187" y="245"/>
      <point x="205" y="278"/>
      <point x="244" y="278" type="curve"/>
      <point x="276" y="278"/>
      <point x="293" y="271"/>
      <point x="320" y="253" type="curve"/>
      <point x="378" y="212"/>
      <point x="417" y="193"/>
      <point x="489" y="192" type="curve"/>
      <point x="590" y="192"/>
      <point x="639" y="240"/>
      <point x="677" y="335" type="curve"/>
      <point x="632" y="353"/>
      <point x="607" y="362"/>
    </contour>
  </outline>
</glyph>
<glyph name="exclamdown" format="1">
  <advance width="289"/>
  <unicode hex="00A1"/>
  <outline>
    <contour>
      <point x="81" y="302" type="line"/>
      <point x="65" y="-191" type="line"/>
      <point x="224" y="-191" type="line"/>
      <point x="210" y="302" type="line"/>
    </contour>
    <contour>
      <point x="62" y="469" type="curve"/>
      <point x="62" y="419"/>
      <point x="98" y="396"/>
      <point x="146" y="395" type="curve"/>
      <point x="196" y="395"/>
      <point x="229" y="421"/>
      <point x="229" y="468" type="curve"/>
      <point x="62" y="469"/>
      <point x="228" y="468"/>
      <point x="62" y="469" type="curve"/>
      <point x="62" y="519"/>
      <point x="98" y="541"/>
      <point x="147" y="540" type="curve"/>
      <point x="197" y="540"/>
      <point x="229" y="516"/>
      <point x="229" y="468" type="curve"/>
      <point x="62" y="469"/>
      <point x="228" y="468"/>
    </contour>
  </outline>
</glyph>
<glyph name="cent" format="1">
  <advance width="726"/>
  <unicode hex="00A2"/>
  <outline>
    <contour>
      <point x="461" y="-53" type="curve"/>
      <point x="461" y="-13"/>
      <point x="461" y="27"/>
      <point x="461" y="67" type="curve"/>
      <point x="311" y="67"/>
      <point x="461" y="67"/>
      <point x="311" y="67" type="curve"/>
      <point x="311" y="27"/>
      <point x="311" y="-13"/>
      <point x="311" y="-53" type="curve"/>
      <point x="461" y="-53"/>
      <point x="311" y="-53"/>
    </contour>
    <contour>
      <point x="334" y="778" type="curve"/>
      <point x="334" y="742"/>
      <point x="334" y="706"/>
      <point x="334" y="670" type="curve"/>
      <point x="483" y="670"/>
      <point x="334" y="670"/>
      <point x="483" y="670" type="curve"/>
      <point x="483" y="706"/>
      <point x="483" y="742"/>
      <point x="483" y="778" type="curve"/>
      <point x="334" y="778"/>
      <point x="483" y="778"/>
    </contour>
    <contour>
      <point x="670" y="615" type="curve"/>
      <point x="585" y="668"/>
      <point x="517" y="687"/>
      <point x="418" y="687" type="curve"/>
      <point x="200" y="687"/>
      <point x="50" y="573"/>
      <point x="50" y="363" type="curve"/>
      <point x="50" y="164"/>
      <point x="177" y="45"/>
      <point x="379" y="45" type="curve"/>
      <point x="495" y="45"/>
      <point x="577" y="70"/>
      <point x="670" y="139" type="curve"/>
      <point x="587" y="232"/>
      <point x="670" y="139"/>
      <point x="587" y="232" type="curve"/>
      <point x="516" y="187"/>
      <point x="467" y="162"/>
      <point x="393" y="162" type="curve"/>
      <point x="271" y="162"/>
      <point x="200" y="243"/>
      <point x="200" y="369" type="curve"/>
      <point x="200" y="495"/>
      <point x="281" y="570"/>
      <point x="404" y="570" type="curve"/>
      <point x="476" y="570"/>
      <point x="526" y="554"/>
      <point x="597" y="516" type="curve"/>
      <point x="670" y="615"/>
      <point x="597" y="516"/>
    </contour>
    <contour>
      <point x="555" y="615" type="curve"/>
      <point x="555" y="491"/>
      <point x="555" y="589"/>
      <point x="555" y="465" type="curve"/>
      <point x="670" y="465"/>
      <point x="555" y="465"/>
      <point x="670" y="465" type="curve"/>
      <point x="670" y="589"/>
      <point x="670" y="491"/>
      <point x="670" y="615" type="curve"/>
      <point x="555" y="615"/>
      <point x="670" y="615"/>
    </contour>
  </outline>
</glyph>
<glyph name="sterling" format="1">
  <advance width="551"/>
  <unicode hex="00A3"/>
  <outline>
    <contour>
      <point x="476" y="112" type="curve"/>
      <point x="336" y="112"/>
      <point x="192" y="112"/>
      <point x="52" y="112" type="curve"/>
      <point x="52" y="0"/>
      <point x="52" y="112"/>
      <point x="52" y="0" type="curve"/>
      <point x="192" y="0"/>
      <point x="336" y="0"/>
      <point x="476" y="0" type="curve"/>
      <point x="476" y="112"/>
      <point x="476" y="0"/>
    </contour>
    <contour>
      <point x="423" y="431" type="curve"/>
      <point x="312" y="431"/>
      <point x="195" y="431"/>
      <point x="84" y="431" type="curve"/>
      <point x="84" y="319"/>
      <point x="84" y="431"/>
      <point x="84" y="319" type="curve"/>
      <point x="195" y="319"/>
      <point x="312" y="319"/>
      <point x="423" y="319" type="curve"/>
      <point x="423" y="431"/>
      <point x="423" y="319"/>
    </contour>
    <contour>
      <point x="512" y="661" type="curve"/>
      <point x="458" y="707"/>
      <point x="412" y="720"/>
      <point x="346" y="720" type="curve"/>
      <point x="166" y="720"/>
      <point x="85" y="559"/>
      <point x="132" y="363" type="curve"/>
      <point x="164" y="232"/>
      <point x="143" y="112"/>
      <point x="52" y="112" type="curve"/>
      <point x="52" y="0"/>
      <point x="52" y="112"/>
      <point x="52" y="0" type="curve"/>
      <point x="246" y="0"/>
      <point x="324" y="176"/>
      <point x="274" y="386" type="curve"/>
      <point x="246" y="505"/>
      <point x="263" y="614"/>
      <point x="339" y="614" type="curve"/>
      <point x="379" y="614"/>
      <point x="405" y="600"/>
      <point x="439" y="578" type="curve"/>
      <point x="512" y="661"/>
      <point x="439" y="578"/>
    </contour>
  </outline>
</glyph>
<glyph name="currency" format="1">
  <advance width="719"/>
  <unicode hex="00A4"/>
  <outline>
    <contour>
      <point x="278" y="317" type="curve"/>
      <point x="278" y="366"/>
      <point x="307" y="399"/>
      <point x="357" y="399" type="curve"/>
      <point x="411" y="399"/>
      <point x="440" y="369"/>
      <point x="440" y="316" type="curve"/>
      <point x="440" y="266"/>
      <point x="414" y="229"/>
      <point x="365" y="229" type="curve"/>
      <point x="309" y="229"/>
      <point x="278" y="262"/>
      <point x="278" y="317" type="curve"/>
      <point x="128" y="317"/>
      <point x="282" y="317"/>
      <point x="132" y="317" type="curve"/>
      <point x="132" y="187"/>
      <point x="226" y="117"/>
      <point x="362" y="117" type="curve"/>
      <point x="496" y="117"/>
      <point x="588" y="191"/>
      <point x="588" y="320" type="curve"/>
      <point x="588" y="444"/>
      <point x="498" y="511"/>
      <point x="370" y="511" type="curve"/>
      <point x="231" y="511"/>
      <point x="132" y="446"/>
      <point x="132" y="317" type="curve"/>
      <point x="282" y="317"/>
      <point x="128" y="317"/>
    </contour>
    <contour>
      <point x="495" y="313" type="line"/>
      <point x="662" y="467" type="line"/>
      <point x="549" y="580" type="line"/>
      <point x="396" y="412" type="line"/>
    </contour>
    <contour>
      <point x="399" y="223" type="line"/>
      <point x="552" y="56" type="line"/>
      <point x="665" y="168" type="line"/>
      <point x="498" y="322" type="line"/>
    </contour>
    <contour>
      <point x="222" y="323" type="line"/>
      <point x="55" y="170" type="line"/>
      <point x="168" y="57" type="line"/>
      <point x="321" y="224" type="line"/>
    </contour>
    <contour>
      <point x="325" y="414" type="line"/>
      <point x="171" y="581" type="line"/>
      <point x="58" y="468" type="line"/>
      <point x="226" y="315" type="line"/>
    </contour>
  </outline>
</glyph>
<glyph name="yen" format="1">
  <advance width="745"/>
  <unicode hex="00A5"/>
  <outline>
    <contour>
      <point x="601" y="437" type="curve"/>
      <point x="528" y="437"/>
      <point x="455" y="437"/>
      <point x="381" y="437" type="curve"/>
      <point x="381" y="313"/>
      <point x="381" y="437"/>
      <point x="381" y="313" type="curve"/>
      <point x="455" y="313"/>
      <point x="528" y="313"/>
      <point x="601" y="313" type="curve"/>
      <point x="601" y="437"/>
      <point x="601" y="313"/>
    </contour>
    <contour>
      <point x="351" y="437" type="curve"/>
      <point x="279" y="437"/>
      <point x="207" y="437"/>
      <point x="135" y="437" type="curve"/>
      <point x="135" y="313"/>
      <point x="135" y="437"/>
      <point x="135" y="313" type="curve"/>
      <point x="207" y="313"/>
      <point x="279" y="313"/>
      <point x="351" y="313" type="curve"/>
      <point x="351" y="437"/>
      <point x="351" y="313"/>
    </contour>
    <contour>
      <point x="601" y="279" type="curve"/>
      <point x="446" y="279"/>
      <point x="290" y="279"/>
      <point x="135" y="279" type="curve"/>
      <point x="135" y="156"/>
      <point x="135" y="279"/>
      <point x="135" y="156" type="curve"/>
      <point x="290" y="156"/>
      <point x="446" y="156"/>
      <point x="601" y="156" type="curve"/>
      <point x="601" y="279"/>
      <point x="601" y="156"/>
    </contour>
    <contour>
      <point x="364" y="112" type="curve"/>
      <point x="213" y="112"/>
      <point x="364" y="112"/>
      <point x="213" y="112" type="curve"/>
      <point x="213" y="0"/>
      <point x="213" y="112"/>
      <point x="213" y="0" type="curve"/>
      <point x="263" y="0"/>
      <point x="314" y="0"/>
      <point x="364" y="0" type="curve"/>
      <point x="364" y="112"/>
      <point x="364" y="0"/>
    </contour>
    <contour>
      <point x="364" y="0" type="curve"/>
      <point x="415" y="0"/>
      <point x="465" y="0"/>
      <point x="516" y="0" type="curve"/>
      <point x="516" y="112"/>
      <point x="516" y="0"/>
      <point x="516" y="112" type="curve"/>
      <point x="364" y="112"/>
      <point x="516" y="112"/>
      <point x="364" y="112" type="curve"/>
      <point x="364" y="0"/>
      <point x="364" y="112"/>
    </contour>
    <contour>
      <point x="568" y="722" type="curve"/>
      <point x="519" y="722"/>
      <point x="471" y="722"/>
      <point x="422" y="722" type="curve"/>
      <point x="422" y="610"/>
      <point x="422" y="722"/>
      <point x="422" y="610" type="curve"/>
      <point x="568" y="610"/>
      <point x="421" y="610"/>
      <point x="568" y="610" type="curve"/>
      <point x="568" y="722"/>
      <point x="568" y="610"/>
    </contour>
    <contour>
      <point x="163" y="722" type="curve"/>
      <point x="122" y="722"/>
      <point x="81" y="722"/>
      <point x="39" y="722" type="curve"/>
      <point x="39" y="610"/>
      <point x="39" y="722"/>
      <point x="39" y="610" type="curve"/>
      <point x="163" y="610"/>
      <point x="39" y="610"/>
      <point x="163" y="610" type="curve"/>
      <point x="163" y="722"/>
      <point x="163" y="610"/>
    </contour>
    <contour>
      <point x="173" y="610" type="curve"/>
      <point x="319" y="610"/>
      <point x="172" y="610"/>
      <point x="319" y="610" type="curve"/>
      <point x="319" y="722"/>
      <point x="319" y="610"/>
      <point x="319" y="722" type="curve"/>
      <point x="270" y="722"/>
      <point x="222" y="722"/>
      <point x="173" y="722" type="curve"/>
      <point x="173" y="610"/>
      <point x="173" y="722"/>
    </contour>
    <contour>
      <point x="578" y="610" type="curve"/>
      <point x="705" y="610"/>
      <point x="578" y="610"/>
      <point x="705" y="610" type="curve"/>
      <point x="705" y="722"/>
      <point x="705" y="610"/>
      <point x="705" y="722" type="curve"/>
      <point x="663" y="722"/>
      <point x="620" y="722"/>
      <point x="578" y="722" type="curve"/>
      <point x="578" y="610"/>
      <point x="578" y="722"/>
    </contour>
    <contour>
      <point x="61" y="700" type="curve"/>
      <point x="137" y="579"/>
      <point x="211" y="460"/>
      <point x="286" y="337" type="curve"/>
      <point x="438" y="337"/>
      <point x="276" y="337"/>
      <point x="427" y="337" type="curve"/>
      <point x="350" y="467"/>
      <point x="275" y="593"/>
      <point x="195" y="722" type="curve"/>
      <point x="61" y="722"/>
      <point x="195" y="700"/>
    </contour>
    <contour>
      <point x="547" y="722" type="curve"/>
      <point x="463" y="592"/>
      <point x="382" y="467"/>
      <point x="297" y="337" type="curve"/>
      <point x="448" y="337"/>
      <point x="291" y="337"/>
      <point x="443" y="337" type="curve"/>
      <point x="523" y="460"/>
      <point x="601" y="580"/>
      <point x="682" y="702" type="curve"/>
      <point x="547" y="702"/>
      <point x="682" y="722"/>
    </contour>
    <contour>
      <point x="446" y="0" type="curve"/>
      <point x="446" y="115"/>
      <point x="446" y="227"/>
      <point x="446" y="342" type="curve"/>
      <point x="283" y="342"/>
      <point x="446" y="342"/>
      <point x="283" y="342" type="curve"/>
      <point x="283" y="227"/>
      <point x="283" y="115"/>
      <point x="283" y="0" type="curve"/>
      <point x="446" y="0"/>
      <point x="283" y="0"/>
    </contour>
  </outline>
</glyph>
<glyph name="section" format="1">
  <advance width="596"/>
  <unicode hex="00A7"/>
  <outline>
    <contour>
      <point x="479" y="701" type="curve"/>
      <point x="417" y="733"/>
      <point x="371" y="748"/>
      <point x="303" y="748" type="curve"/>
      <point x="179" y="748"/>
      <point x="89" y="700"/>
      <point x="89" y="593" type="curve"/>
      <point x="89" y="499"/>
      <point x="155" y="453"/>
      <point x="249" y="425" type="curve"/>
      <point x="315" y="405"/>
      <point x="395" y="404"/>
      <point x="395" y="356" type="curve"/>
      <point x="395" y="306"/>
      <point x="348" y="292"/>
      <point x="291" y="282" type="curve"/>
      <point x="379" y="193"/>
      <point x="291" y="282"/>
      <point x="379" y="193" type="curve"/>
      <point x="479" y="214"/>
      <point x="544" y="265"/>
      <point x="544" y="361" type="curve"/>
      <point x="543" y="474"/>
      <point x="440" y="500"/>
      <point x="324" y="531" type="curve"/>
      <point x="280" y="544"/>
      <point x="235" y="553"/>
      <point x="235" y="593" type="curve"/>
      <point x="235" y="623"/>
      <point x="261" y="636"/>
      <point x="296" y="636" type="curve"/>
      <point x="342" y="636"/>
      <point x="370" y="628"/>
      <point x="417" y="607" type="curve"/>
      <point x="479" y="701"/>
      <point x="417" y="607"/>
    </contour>
    <contour>
      <point x="216" y="528" type="curve"/>
      <point x="122" y="503"/>
      <point x="54" y="459"/>
      <point x="54" y="366" type="curve"/>
      <point x="54" y="260"/>
      <point x="141" y="223"/>
      <point x="250" y="193" type="curve"/>
      <point x="304" y="178"/>
      <point x="367" y="172"/>
      <point x="367" y="130" type="curve"/>
      <point x="367" y="98"/>
      <point x="337" y="86"/>
      <point x="300" y="86" type="curve"/>
      <point x="249" y="86"/>
      <point x="217" y="98"/>
      <point x="164" y="124" type="curve"/>
      <point x="92" y="38"/>
      <point x="164" y="124"/>
      <point x="92" y="38" type="curve"/>
      <point x="159" y="-9"/>
      <point x="216" y="-26"/>
      <point x="296" y="-26" type="curve"/>
      <point x="418" y="-26"/>
      <point x="514" y="20"/>
      <point x="514" y="133" type="curve"/>
      <point x="513" y="229"/>
      <point x="442" y="274"/>
      <point x="345" y="300" type="curve"/>
      <point x="279" y="319"/>
      <point x="203" y="320"/>
      <point x="203" y="373" type="curve"/>
      <point x="203" y="416"/>
      <point x="242" y="431"/>
      <point x="290" y="444" type="curve"/>
      <point x="216" y="528"/>
      <point x="290" y="444"/>
    </contour>
    <contour>
      <point x="207" y="38" type="curve"/>
      <point x="207" y="158"/>
      <point x="207" y="40"/>
      <point x="207" y="160" type="curve"/>
      <point x="92" y="160"/>
      <point x="207" y="160"/>
      <point x="92" y="160" type="curve"/>
      <point x="92" y="40"/>
      <point x="92" y="158"/>
      <point x="92" y="38" type="curve"/>
      <point x="207" y="38"/>
      <point x="92" y="38"/>
    </contour>
    <contour>
      <point x="479" y="578" type="curve"/>
      <point x="479" y="698"/>
      <point x="479" y="581"/>
      <point x="479" y="701" type="curve"/>
      <point x="364" y="701"/>
      <point x="479" y="701"/>
      <point x="364" y="701" type="curve"/>
      <point x="364" y="581"/>
      <point x="364" y="698"/>
      <point x="364" y="578" type="curve"/>
      <point x="479" y="578"/>
      <point x="364" y="578"/>
    </contour>
  </outline>
</glyph>
<glyph name="dieresis" format="1">
  <advance width="426"/>
  <unicode hex="00A8"/>
  <outline>
    <contour>
      <point x="193" y="617" type="curve"/>
      <point x="193" y="666"/>
      <point x="157" y="690"/>
      <point x="108" y="690" type="curve"/>
      <point x="59" y="690"/>
      <point x="26" y="664"/>
      <point x="26" y="617" type="curve"/>
      <point x="193" y="617"/>
      <point x="26" y="617"/>
      <point x="193" y="617" type="curve"/>
      <point x="193" y="567"/>
      <point x="157" y="545"/>
      <point x="108" y="545" type="curve"/>
      <point x="58" y="545"/>
      <point x="26" y="569"/>
      <point x="26" y="617" type="curve"/>
      <point x="193" y="617"/>
      <point x="26" y="617"/>
    </contour>
    <contour>
      <point x="413" y="617" type="curve"/>
      <point x="413" y="666"/>
      <point x="377" y="690"/>
      <point x="328" y="690" type="curve"/>
      <point x="279" y="690"/>
      <point x="246" y="664"/>
      <point x="246" y="617" type="curve"/>
      <point x="413" y="617"/>
      <point x="246" y="617"/>
      <point x="413" y="617" type="curve"/>
      <point x="413" y="567"/>
      <point x="377" y="545"/>
      <point x="328" y="545" type="curve"/>
      <point x="278" y="545"/>
      <point x="246" y="569"/>
      <point x="246" y="617" type="curve"/>
      <point x="413" y="617"/>
      <point x="246" y="617"/>
    </contour>
    <contour>
      <point x="219" y="549" type="move" name="_top"/>
    </contour>
  </outline>
</glyph>
<glyph name="copyright" format="1">
  <advance width="863"/>
  <unicode hex="00A9"/>
  <outline>
    <contour>
      <point x="175" y="324" type="curve"/>
      <point x="175" y="470"/>
      <point x="285" y="555"/>
      <point x="435" y="555" type="curve"/>
      <point x="582" y="555"/>
      <point x="689" y="467"/>
      <point x="689" y="322" type="curve"/>
      <point x="689" y="182"/>
      <point x="586" y="96"/>
      <point x="444" y="96" type="curve"/>
      <point x="293" y="96"/>
      <point x="175" y="178"/>
      <point x="175" y="324" type="curve"/>
      <point x="55" y="324"/>
      <point x="177" y="324"/>
      <point x="56" y="324" type="curve"/>
      <point x="56" y="120"/>
      <point x="222" y="6"/>
      <point x="439" y="6" type="curve"/>
      <point x="649" y="6"/>
      <point x="806" y="124"/>
      <point x="806" y="326" type="curve"/>
      <point x="806" y="528"/>
      <point x="646" y="645"/>
      <point x="435" y="645" type="curve"/>
      <point x="221" y="645"/>
      <point x="56" y="529"/>
      <point x="56" y="324" type="curve"/>
      <point x="177" y="324"/>
      <point x="55" y="324"/>
    </contour>
    <contour>
      <point x="490" y="415" type="curve"/>
      <point x="490" y="403"/>
      <point x="490" y="388"/>
      <point x="490" y="373" type="curve"/>
      <point x="599" y="373"/>
      <point x="491" y="373"/>
      <point x="600" y="373" type="curve"/>
      <point x="600" y="404"/>
      <point x="600" y="440"/>
      <point x="600" y="467" type="curve"/>
      <point x="491" y="419"/>
      <point x="599" y="463"/>
    </contour>
    <contour>
      <point x="600" y="467" type="curve"/>
      <point x="555" y="500"/>
      <point x="503" y="514"/>
      <point x="441" y="514" type="curve"/>
      <point x="311" y="514"/>
      <point x="225" y="447"/>
      <point x="225" y="323" type="curve"/>
      <point x="225" y="204"/>
      <point x="303" y="138"/>
      <point x="424" y="138" type="curve"/>
      <point x="494" y="138"/>
      <point x="543" y="148"/>
      <point x="599" y="195" type="curve"/>
      <point x="536" y="258"/>
      <point x="599" y="195"/>
      <point x="536" y="258" type="curve"/>
      <point x="492" y="237"/>
      <point x="467" y="228"/>
      <point x="429" y="228" type="curve"/>
      <point x="371" y="228"/>
      <point x="341" y="267"/>
      <point x="341" y="327" type="curve"/>
      <point x="341" y="388"/>
      <point x="375" y="424"/>
      <point x="436" y="424" type="curve"/>
      <point x="458" y="424"/>
      <point x="476" y="420"/>
      <point x="490" y="415" type="curve"/>
      <point x="599" y="463"/>
      <point x="491" y="419"/>
    </contour>
  </outline>
</glyph>
<glyph name="ordfeminine" format="1">
  <advance width="486"/>
  <unicode hex="00AA"/>
  <outline>
    <contour>
      <point x="71" y="729" type="curve"/>
      <point x="71" y="653"/>
      <point x="71" y="726"/>
      <point x="71" y="650" type="curve"/>
      <point x="148" y="650"/>
      <point x="71" y="650"/>
      <point x="148" y="650" type="curve"/>
      <point x="148" y="726"/>
      <point x="148" y="653"/>
      <point x="148" y="729" type="curve"/>
      <point x="71" y="729"/>
      <point x="148" y="729"/>
    </contour>
    <contour>
      <point x="390" y="425" type="curve"/>
      <point x="390" y="506"/>
      <point x="390" y="585"/>
      <point x="390" y="666" type="curve"/>
      <point x="390" y="754"/>
      <point x="319" y="778"/>
      <point x="228" y="778" type="curve"/>
      <point x="160" y="778"/>
      <point x="110" y="759"/>
      <point x="71" y="729" type="curve"/>
      <point x="108" y="667"/>
      <point x="75" y="727"/>
      <point x="112" y="664" type="curve"/>
      <point x="134" y="684"/>
      <point x="168" y="704"/>
      <point x="214" y="704" type="curve"/>
      <point x="257" y="704"/>
      <point x="291" y="692"/>
      <point x="291" y="651" type="curve"/>
      <point x="291" y="575"/>
      <point x="291" y="500"/>
      <point x="291" y="425" type="curve"/>
      <point x="390" y="425"/>
      <point x="291" y="425"/>
    </contour>
    <contour>
      <point x="342" y="425" type="curve"/>
      <point x="373" y="425"/>
      <point x="403" y="425"/>
      <point x="434" y="425" type="curve"/>
      <point x="434" y="499"/>
      <point x="434" y="425"/>
      <point x="434" y="499" type="curve"/>
      <point x="343" y="499"/>
      <point x="433" y="499"/>
      <point x="342" y="499" type="curve"/>
      <point x="342" y="425"/>
      <point x="342" y="499"/>
    </contour>
    <contour>
      <point x="338" y="655" type="curve"/>
      <point x="285" y="649"/>
      <point x="252" y="647"/>
      <point x="198" y="641" type="curve"/>
      <point x="112" y="632"/>
      <point x="49" y="612"/>
      <point x="49" y="533" type="curve"/>
      <point x="49" y="456"/>
      <point x="103" y="422"/>
      <point x="186" y="422" type="curve"/>
      <point x="268" y="422"/>
      <point x="305" y="467"/>
      <point x="363" y="526" type="curve"/>
      <point x="316" y="565"/>
      <point x="363" y="526"/>
      <point x="315" y="564" type="curve"/>
      <point x="281" y="525"/>
      <point x="253" y="495"/>
      <point x="205" y="495" type="curve"/>
      <point x="168" y="495"/>
      <point x="146" y="506"/>
      <point x="146" y="535" type="curve"/>
      <point x="146" y="562"/>
      <point x="171" y="572"/>
      <point x="198" y="575" type="curve"/>
      <point x="255" y="581"/>
      <point x="285" y="585"/>
      <point x="343" y="592" type="curve"/>
      <point x="338" y="655"/>
      <point x="343" y="592"/>
    </contour>
  </outline>
</glyph>
<glyph name="guillemotleft" format="1">
  <advance width="589"/>
  <unicode hex="00AB"/>
  <outline>
    <contour>
      <point x="268" y="484" type="curve"/>
      <point x="210" y="450"/>
      <point x="107" y="387"/>
      <point x="49" y="353" type="curve"/>
      <point x="49" y="230"/>
      <point x="49" y="344"/>
      <point x="49" y="221" type="curve"/>
      <point x="107" y="255"/>
      <point x="210" y="322"/>
      <point x="268" y="356" type="curve"/>
      <point x="268" y="479"/>
      <point x="268" y="361"/>
    </contour>
    <contour>
      <point x="268" y="221" type="curve"/>
      <point x="210" y="255"/>
      <point x="107" y="319"/>
      <point x="49" y="353" type="curve"/>
      <point x="49" y="230"/>
      <point x="49" y="344"/>
      <point x="49" y="221" type="curve"/>
      <point x="107" y="187"/>
      <point x="210" y="127"/>
      <point x="268" y="93" type="curve"/>
      <point x="268" y="216"/>
      <point x="268" y="98"/>
    </contour>
    <contour>
      <point x="516" y="484" type="curve"/>
      <point x="458" y="450"/>
      <point x="355" y="387"/>
      <point x="297" y="353" type="curve"/>
      <point x="297" y="230"/>
      <point x="297" y="344"/>
      <point x="297" y="221" type="curve"/>
      <point x="355" y="255"/>
      <point x="458" y="322"/>
      <point x="516" y="356" type="curve"/>
      <point x="516" y="479"/>
      <point x="516" y="361"/>
    </contour>
    <contour>
      <point x="516" y="221" type="curve"/>
      <point x="458" y="255"/>
      <point x="355" y="319"/>
      <point x="297" y="353" type="curve"/>
      <point x="297" y="230"/>
      <point x="297" y="344"/>
      <point x="297" y="221" type="curve"/>
      <point x="355" y="187"/>
      <point x="458" y="127"/>
      <point x="516" y="93" type="curve"/>
      <point x="516" y="216"/>
      <point x="516" y="98"/>
    </contour>
  </outline>
</glyph>
<glyph name="logicalnot" format="1">
  <advance width="671"/>
  <unicode hex="00AC"/>
  <outline>
    <contour>
      <point x="77" y="253" type="curve"/>
      <point x="599" y="253" type="line"/>
      <point x="599" y="375"/>
      <point x="599" y="253"/>
      <point x="599" y="375" type="curve"/>
      <point x="77" y="375" type="line"/>
      <point x="77" y="253"/>
      <point x="77" y="375"/>
    </contour>
    <contour>
      <point x="599" y="139" type="curve"/>
      <point x="599" y="375" type="line"/>
      <point x="449" y="375"/>
      <point x="604" y="375"/>
      <point x="455" y="375" type="curve"/>
      <point x="455" y="139" type="line"/>
      <point x="604" y="139"/>
      <point x="449" y="139"/>
    </contour>
  </outline>
</glyph>
<glyph name="registered" format="1">
  <advance width="874"/>
  <unicode hex="00AE"/>
  <outline>
    <contour>
      <point x="163" y="323" type="curve"/>
      <point x="163" y="482"/>
      <point x="275" y="564"/>
      <point x="441" y="564" type="curve"/>
      <point x="604" y="564"/>
      <point x="711" y="479"/>
      <point x="711" y="321" type="curve"/>
      <point x="711" y="168"/>
      <point x="607" y="85"/>
      <point x="449" y="85" type="curve"/>
      <point x="280" y="85"/>
      <point x="163" y="163"/>
      <point x="163" y="323" type="curve"/>
      <point x="124" y="323"/>
      <point x="97" y="323"/>
      <point x="57" y="323" type="curve"/>
      <point x="57" y="110"/>
      <point x="218" y="5"/>
      <point x="444" y="5" type="curve"/>
      <point x="665" y="5"/>
      <point x="816" y="115"/>
      <point x="816" y="325" type="curve"/>
      <point x="816" y="537"/>
      <point x="663" y="644"/>
      <point x="441" y="644" type="curve"/>
      <point x="215" y="644"/>
      <point x="57" y="537"/>
      <point x="57" y="323" type="curve"/>
      <point x="97" y="323"/>
      <point x="124" y="323"/>
    </contour>
    <contour>
      <point x="518" y="141" type="curve"/>
      <point x="560" y="141"/>
      <point x="578" y="141"/>
      <point x="620" y="141" type="curve"/>
      <point x="620" y="230"/>
      <point x="620" y="141"/>
      <point x="620" y="230" type="curve"/>
      <point x="607" y="230"/>
      <point x="607" y="230"/>
      <point x="594" y="230" type="curve"/>
      <point x="507" y="141"/>
      <point x="605" y="230"/>
    </contour>
    <contour>
      <point x="421" y="509" type="curve"/>
      <point x="369" y="509"/>
      <point x="324" y="509"/>
      <point x="272" y="509" type="curve"/>
      <point x="272" y="419"/>
      <point x="272" y="509"/>
      <point x="272" y="419" type="curve"/>
      <point x="284" y="419"/>
      <point x="289" y="419"/>
      <point x="301" y="419" type="curve"/>
      <point x="421" y="509"/>
      <point x="301" y="419"/>
    </contour>
    <contour>
      <point x="421" y="230" type="curve"/>
      <point x="369" y="230"/>
      <point x="324" y="230"/>
      <point x="272" y="230" type="curve"/>
      <point x="272" y="141"/>
      <point x="272" y="230"/>
      <point x="272" y="141" type="curve"/>
      <point x="284" y="141"/>
      <point x="289" y="141"/>
      <point x="301" y="141" type="curve"/>
      <point x="421" y="230"/>
      <point x="301" y="141"/>
    </contour>
    <contour>
      <point x="301" y="141" type="curve"/>
      <point x="350" y="141"/>
      <point x="391" y="141"/>
      <point x="440" y="141" type="curve"/>
      <point x="440" y="230"/>
      <point x="440" y="141"/>
      <point x="440" y="230" type="curve"/>
      <point x="431" y="230"/>
      <point x="430" y="230"/>
      <point x="421" y="230" type="curve"/>
      <point x="301" y="141"/>
      <point x="421" y="230"/>
    </contour>
    <contour>
      <point x="402" y="318" type="curve"/>
      <point x="427" y="287"/>
      <point x="493" y="172"/>
      <point x="518" y="141" type="curve"/>
      <point x="605" y="230"/>
      <point x="507" y="141"/>
      <point x="594" y="230" type="curve"/>
      <point x="581" y="246"/>
      <point x="545" y="299"/>
      <point x="532" y="314" type="curve"/>
      <point x="385" y="314"/>
      <point x="549" y="318"/>
    </contour>
    <contour>
      <point x="416" y="230" type="curve"/>
      <point x="416" y="323"/>
      <point x="416" y="416"/>
      <point x="416" y="509" type="curve"/>
      <point x="296" y="419"/>
      <point x="421" y="509"/>
      <point x="301" y="419" type="curve"/>
      <point x="301" y="327"/>
      <point x="301" y="233"/>
      <point x="301" y="141" type="curve"/>
      <point x="421" y="230"/>
      <point x="296" y="141"/>
    </contour>
    <contour>
      <point x="363" y="268" type="curve"/>
      <point x="383" y="268"/>
      <point x="403" y="268"/>
      <point x="422" y="268" type="curve"/>
      <point x="522" y="268"/>
      <point x="596" y="297"/>
      <point x="596" y="392" type="curve"/>
      <point x="596" y="472"/>
      <point x="532" y="509"/>
      <point x="446" y="509" type="curve"/>
      <point x="438" y="509"/>
      <point x="429" y="509"/>
      <point x="421" y="509" type="curve"/>
      <point x="301" y="419"/>
      <point x="421" y="509"/>
      <point x="301" y="419" type="curve"/>
      <point x="342" y="419"/>
      <point x="384" y="419"/>
      <point x="424" y="419" type="curve"/>
      <point x="456" y="419"/>
      <point x="483" y="415"/>
      <point x="483" y="388" type="curve"/>
      <point x="483" y="364"/>
      <point x="464" y="358"/>
      <point x="439" y="358" type="curve"/>
      <point x="414" y="358"/>
      <point x="388" y="358"/>
      <point x="363" y="358" type="curve"/>
      <point x="363" y="268"/>
      <point x="363" y="358"/>
    </contour>
  </outline>
</glyph>
<glyph name="macron" format="1">
  <advance width="315"/>
  <unicode hex="00AF"/>
  <outline>
    <contour>
      <point x="271" y="670" type="curve"/>
      <point x="192" y="670"/>
      <point x="114" y="670"/>
      <point x="36" y="670" type="curve"/>
      <point x="36" y="558"/>
      <point x="36" y="670"/>
      <point x="36" y="558" type="curve"/>
      <point x="114" y="558"/>
      <point x="192" y="558"/>
      <point x="271" y="558" type="curve"/>
      <point x="271" y="670"/>
      <point x="271" y="558"/>
    </contour>
    <contour>
      <point x="154" y="558" type="move" name="_top"/>
    </contour>
  </outline>
</glyph>
<glyph name="degree" format="1">
  <advance width="542"/>
  <unicode hex="00B0"/>
  <outline>
    <contour>
      <point x="486" y="548" type="curve"/>
      <point x="486" y="672"/>
      <point x="399" y="742"/>
      <point x="271" y="742" type="curve"/>
      <point x="143" y="742"/>
      <point x="57" y="673"/>
      <point x="57" y="549" type="curve"/>
      <point x="151" y="549"/>
      <point x="90" y="549"/>
      <point x="184" y="549" type="curve"/>
      <point x="184" y="601"/>
      <point x="215" y="636"/>
      <point x="270" y="636" type="curve"/>
      <point x="322" y="636"/>
      <point x="356" y="603"/>
      <point x="356" y="548" type="curve"/>
      <point x="356" y="493"/>
      <point x="325" y="457"/>
      <point x="272" y="457" type="curve"/>
      <point x="217" y="457"/>
      <point x="184" y="493"/>
      <point x="184" y="549" type="curve"/>
      <point x="90" y="549"/>
      <point x="151" y="549"/>
      <point x="57" y="549" type="curve"/>
      <point x="57" y="424"/>
      <point x="141" y="351"/>
      <point x="269" y="351" type="curve"/>
      <point x="398" y="351"/>
      <point x="486" y="423"/>
    </contour>
  </outline>
</glyph>
<glyph name="plusminus" format="1">
  <advance width="709"/>
  <unicode hex="00B1"/>
  <outline>
    <contour>
      <point x="61" y="36" type="line"/>
      <point x="648" y="36" type="line"/>
      <point x="648" y="159" type="line"/>
      <point x="61" y="159" type="line"/>
    </contour>
    <contour>
      <point x="61" y="253" type="curve"/>
      <point x="648" y="253" type="line"/>
      <point x="648" y="375"/>
      <point x="648" y="253"/>
      <point x="648" y="375" type="curve"/>
      <point x="61" y="375" type="line"/>
      <point x="61" y="253"/>
      <point x="61" y="375"/>
    </contour>
    <contour>
      <point x="427" y="36" type="curve"/>
      <point x="427" y="583" type="line"/>
      <point x="277" y="583"/>
      <point x="437" y="583"/>
      <point x="287" y="583" type="curve"/>
      <point x="287" y="36" type="line"/>
      <point x="437" y="36"/>
      <point x="277" y="36"/>
    </contour>
  </outline>
</glyph>
<glyph name="twosuperior" format="1">
  <advance width="521"/>
  <unicode hex="00B2"/>
  <outline>
    <contour>
      <point x="470" y="319" type="curve"/>
      <point x="470" y="367"/>
      <point x="470" y="416"/>
      <point x="470" y="465" type="curve"/>
      <point x="362" y="465"/>
      <point x="479" y="465"/>
      <point x="371" y="465" type="curve"/>
      <point x="371" y="450"/>
      <point x="371" y="435"/>
      <point x="371" y="421" type="curve"/>
      <point x="485" y="327"/>
      <point x="355" y="413"/>
    </contour>
    <contour>
      <point x="65" y="319" type="curve"/>
      <point x="223" y="319"/>
      <point x="355" y="319"/>
      <point x="470" y="319" type="curve"/>
      <point x="355" y="413"/>
      <point x="485" y="327"/>
      <point x="371" y="421" type="curve"/>
      <point x="272" y="421"/>
      <point x="164" y="421"/>
      <point x="65" y="421" type="curve"/>
      <point x="65" y="319"/>
      <point x="65" y="421"/>
    </contour>
    <contour>
      <point x="168" y="611" type="curve"/>
      <point x="192" y="642"/>
      <point x="214" y="661"/>
      <point x="250" y="661" type="curve"/>
      <point x="286" y="661"/>
      <point x="311" y="645"/>
      <point x="311" y="616" type="curve"/>
      <point x="311" y="582"/>
      <point x="285" y="567"/>
      <point x="259" y="545" type="curve"/>
      <point x="194" y="503"/>
      <point x="129" y="462"/>
      <point x="65" y="421" type="curve"/>
      <point x="65" y="321"/>
      <point x="67" y="421"/>
      <point x="67" y="321" type="curve"/>
      <point x="170" y="378"/>
      <point x="264" y="420"/>
      <point x="334" y="467" type="curve"/>
      <point x="395" y="513"/>
      <point x="446" y="547"/>
      <point x="446" y="620" type="curve"/>
      <point x="446" y="718"/>
      <point x="368" y="762"/>
      <point x="263" y="762" type="curve"/>
      <point x="178" y="762"/>
      <point x="113" y="736"/>
      <point x="75" y="662" type="curve"/>
      <point x="168" y="611"/>
      <point x="75" y="662"/>
    </contour>
    <contour>
      <point x="257" y="762" type="move" name="_top"/>
    </contour>
    <contour>
      <point x="269" y="319" type="move" name="_bottom"/>
    </contour>
  </outline>
</glyph>
<glyph name="threesuperior" format="1">
  <advance width="469"/>
  <unicode hex="00B3"/>
  <outline>
    <contour>
      <point x="118" y="627" type="curve"/>
      <point x="146" y="650"/>
      <point x="176" y="660"/>
      <point x="200" y="660" type="curve"/>
      <point x="236" y="660"/>
      <point x="261" y="650"/>
      <point x="261" y="622" type="curve"/>
      <point x="261" y="589"/>
      <point x="207" y="583"/>
      <point x="158" y="582" type="curve"/>
      <point x="158" y="497"/>
      <point x="158" y="582"/>
      <point x="158" y="497" type="curve"/>
      <point x="286" y="499"/>
      <point x="398" y="521"/>
      <point x="398" y="630" type="curve"/>
      <point x="398" y="725"/>
      <point x="318" y="760"/>
      <point x="214" y="760" type="curve"/>
      <point x="152" y="760"/>
      <point x="95" y="737"/>
      <point x="53" y="698" type="curve"/>
      <point x="118" y="627"/>
      <point x="53" y="698"/>
    </contour>
    <contour>
      <point x="52" y="350" type="curve"/>
      <point x="97" y="326"/>
      <point x="141" y="311"/>
      <point x="191" y="311" type="curve"/>
      <point x="318" y="309"/>
      <point x="416" y="342"/>
      <point x="414" y="453" type="curve"/>
      <point x="414" y="568"/>
      <point x="291" y="569"/>
      <point x="158" y="572" type="curve"/>
      <point x="158" y="496"/>
      <point x="158" y="572"/>
      <point x="158" y="496" type="curve"/>
      <point x="219" y="495"/>
      <point x="277" y="488"/>
      <point x="277" y="451" type="curve"/>
      <point x="277" y="418"/>
      <point x="244" y="407"/>
      <point x="204" y="408" type="curve"/>
      <point x="175" y="408"/>
      <point x="146" y="414"/>
      <point x="109" y="428" type="curve"/>
      <point x="52" y="350"/>
      <point x="109" y="428"/>
    </contour>
    <contour>
      <point x="227" y="761" type="move" name="_top"/>
    </contour>
    <contour>
      <point x="218" y="311" type="move" name="_bottom"/>
    </contour>
  </outline>
</glyph>
<glyph name="paragraph" format="1">
  <advance width="886"/>
  <unicode hex="00B6"/>
  <outline>
    <contour>
      <point x="490" y="610" type="curve"/>
      <point x="658" y="610"/>
      <point x="490" y="610"/>
      <point x="658" y="610" type="curve"/>
      <point x="658" y="722"/>
      <point x="658" y="610"/>
      <point x="658" y="722" type="curve"/>
      <point x="602" y="722"/>
      <point x="545" y="722"/>
      <point x="490" y="722" type="curve"/>
      <point x="490" y="610"/>
      <point x="490" y="722"/>
    </contour>
    <contour>
      <point x="490" y="0" type="curve"/>
      <point x="545" y="0"/>
      <point x="602" y="0"/>
      <point x="658" y="0" type="curve"/>
      <point x="658" y="112"/>
      <point x="658" y="0"/>
      <point x="658" y="112" type="curve"/>
      <point x="490" y="112"/>
      <point x="658" y="112"/>
      <point x="490" y="112" type="curve"/>
      <point x="490" y="0"/>
      <point x="490" y="112"/>
    </contour>
    <contour>
      <point x="490" y="112" type="curve"/>
      <point x="323" y="112"/>
      <point x="490" y="112"/>
      <point x="323" y="112" type="curve"/>
      <point x="323" y="0"/>
      <point x="323" y="112"/>
      <point x="323" y="0" type="curve"/>
      <point x="490" y="0"/>
      <point x="434" y="0"/>
      <point x="490" y="0" type="curve"/>
      <point x="490" y="112"/>
      <point x="490" y="0"/>
    </contour>
    <contour>
      <point x="465" y="390" type="curve"/>
      <point x="415" y="369"/>
      <point x="376" y="357"/>
      <point x="321" y="357" type="curve"/>
      <point x="242" y="357"/>
      <point x="188" y="397"/>
      <point x="188" y="473" type="curve"/>
      <point x="188" y="568"/>
      <point x="264" y="610"/>
      <point x="365" y="610" type="curve"/>
      <point x="406" y="610"/>
      <point x="447" y="610"/>
      <point x="487" y="610" type="curve"/>
      <point x="487" y="722"/>
      <point x="487" y="610"/>
      <point x="487" y="722" type="curve"/>
      <point x="440" y="722"/>
      <point x="393" y="722"/>
      <point x="345" y="722" type="curve"/>
      <point x="171" y="722"/>
      <point x="38" y="641"/>
      <point x="38" y="479" type="curve"/>
      <point x="38" y="322"/>
      <point x="166" y="250"/>
      <point x="334" y="247" type="curve"/>
      <point x="400" y="247"/>
      <point x="453" y="267"/>
      <point x="512" y="293" type="curve"/>
      <point x="465" y="390"/>
      <point x="512" y="294"/>
    </contour>
    <contour>
      <point x="566" y="0" type="curve"/>
      <point x="566" y="241"/>
      <point x="566" y="481"/>
      <point x="566" y="722" type="curve"/>
      <point x="416" y="722"/>
      <point x="566" y="722"/>
      <point x="416" y="722" type="curve"/>
      <point x="416" y="481"/>
      <point x="416" y="241"/>
      <point x="416" y="0" type="curve"/>
      <point x="566" y="0"/>
      <point x="416" y="0"/>
    </contour>
    <contour>
      <point x="801" y="0" type="curve"/>
      <point x="801" y="241"/>
      <point x="801" y="481"/>
      <point x="801" y="722" type="curve"/>
      <point x="651" y="722"/>
      <point x="801" y="722"/>
      <point x="651" y="722" type="curve"/>
      <point x="651" y="481"/>
      <point x="651" y="241"/>
      <point x="651" y="0" type="curve"/>
      <point x="801" y="0"/>
      <point x="651" y="0"/>
    </contour>
  </outline>
</glyph>
<glyph name="periodcentered" format="1">
  <advance width="282"/>
  <unicode hex="00B7"/>
  <outline>
    <contour>
      <point x="225" y="440" type="curve"/>
      <point x="225" y="489"/>
      <point x="189" y="513"/>
      <point x="140" y="513" type="curve"/>
      <point x="91" y="513"/>
      <point x="58" y="487"/>
      <point x="58" y="440" type="curve"/>
      <point x="225" y="440"/>
      <point x="58" y="440"/>
      <point x="225" y="440" type="curve"/>
      <point x="225" y="390"/>
      <point x="189" y="368"/>
      <point x="139" y="368" type="curve"/>
      <point x="90" y="368"/>
      <point x="58" y="392"/>
      <point x="58" y="440" type="curve"/>
      <point x="225" y="440"/>
      <point x="58" y="440"/>
    </contour>
  </outline>
</glyph>
<glyph name="cedilla" format="1">
  <advance width="416"/>
  <unicode hex="00B8"/>
  <outline>
    <contour>
      <point x="169" y="172" type="curve"/>
      <point x="155" y="151"/>
      <point x="93" y="50"/>
      <point x="79" y="29" type="curve"/>
      <point x="181" y="-61"/>
      <point x="79" y="29"/>
      <point x="181" y="-61" type="curve"/>
      <point x="198" y="-35"/>
      <point x="268" y="68"/>
      <point x="284" y="94" type="curve"/>
      <point x="169" y="172"/>
      <point x="284" y="94"/>
    </contour>
    <contour>
      <point x="181" y="-61" type="curve"/>
      <point x="186" y="-57"/>
      <point x="190" y="-54"/>
      <point x="196" y="-54" type="curve"/>
      <point x="203" y="-54"/>
      <point x="210" y="-57"/>
      <point x="210" y="-66" type="curve"/>
      <point x="210" y="-79"/>
      <point x="196" y="-82"/>
      <point x="182" y="-82" type="curve"/>
      <point x="159" y="-82"/>
      <point x="140" y="-76"/>
      <point x="112" y="-64" type="curve"/>
      <point x="64" y="-148"/>
      <point x="112" y="-64"/>
      <point x="64" y="-148" type="curve"/>
      <point x="101" y="-166"/>
      <point x="133" y="-175"/>
      <point x="175" y="-175" type="curve"/>
      <point x="262" y="-175"/>
      <point x="329" y="-144"/>
      <point x="329" y="-62" type="curve"/>
      <point x="329" y="13"/>
      <point x="273" y="53"/>
      <point x="194" y="53" type="curve"/>
      <point x="151" y="53"/>
      <point x="120" y="46"/>
      <point x="79" y="29" type="curve"/>
      <point x="181" y="-61"/>
      <point x="79" y="29"/>
    </contour>
    <contour>
      <point x="266" y="94" type="move" name="_bottom"/>
    </contour>
  </outline>
</glyph>
<glyph name="onesuperior" format="1">
  <advance width="403"/>
  <unicode hex="00B9"/>
  <outline>
    <contour>
      <point x="157" y="319" type="curve"/>
      <point x="217" y="319"/>
      <point x="285" y="319"/>
      <point x="345" y="319" type="curve"/>
      <point x="345" y="422"/>
      <point x="345" y="314"/>
      <point x="345" y="416" type="curve"/>
      <point x="331" y="416"/>
      <point x="308" y="416"/>
      <point x="294" y="416" type="curve"/>
      <point x="157" y="314"/>
      <point x="294" y="422"/>
    </contour>
    <contour>
      <point x="294" y="416" type="curve"/>
      <point x="233" y="416"/>
      <point x="164" y="416"/>
      <point x="102" y="416" type="curve"/>
      <point x="102" y="314"/>
      <point x="102" y="422"/>
      <point x="102" y="319" type="curve"/>
      <point x="118" y="319"/>
      <point x="142" y="319"/>
      <point x="157" y="319" type="curve"/>
      <point x="294" y="422"/>
      <point x="157" y="314"/>
    </contour>
    <contour>
      <point x="105" y="579" type="line"/>
      <point x="294" y="752" type="line"/>
      <point x="157" y="753" type="line"/>
      <point x="40" y="654" type="line"/>
    </contour>
    <contour>
      <point x="294" y="416" type="curve"/>
      <point x="294" y="753" type="line"/>
      <point x="157" y="753" type="line"/>
      <point x="157" y="319" type="line"/>
      <point x="294" y="422"/>
      <point x="157" y="314"/>
    </contour>
    <contour>
      <point x="214" y="752" type="move" name="_top"/>
    </contour>
    <contour>
      <point x="227" y="319" type="move" name="_bottom"/>
    </contour>
  </outline>
</glyph>
<glyph name="ordmasculine" format="1">
  <advance width="480"/>
  <unicode hex="00BA"/>
  <outline>
    <contour>
      <point x="140" y="600" type="curve"/>
      <point x="140" y="661"/>
      <point x="172" y="704"/>
      <point x="235" y="704" type="curve"/>
      <point x="301" y="704"/>
      <point x="336" y="662"/>
      <point x="336" y="600" type="curve"/>
      <point x="336" y="535"/>
      <point x="303" y="497"/>
      <point x="242" y="497" type="curve"/>
      <point x="175" y="497"/>
      <point x="140" y="535"/>
      <point x="140" y="600" type="curve"/>
      <point x="83" y="600"/>
      <point x="101" y="600"/>
      <point x="44" y="600" type="curve"/>
      <point x="44" y="483"/>
      <point x="120" y="421"/>
      <point x="238" y="421" type="curve"/>
      <point x="357" y="421"/>
      <point x="436" y="482"/>
      <point x="436" y="600" type="curve"/>
      <point x="436" y="714"/>
      <point x="360" y="780"/>
      <point x="240" y="780" type="curve"/>
      <point x="119" y="780"/>
      <point x="44" y="714"/>
      <point x="44" y="600" type="curve"/>
      <point x="101" y="600"/>
      <point x="83" y="600"/>
    </contour>
  </outline>
</glyph>
